<?xml version="1.0" standalone="no"?>
<!DOCTYPE svg PUBLIC "-//W3C//DTD SVG 20010904//EN"
 "http://www.w3.org/TR/2001/REC-SVG-20010904/DTD/svg10.dtd">
<svg version="1.0" xmlns="http://www.w3.org/2000/svg"
 width="700.000000pt" height="700.000000pt" viewBox="0 0 700.000000 700.000000"
 preserveAspectRatio="xMidYMid meet">
<metadata>
Created by potrace 1.14, written by Peter Selinger 2001-2017
</metadata>
<g transform="translate(0.000000,700.000000) scale(0.100000,-0.100000)"
fill="#000000" stroke="none">
<path d="M861 6874 c-124 -33 -230 -121 -287 -240 -19 -39 -34 -83 -34 -98 0
-15 -3 -25 -8 -22 -11 7 4 -188 17 -213 7 -11 9 -21 6 -21 -3 0 1 -10 10 -23
8 -13 12 -27 8 -30 -3 -4 -1 -7 6 -7 8 0 10 -8 6 -22 -4 -16 -3 -19 3 -10 7
10 15 4 31 -24 13 -21 16 -33 9 -28 -8 5 -6 1 4 -8 17 -16 17 -17 1 -21 -15
-4 -15 -5 2 -6 11 0 26 -10 32 -21 11 -16 10 -21 -3 -28 -11 -6 -13 -11 -5
-16 6 -4 11 -2 11 3 0 6 4 11 8 11 12 0 36 -51 33 -69 -1 -8 2 -10 10 -5 9 5
10 2 6 -10 -4 -10 -3 -15 3 -11 5 3 14 -4 20 -15 6 -11 7 -20 3 -20 -4 0 -3
-4 3 -8 22 -15 86 -131 78 -143 -4 -8 -3 -10 4 -5 6 4 18 -6 27 -24 8 -16 12
-30 8 -30 -4 0 0 -6 9 -12 9 -7 30 -40 48 -73 18 -33 37 -66 43 -72 5 -7 6
-13 3 -13 -4 0 3 -10 14 -22 11 -12 18 -28 15 -36 -2 -7 -1 -11 3 -8 5 3 17
-12 27 -32 11 -20 34 -61 52 -90 19 -29 30 -59 27 -65 -4 -7 -3 -9 1 -4 5 4
19 -12 32 -34 19 -35 21 -44 11 -58 -11 -14 -11 -14 4 -3 15 12 19 9 34 -19
16 -33 34 -64 76 -136 41 -72 47 -87 41 -97 -3 -6 -3 -8 2 -4 12 12 36 -28 29
-49 -4 -13 -3 -14 4 -5 7 10 14 4 27 -25 10 -21 24 -46 32 -55 8 -9 12 -21 9
-27 -4 -5 0 -13 7 -18 13 -8 57 -75 57 -87 0 -4 -4 -5 -9 -1 -5 3 -12 1 -15
-4 -3 -4 3 -8 14 -7 28 1 84 -95 67 -114 -10 -10 -8 -12 6 -7 12 5 20 1 24
-11 4 -9 17 -34 31 -54 13 -21 21 -42 16 -49 -4 -7 -3 -10 3 -6 12 8 86 -120
77 -135 -4 -6 -3 -8 3 -5 10 6 60 -71 55 -85 -1 -5 3 -8 9 -8 6 0 8 -7 5 -16
-3 -8 -2 -12 4 -9 12 7 33 -32 24 -47 -4 -6 -3 -8 3 -5 5 3 20 -11 31 -32 24
-42 27 -56 12 -46 -5 3 -10 1 -10 -5 0 -7 6 -10 14 -7 10 4 25 -12 45 -48 36
-64 37 -66 14 -59 -15 5 -15 4 -3 -4 8 -6 17 -9 20 -7 4 2 14 -9 24 -26 9 -16
15 -29 12 -29 -3 0 3 -9 14 -20 21 -21 28 -46 8 -34 -7 5 -8 3 -4 -5 5 -7 11
-10 14 -7 9 10 34 -33 26 -47 -4 -6 -4 -9 1 -5 11 11 77 -100 69 -115 -4 -7
-4 -9 1 -5 6 6 85 -112 85 -127 0 -1 25 -43 55 -94 31 -50 53 -97 49 -103 -4
-6 -3 -8 3 -5 12 8 26 -20 17 -34 -3 -5 0 -8 6 -7 6 2 23 -19 39 -47 15 -27
61 -106 101 -175 40 -69 73 -133 72 -143 0 -9 3 -15 8 -12 12 8 43 -53 34 -67
-4 -7 -3 -8 4 -4 6 4 18 -6 27 -23 17 -34 19 -45 6 -36 -5 3 -12 1 -16 -4 -3
-6 3 -8 14 -6 15 3 26 -7 43 -37 13 -22 23 -43 22 -47 0 -3 8 -15 18 -25 10
-11 18 -23 18 -28 0 -4 14 -30 30 -56 32 -53 37 -68 18 -56 -7 4 -8 3 -4 -5 4
-6 11 -9 16 -6 12 8 32 -33 24 -48 -4 -6 -4 -9 1 -5 12 11 38 -29 29 -45 -4
-6 -4 -9 1 -5 5 5 15 -1 22 -12 12 -17 12 -24 2 -38 -11 -14 -11 -15 1 -5 11
11 20 2 49 -50 19 -34 34 -64 32 -66 -1 -2 1 -7 6 -10 12 -8 43 -54 43 -63 0
-4 -8 -5 -17 -2 -15 5 -15 4 -3 -4 8 -6 17 -9 21 -6 10 6 39 -58 32 -71 -4 -5
-3 -7 2 -3 8 7 73 -90 78 -115 1 -7 8 -18 15 -25 7 -8 10 -18 6 -23 -3 -5 0
-8 8 -7 7 2 12 -5 12 -14 -1 -10 2 -16 6 -13 10 6 82 -70 73 -79 -4 -4 0 -4
10 -1 12 5 19 0 27 -19 5 -14 12 -26 14 -26 3 0 3 7 0 15 -4 11 5 9 38 -8 23
-12 45 -24 48 -27 3 -3 21 -7 40 -8 19 -2 36 -8 38 -12 2 -5 15 -6 29 -4 14 3
32 -1 41 -8 12 -10 14 -10 8 0 -5 8 0 12 14 12 14 0 19 -4 14 -12 -4 -7 3 -4
16 7 14 12 20 14 15 5 -7 -12 -6 -13 6 -4 8 6 28 14 44 18 53 13 149 67 191
107 22 22 44 36 48 32 4 -5 7 -3 6 2 -5 22 1 35 14 35 8 0 13 8 12 17 0 10 4
17 11 16 7 -2 10 3 7 11 -3 7 2 20 10 29 8 8 13 17 10 19 -2 3 0 16 5 30 32
84 28 203 -9 298 -10 25 -135 248 -278 495 -143 248 -269 466 -280 485 -11 19
-86 150 -167 290 -81 140 -156 270 -167 288 -10 18 -58 102 -107 185 -48 84
-159 276 -246 427 -87 151 -213 370 -280 485 -67 116 -133 230 -147 255 -14
25 -101 175 -193 334 -92 159 -178 310 -192 335 -14 25 -30 52 -36 59 -5 6 -6
12 -1 12 5 0 4 4 -1 8 -17 12 -47 63 -41 70 3 3 6 1 6 -4 0 -10 770 -10 795 0
10 3 15 -1 15 -12 0 -12 3 -13 8 -5 6 10 219 13 983 13 535 1 983 1 994 1 11
0 163 -1 338 -1 254 0 317 -2 311 -12 -6 -10 -4 -11 7 0 25 23 27 12 6 -27
-12 -22 -26 -37 -31 -34 -5 4 -6 1 -2 -6 5 -7 -2 -28 -16 -49 -13 -20 -29 -48
-37 -61 -26 -47 -49 -88 -140 -244 -115 -199 -129 -242 -128 -369 1 -54 5 -98
9 -98 5 0 8 -7 8 -16 0 -27 62 -134 99 -172 20 -19 35 -40 33 -46 -2 -6 0 -8
3 -4 4 4 22 -4 40 -17 17 -14 38 -25 45 -25 7 0 10 -7 7 -15 -4 -8 -2 -17 4
-20 5 -4 8 -1 7 7 -4 18 33 11 50 -10 7 -10 11 -12 8 -6 -4 9 4 9 32 3 20 -5
52 -9 70 -9 18 0 31 -4 27 -9 -3 -5 0 -13 6 -17 7 -4 9 -3 5 4 -9 15 1 19 63
26 30 4 74 15 99 26 24 11 49 17 55 13 6 -4 7 -1 2 7 -6 10 -4 12 8 7 9 -3 16
-3 14 1 -1 4 0 7 3 7 3 0 29 25 58 55 29 30 57 55 61 55 5 0 13 4 18 9 5 5 3
6 -4 2 -19 -10 -16 7 5 30 9 11 18 25 19 32 3 12 82 144 92 152 3 3 7 12 9 20
2 8 16 35 31 60 16 25 39 64 51 87 13 23 28 39 33 36 6 -3 7 -1 3 6 -4 6 -1
23 8 36 9 13 28 46 42 72 37 65 50 84 56 78 3 -3 8 1 12 10 3 10 2 14 -5 9 -6
-3 3 18 20 47 17 30 35 54 40 54 5 0 13 4 18 9 5 5 3 6 -4 2 -18 -10 -16 4 6
37 10 16 21 25 23 20 3 -4 3 -2 1 5 -6 24 16 51 37 47 12 -2 18 0 15 6 -4 5
-11 7 -16 4 -14 -10 -11 4 13 46 11 21 26 35 31 32 6 -3 7 -1 3 5 -9 15 24 72
42 72 7 0 11 -4 7 -9 -3 -5 -1 -12 4 -15 5 -4 8 1 7 10 -1 8 -9 20 -17 25 -13
8 -6 13 14 10 5 -1 6 3 2 9 -7 11 25 70 38 70 4 0 6 4 3 8 -2 4 18 46 45 92
27 47 49 91 49 98 0 7 3 11 8 9 4 -3 8 7 9 21 3 24 8 57 13 72 2 8 -1 135 -4
151 -19 94 -61 176 -125 239 -62 62 -146 114 -173 107 -10 -3 -16 -2 -13 3 17
28 -134 29 -2660 29 -2215 0 -2588 -3 -2634 -15z m589 -34 c0 -5 -2 -10 -4
-10 -3 0 -8 5 -11 10 -3 6 -1 10 4 10 6 0 11 -4 11 -10z m245 -160 c3 -6 -1
-7 -9 -4 -18 7 -21 14 -7 14 6 0 13 -4 16 -10z m721 -82 c3 -4 -1 -5 -10 -4
-8 1 -18 5 -22 8 -3 4 1 5 10 4 8 -1 18 -5 22 -8z m1920 0 c3 -4 -1 -5 -10 -4
-8 1 -18 5 -22 8 -3 4 1 5 10 4 8 -1 18 -5 22 -8z m-2813 -73 c-3 -9 -8 -14
-10 -11 -3 3 -2 9 2 15 9 16 15 13 8 -4z m1923 0 c-1 -8 -5 -17 -8 -21 -5 -4
-4 16 1 34 3 9 9 -1 7 -13z m1920 -11 c1 -9 0 -13 -4 -10 -3 4 -7 14 -8 22 -1
9 0 13 4 10 3 -4 7 -14 8 -22z m-2630 -76 c3 -4 -1 -5 -10 -4 -8 1 -18 5 -22
8 -3 4 1 5 10 4 8 -1 18 -5 22 -8z m1920 0 c3 -4 -1 -5 -10 -4 -8 1 -18 5 -22
8 -3 4 1 5 10 4 8 -1 18 -5 22 -8z m-2893 -73 c-3 -9 -8 -14 -10 -11 -3 3 -2
9 2 15 9 16 15 13 8 -4z m2962 -314 c3 -5 2 -12 -3 -15 -5 -3 -9 1 -9 9 0 17
3 19 12 6z m-2721 -17 c3 -8 2 -12 -4 -9 -6 3 -10 10 -10 16 0 14 7 11 14 -7z
m411 6 c3 -6 -1 -7 -9 -4 -18 7 -21 14 -7 14 6 0 13 -4 16 -10z m952 -5 c0 -8
-4 -12 -9 -9 -5 3 -6 10 -3 15 9 13 12 11 12 -6z m557 -1 c3 -8 2 -12 -4 -9
-6 3 -10 10 -10 16 0 14 7 11 14 -7z m411 6 c3 -6 -1 -7 -9 -4 -18 7 -21 14
-7 14 6 0 13 -4 16 -10z"/>
<path d="M6436 6207 c3 -10 9 -15 12 -12 3 3 0 11 -7 18 -10 9 -11 8 -5 -6z"/>
<path d="M555 6180 c3 -5 8 -10 11 -10 2 0 4 5 4 10 0 6 -5 10 -11 10 -5 0 -7
-4 -4 -10z"/>
<path d="M6431 6164 c0 -11 3 -14 6 -6 3 7 2 16 -1 19 -3 4 -6 -2 -5 -13z"/>
<path d="M590 6154 c0 -9 -5 -12 -12 -8 -7 4 -8 3 -4 -4 10 -16 14 -15 26 8 7
14 7 20 0 20 -5 0 -10 -7 -10 -16z"/>
<path d="M6395 6140 c3 -5 8 -10 11 -10 2 0 4 5 4 10 0 6 -5 10 -11 10 -5 0
-7 -4 -4 -10z"/>
<path d="M595 6120 c-3 -5 -1 -10 4 -10 6 0 11 5 11 10 0 6 -2 10 -4 10 -3 0
-8 -4 -11 -10z"/>
<path d="M6375 6120 c-3 -5 -1 -10 4 -10 6 0 11 5 11 10 0 6 -2 10 -4 10 -3 0
-8 -4 -11 -10z"/>
<path d="M6361 6084 c0 -11 3 -14 6 -6 3 7 2 16 -1 19 -3 4 -6 -2 -5 -13z"/>
<path d="M676 6005 c4 -8 8 -15 10 -15 2 0 4 7 4 15 0 8 -4 15 -10 15 -5 0 -7
-7 -4 -15z"/>
<path d="M2110 5977 c0 -2 6 -10 14 -16 11 -9 16 -9 22 1 4 7 4 10 -1 6 -4 -4
-14 -3 -22 3 -7 6 -13 9 -13 6z"/>
<path d="M2549 5963 c-13 -16 -12 -17 4 -4 16 13 21 21 13 21 -2 0 -10 -8 -17
-17z"/>
<path d="M2736 5967 c3 -10 9 -15 12 -12 3 3 0 11 -7 18 -10 9 -11 8 -5 -6z"/>
<path d="M2837 5970 c7 -8 20 -15 29 -16 9 -1 13 1 9 4 -4 4 -10 7 -13 7 -4 0
-14 4 -22 9 -12 7 -13 6 -3 -4z"/>
<path d="M3056 5967 c3 -10 9 -15 12 -12 3 3 0 11 -7 18 -10 9 -11 8 -5 -6z"/>
<path d="M3157 5970 c7 -8 20 -15 29 -16 9 -1 13 1 9 4 -4 4 -10 7 -13 7 -4 0
-14 4 -22 9 -12 7 -13 6 -3 -4z"/>
<path d="M3230 5977 c0 -2 6 -10 14 -16 11 -9 16 -9 22 1 4 7 4 10 -1 6 -4 -4
-14 -3 -22 3 -7 6 -13 9 -13 6z"/>
<path d="M3293 5965 c0 -8 4 -12 9 -9 5 3 6 10 3 15 -9 13 -12 11 -12 -6z"/>
<path d="M3376 5967 c3 -10 9 -15 12 -12 3 3 0 11 -7 18 -10 9 -11 8 -5 -6z"/>
<path d="M3477 5970 c7 -8 20 -15 29 -16 9 -1 13 1 9 4 -4 4 -10 7 -13 7 -4 0
-14 4 -22 9 -12 7 -13 6 -3 -4z"/>
<path d="M3696 5967 c3 -10 9 -15 12 -12 3 3 0 11 -7 18 -10 9 -11 8 -5 -6z"/>
<path d="M3799 5967 c8 -9 16 -15 19 -12 3 3 12 -1 21 -8 14 -11 14 -10 2 6
-8 9 -16 15 -19 12 -3 -3 -12 1 -21 8 -14 11 -14 10 -2 -6z"/>
<path d="M4030 5977 c0 -2 6 -10 14 -16 11 -9 16 -9 22 1 4 7 4 10 -1 6 -4 -4
-14 -3 -22 3 -7 6 -13 9 -13 6z"/>
<path d="M4575 5971 c-3 -5 -2 -12 3 -15 5 -3 9 1 9 9 0 17 -3 19 -12 6z"/>
<path d="M4990 5977 c0 -2 6 -10 14 -16 11 -9 16 -9 22 1 4 7 4 10 -1 6 -4 -4
-14 -3 -22 3 -7 6 -13 9 -13 6z"/>
<path d="M1795 5960 c3 -5 8 -10 11 -10 2 0 4 5 4 10 0 6 -5 10 -11 10 -5 0
-7 -4 -4 -10z"/>
<path d="M2254 5954 c1 -8 4 -15 7 -16 2 -2 3 -1 2 1 -2 2 2 9 7 16 7 8 5 12
-4 12 -8 0 -13 -6 -12 -13z"/>
<path d="M2461 5956 c-9 -11 -9 -16 1 -22 7 -4 10 -4 6 1 -4 4 -3 14 3 22 6 7
9 13 6 13 -2 0 -10 -6 -16 -14z"/>
<path d="M4174 5954 c1 -8 4 -15 7 -16 2 -2 3 -1 2 1 -2 2 2 9 7 16 7 8 5 12
-4 12 -8 0 -13 -6 -12 -13z"/>
<path d="M4381 5956 c-9 -11 -9 -16 1 -22 7 -4 10 -4 6 1 -4 4 -3 14 3 22 6 7
9 13 6 13 -2 0 -10 -6 -16 -14z"/>
<path d="M4769 5957 c6 -8 7 -18 3 -22 -4 -5 -1 -5 6 -1 10 6 10 11 1 22 -6 8
-14 14 -16 14 -3 0 0 -6 6 -13z"/>
<path d="M1855 5951 c-3 -5 -2 -12 3 -15 5 -3 9 1 9 9 0 17 -3 19 -12 6z"/>
<path d="M2173 5945 c0 -8 4 -12 9 -9 5 3 6 10 3 15 -9 13 -12 11 -12 -6z"/>
<path d="M2653 5945 c0 -8 4 -12 9 -9 5 3 6 10 3 15 -9 13 -12 11 -12 -6z"/>
<path d="M2973 5945 c0 -8 4 -12 9 -9 5 3 6 10 3 15 -9 13 -12 11 -12 -6z"/>
<path d="M3613 5945 c0 -8 4 -12 9 -9 5 3 6 10 3 15 -9 13 -12 11 -12 -6z"/>
<path d="M4093 5945 c0 -8 4 -12 9 -9 5 3 6 10 3 15 -9 13 -12 11 -12 -6z"/>
<path d="M5053 5945 c0 -8 4 -12 9 -9 5 3 6 10 3 15 -9 13 -12 11 -12 -6z"/>
<path d="M4735 5940 c3 -5 8 -10 11 -10 2 0 4 5 4 10 0 6 -5 10 -11 10 -5 0
-7 -4 -4 -10z"/>
<path d="M2015 5920 c-3 -5 -1 -10 4 -10 6 0 11 5 11 10 0 6 -2 10 -4 10 -3 0
-8 -4 -11 -10z"/>
<path d="M3935 5920 c-3 -5 -1 -10 4 -10 6 0 11 5 11 10 0 6 -2 10 -4 10 -3 0
-8 -4 -11 -10z"/>
<path d="M4816 5913 c-6 -14 -5 -15 5 -6 7 7 10 15 7 18 -3 3 -9 -2 -12 -12z"/>
<path d="M4895 5920 c-3 -5 -1 -10 4 -10 6 0 11 5 11 10 0 6 -2 10 -4 10 -3 0
-8 -4 -11 -10z"/>
<path d="M6026 5438 c3 -5 10 -6 15 -3 13 9 11 12 -6 12 -8 0 -12 -4 -9 -9z"/>
<path d="M3423 5340 c-107 -22 -230 -111 -290 -211 -66 -110 -80 -253 -37
-375 12 -36 28 -71 34 -79 6 -8 8 -20 4 -27 -4 -7 -3 -10 1 -5 9 8 66 -83 59
-94 -2 -4 3 -10 12 -13 9 -4 14 -13 10 -22 -3 -8 -2 -13 3 -10 5 3 15 -7 22
-22 8 -15 33 -60 57 -100 24 -40 40 -77 36 -84 -4 -6 -3 -8 3 -5 5 3 36 -40
68 -96 87 -149 96 -167 90 -178 -4 -5 -1 -8 7 -7 7 2 12 -3 11 -9 -2 -7 1 -13
5 -13 5 0 21 -24 37 -52 15 -29 48 -86 72 -126 38 -63 42 -76 31 -90 -11 -15
-11 -15 3 -5 13 11 19 7 38 -27 12 -22 19 -40 15 -40 -4 0 1 -7 12 -15 10 -8
15 -15 9 -15 -6 0 -6 -3 0 -8 20 -13 55 -83 49 -94 -4 -7 -2 -8 4 -4 6 3 16
-3 22 -14 6 -11 8 -20 5 -20 -3 0 3 -10 15 -22 11 -12 20 -25 20 -29 0 -4 18
-37 41 -73 22 -35 41 -73 42 -84 0 -12 5 -20 9 -19 9 2 87 -130 88 -146 0 -5
-5 -5 -12 -1 -7 4 -8 3 -4 -5 4 -6 11 -9 16 -6 12 7 91 -134 83 -148 -3 -7 -3
-9 2 -5 9 9 76 -93 69 -104 -3 -5 -1 -8 3 -8 15 0 45 -59 37 -73 -4 -6 -3 -9
1 -4 10 9 76 -93 69 -105 -3 -4 0 -8 6 -8 7 0 9 -7 6 -16 -3 -8 -2 -13 2 -10
5 3 34 -39 64 -92 104 -179 109 -190 86 -176 -7 4 -8 3 -4 -5 4 -6 11 -9 16
-6 11 7 33 -32 25 -45 -3 -5 0 -12 6 -16 8 -4 9 -3 5 4 -4 7 -5 12 -3 12 11 0
77 -132 71 -142 -4 -7 -2 -8 5 -4 6 4 14 0 18 -11 3 -10 14 -30 24 -44 10 -14
16 -29 12 -33 -3 -3 -1 -6 5 -6 7 0 12 -5 12 -11 0 -5 -5 -7 -12 -3 -7 4 -8 3
-4 -5 4 -6 11 -9 15 -7 12 8 74 -101 65 -115 -4 -8 -3 -9 4 -5 11 6 22 -11 32
-49 2 -5 10 -15 18 -21 9 -7 12 -16 7 -25 -5 -8 -5 -11 0 -7 13 12 105 -154
99 -177 -4 -14 -3 -16 4 -7 7 10 16 1 37 -34 16 -27 28 -54 28 -61 0 -7 4 -13
9 -13 5 0 12 -8 15 -17 4 -9 24 -46 46 -81 21 -35 39 -72 40 -82 1 -10 4 -17
8 -14 6 3 114 -175 128 -211 2 -5 12 -22 22 -37 23 -32 24 -37 2 -36 -10 0
-769 -1 -1686 -1 -917 -1 -1672 1 -1677 4 -6 3 -10 3 -10 -2 0 -4 -16 -8 -35
-8 -19 0 -35 3 -35 8 0 4 4 7 10 7 5 0 9 4 7 8 -4 16 66 131 76 125 6 -3 7 -1
3 5 -8 14 64 143 76 136 4 -3 5 3 1 12 -5 13 -3 15 7 9 9 -6 11 -4 6 4 -5 7
-1 20 7 29 7 9 17 25 20 35 4 10 11 15 17 12 5 -3 7 0 5 8 -3 7 5 29 17 48
132 198 144 384 37 551 -156 243 -492 278 -694 74 -58 -59 -71 -80 -294 -470
-13 -22 -39 -68 -58 -101 -20 -33 -45 -76 -55 -95 -92 -162 -327 -563 -349
-596 -55 -81 -72 -140 -75 -259 -3 -84 -6 -109 -16 -107 -7 2 -9 0 -5 -5 5 -4
14 -8 20 -8 7 0 12 -10 11 -23 0 -12 4 -22 9 -22 5 0 6 -7 3 -16 -3 -8 -2 -13
3 -10 14 9 31 -40 18 -53 -9 -9 -8 -11 4 -6 10 4 20 1 25 -6 5 -8 3 -10 -7 -4
-8 5 3 -8 24 -27 36 -33 37 -37 20 -47 -17 -11 -16 -12 3 -6 28 7 73 -30 56
-47 -7 -7 -12 -17 -12 -23 0 -5 4 -4 9 3 6 11 11 10 25 -3 9 -10 14 -20 11
-23 -3 -4 -10 -1 -14 7 -7 10 -9 10 -14 -1 -8 -22 25 -18 51 5 15 14 22 16 22
7 0 -7 3 -10 6 -7 4 3 16 1 28 -6 11 -6 32 -13 45 -14 13 -1 27 -6 30 -10 3
-5 23 -8 44 -7 20 1 37 -3 37 -8 0 -6 -8 -7 -17 -4 -26 9 13 -21 52 -40 26
-13 27 -13 12 0 -12 9 -14 16 -8 21 6 3 11 12 11 18 0 8 -3 8 -9 -1 -6 -11
-10 -10 -19 0 -16 20 26 22 45 2 8 -7 10 -14 4 -14 -6 0 -11 -5 -11 -11 0 -8
5 -7 16 2 14 11 19 10 34 -11 l18 -24 -4 33 c-3 28 -2 31 10 22 10 -8 16 -9
21 -1 3 5 11 10 17 10 7 0 6 -5 -1 -14 -9 -11 -9 -16 0 -22 7 -4 9 -3 5 4 -3
6 -2 13 4 17 5 3 10 -2 11 -12 0 -11 3 -13 6 -5 3 7 -3 23 -13 34 -11 12 -14
18 -7 15 6 -4 14 -1 16 5 3 8 6 6 6 -4 1 -10 11 -22 24 -28 20 -10 20 -10 5 3
-22 17 -23 27 -4 27 8 0 16 -7 20 -15 3 -8 11 -15 18 -14 10 0 10 2 1 6 -30
12 -9 23 44 23 l56 0 -19 -22 c-19 -23 -19 -23 2 -5 11 9 24 14 29 10 4 -5 5
-2 1 5 -4 6 -2 12 4 12 6 0 8 5 4 13 -6 9 -5 9 7 0 19 -15 51 -19 67 -9 9 6
11 1 8 -19 -3 -15 -2 -24 2 -20 4 3 7 12 7 18 0 17 43 21 62 5 11 -8 14 -9 10
-1 -6 9 24 12 118 12 93 0 124 -3 119 -12 -5 -8 -2 -8 7 1 17 16 51 16 68 -1
11 -9 13 -9 7 1 -5 8 1 12 19 12 18 0 24 -4 19 -12 -6 -10 -4 -10 7 0 15 14
63 17 54 3 -3 -5 -1 -13 5 -16 6 -4 9 -1 8 7 -2 8 8 14 26 16 21 3 26 0 21
-10 -6 -10 -5 -11 6 0 7 6 25 12 40 12 15 0 30 -6 32 -12 4 -9 6 -8 6 2 1 21
101 14 117 -9 11 -14 12 -14 11 2 -2 20 -8 20 179 18 34 -1 53 -5 49 -11 -3
-5 -1 -10 4 -10 6 0 11 5 11 10 0 14 43 12 59 -2 9 -9 12 -9 7 -1 -8 15 21 21
56 12 14 -4 29 -5 32 -2 3 3 32 5 66 5 33 -1 99 -1 146 -1 50 -1 83 -5 79 -10
-3 -5 -1 -13 5 -16 6 -4 9 -1 8 7 -2 8 8 14 26 16 21 3 26 0 21 -10 -6 -10 -5
-11 6 0 17 16 66 16 72 0 4 -9 6 -8 6 2 1 21 100 14 119 -9 7 -9 11 -10 7 -3
-11 21 4 32 30 22 14 -5 27 -5 30 -1 7 12 45 1 45 -13 0 -6 5 -3 11 7 6 9 14
15 19 12 4 -3 47 -5 94 -6 47 0 89 -5 92 -10 3 -5 11 -9 17 -9 7 0 6 4 -3 11
-12 8 -9 10 13 6 15 -2 30 -1 32 3 7 12 45 0 45 -14 0 -6 5 -3 11 7 6 9 14 15
18 12 5 -2 46 -5 92 -6 46 -1 90 -6 97 -11 7 -6 15 -8 19 -4 3 3 0 7 -8 8 -8
1 13 4 46 7 78 8 177 2 169 -10 -3 -5 0 -9 5 -9 6 0 11 5 11 10 0 14 43 12 59
-3 9 -8 12 -8 7 0 -8 15 21 21 56 12 14 -4 29 -5 31 -2 5 4 102 5 425 3 33 0
51 -4 47 -10 -3 -6 -1 -10 4 -10 6 0 11 5 11 10 0 14 43 12 59 -2 11 -10 13
-10 7 0 -7 11 12 18 38 13 5 -1 36 -2 68 -2 33 0 56 -5 53 -10 -4 -5 -2 -9 4
-9 5 0 11 5 13 10 2 6 70 10 176 11 158 1 175 -1 187 -18 10 -13 13 -14 12 -3
-2 16 4 20 29 20 8 0 13 -4 10 -8 -3 -5 1 -9 9 -9 8 0 13 3 12 6 -3 8 8 11 43
11 29 0 30 -2 25 -32 -4 -18 -3 -30 0 -26 6 5 12 26 14 50 1 3 52 6 114 5 87
-2 111 -5 109 -15 -1 -8 2 -11 8 -7 6 3 8 11 5 16 -9 13 138 9 147 -5 5 -7 8
-6 8 4 0 13 1 13 10 0 14 -22 12 -30 -5 -24 -8 4 -15 2 -15 -4 0 -12 18 -11
39 2 11 7 13 5 8 -8 -4 -9 -3 -15 2 -11 5 3 11 -1 14 -7 3 -7 4 1 2 17 -2 21
-7 29 -19 27 -9 -2 -16 2 -16 7 0 14 50 10 51 -4 1 -5 0 -16 -1 -24 -1 -9 4
-12 16 -7 13 5 24 0 36 -16 17 -22 17 -22 12 -2 -3 12 -17 27 -30 33 -13 6
-24 16 -24 23 0 9 3 8 10 -2 9 -13 10 -13 10 0 0 10 3 11 8 4 5 -8 147 -13
147 -4 0 1 7 3 15 5 8 2 34 10 58 19 23 8 49 13 58 9 8 -3 14 -1 12 4 -2 6 20
27 47 48 28 21 58 49 69 62 10 14 24 22 32 19 8 -3 11 0 8 8 -3 7 9 38 25 69
17 32 33 73 37 92 3 18 11 32 17 31 7 -2 9 -1 5 1 -5 3 -8 38 -8 79 0 114 -22
183 -92 289 -14 22 -203 346 -418 720 -216 374 -478 829 -583 1010 -104 182
-212 368 -239 415 -27 47 -53 92 -58 100 -8 14 -295 511 -349 604 -13 22 -183
318 -379 656 -195 338 -378 656 -406 705 -126 223 -306 317 -523 275z m-608
-4340 c-3 -5 -12 -10 -18 -10 -7 0 -6 4 3 10 19 12 23 12 15 0z m-245 -164
c-7 -7 -13 -7 -20 0 -6 6 -3 10 10 10 13 0 16 -4 10 -10z m1766 2 c3 -4 -1 -5
-10 -4 -8 1 -18 5 -22 8 -3 4 1 5 10 4 8 -1 18 -5 22 -8z m640 0 c3 -4 -1 -5
-10 -4 -8 1 -18 5 -22 8 -3 4 1 5 10 4 8 -1 18 -5 22 -8z m232 -43 c-3 -3 -9
2 -12 12 -6 14 -5 15 5 6 7 -7 10 -15 7 -18z m-3112 -117 c3 -4 -1 -5 -10 -4
-8 1 -18 5 -22 8 -3 4 1 5 10 4 8 -1 18 -5 22 -8z m959 3 c-9 -8 -36 -10 -30
-2 2 4 11 8 20 8 8 0 13 -3 10 -6z m-480 -160 c-9 -8 -36 -10 -30 -2 2 4 11 8
20 8 8 0 13 -3 10 -6z m711 -76 c-1 -8 -5 -17 -8 -21 -5 -4 -4 16 1 34 3 9 9
-1 7 -13z m564 1 c0 -2 -7 -7 -16 -10 -8 -3 -12 -2 -9 4 6 10 25 14 25 6z
m-1684 -166 c0 -12 -4 -16 -9 -11 -5 5 -6 14 -3 20 10 15 12 14 12 -9z m2157
5 c-3 -9 -8 -14 -10 -11 -3 3 -2 9 2 15 9 16 15 13 8 -4z m-2713 -85 c0 -5 -4
-10 -10 -10 -5 0 -10 5 -10 10 0 6 5 10 10 10 6 0 10 -4 10 -10z m-857 -43
c-3 -5 -11 0 -17 12 -7 12 -16 18 -21 14 -4 -4 -5 -2 -1 5 6 11 12 10 27 -4
10 -9 16 -21 12 -27z m333 -51 c-1 -22 -2 -22 -23 -8 -22 13 -34 30 -14 17 5
-3 12 -1 16 5 11 18 23 11 21 -14z m42 12 c-2 -5 -8 -9 -13 -9 -5 0 -11 4 -13
9 -1 5 4 9 13 9 9 0 14 -4 13 -9z m-133 -28 c3 -5 2 -10 -4 -10 -5 0 -13 5
-16 10 -3 6 -2 10 4 10 5 0 13 -4 16 -10z"/>
<path d="M1120 5240 c-9 -6 -10 -10 -3 -10 6 0 15 5 18 10 8 12 4 12 -15 0z"/>
<path d="M1172 5151 c7 -9 13 -18 15 -20 1 -2 1 5 0 16 0 11 -7 20 -14 20 -10
0 -10 -4 -1 -16z"/>
<path d="M5766 5062 c-3 -5 1 -9 9 -9 8 0 12 4 9 9 -3 4 -7 8 -9 8 -2 0 -6 -4
-9 -8z"/>
<path d="M4940 4866 c0 -2 8 -10 18 -17 15 -13 16 -12 3 4 -13 16 -21 21 -21
13z"/>
<path d="M5630 4841 c0 -6 4 -13 10 -16 6 -3 7 1 4 9 -7 18 -14 21 -14 7z"/>
<path d="M5135 4740 c3 -5 8 -10 11 -10 2 0 4 5 4 10 0 6 -5 10 -11 10 -5 0
-7 -4 -4 -10z"/>
<path d="M5236 4742 c-2 -4 -1 -14 4 -22 7 -11 9 -9 7 8 -1 24 -3 26 -11 14z"/>
<path d="M5264 4742 c4 -3 14 -7 22 -8 9 -1 13 0 10 4 -4 3 -14 7 -22 8 -9 1
-13 0 -10 -4z"/>
<path d="M5440 4740 c-9 -6 -10 -10 -3 -10 6 0 15 5 18 10 8 12 4 12 -15 0z"/>
<path d="M3193 4475 c0 -8 4 -12 9 -9 5 3 6 10 3 15 -9 13 -12 11 -12 -6z"/>
<path d="M1626 4322 c-3 -5 1 -9 9 -9 8 0 12 4 9 9 -3 4 -7 8 -9 8 -2 0 -6 -4
-9 -8z"/>
<path d="M3406 4142 c-3 -5 1 -9 9 -9 8 0 12 4 9 9 -3 4 -7 8 -9 8 -2 0 -6 -4
-9 -8z"/>
<path d="M1753 4125 c0 -8 4 -12 9 -9 5 3 6 10 3 15 -9 13 -12 11 -12 -6z"/>
<path d="M3535 3920 c-3 -5 -1 -10 4 -10 6 0 11 5 11 10 0 6 -2 10 -4 10 -3 0
-8 -4 -11 -10z"/>
<path d="M1915 3841 c-3 -5 -2 -12 3 -15 5 -3 9 1 9 9 0 17 -3 19 -12 6z"/>
<path d="M3610 3779 c0 -5 5 -7 10 -4 6 3 10 8 10 11 0 2 -4 4 -10 4 -5 0 -10
-5 -10 -11z"/>
<path d="M2039 3633 c-13 -16 -12 -17 4 -4 16 13 21 21 13 21 -2 0 -10 -8 -17
-17z"/>
<path d="M2140 3446 c0 -2 8 -10 18 -17 15 -13 16 -12 3 4 -13 16 -21 21 -21
13z"/>
<path d="M2187 3399 c7 -7 15 -10 18 -7 3 3 -2 9 -12 12 -14 6 -15 5 -6 -5z"/>
<path d="M3895 3300 c-3 -5 -1 -10 4 -10 6 0 11 5 11 10 0 6 -2 10 -4 10 -3 0
-8 -4 -11 -10z"/>
<path d="M4070 2966 c0 -2 7 -7 16 -10 8 -3 12 -2 9 4 -6 10 -25 14 -25 6z"/>
<path d="M4116 2902 c-3 -5 1 -9 9 -9 8 0 12 4 9 9 -3 4 -7 8 -9 8 -2 0 -6 -4
-9 -8z"/>
<path d="M4193 2765 c0 -8 4 -12 9 -9 5 3 6 10 3 15 -9 13 -12 11 -12 -6z"/>
<path d="M4213 2725 c0 -8 4 -12 9 -9 5 3 6 10 3 15 -9 13 -12 11 -12 -6z"/>
<path d="M4370 2466 c0 -2 7 -7 16 -10 8 -3 12 -2 9 4 -6 10 -25 14 -25 6z"/>
<path d="M4400 2400 c-9 -6 -10 -10 -3 -10 6 0 15 5 18 10 8 12 4 12 -15 0z"/>
<path d="M4676 1918 c3 -5 10 -6 15 -3 13 9 11 12 -6 12 -8 0 -12 -4 -9 -9z"/>
<path d="M3069 1823 c-13 -16 -12 -17 4 -4 16 13 21 21 13 21 -2 0 -10 -8 -17
-17z"/>
<path d="M3855 1829 c-4 -6 -5 -12 -2 -15 2 -3 7 2 10 11 7 17 1 20 -8 4z"/>
<path d="M3190 1726 c0 -2 7 -7 16 -10 8 -3 12 -2 9 4 -6 10 -25 14 -25 6z"/>
<path d="M3747 1719 c7 -7 15 -10 18 -7 3 3 -2 9 -12 12 -14 6 -15 5 -6 -5z"/>
<path d="M4813 1705 c0 -8 4 -12 9 -9 5 3 6 10 3 15 -9 13 -12 11 -12 -6z"/>
<path d="M3634 1668 l-19 -23 23 19 c21 18 27 26 19 26 -2 0 -12 -10 -23 -22z"/>
<path d="M3680 1655 c-19 -22 -8 -25 13 -3 9 10 13 18 8 18 -5 0 -14 -7 -21
-15z"/>
<path d="M4830 1666 c0 -2 7 -7 16 -10 8 -3 12 -2 9 4 -6 10 -25 14 -25 6z"/>
<path d="M3335 1631 c-3 -5 -2 -12 3 -15 5 -3 9 1 9 9 0 17 -3 19 -12 6z"/>
<path d="M3575 1620 c3 -5 8 -10 11 -10 2 0 4 5 4 10 0 6 -5 10 -11 10 -5 0
-7 -4 -4 -10z"/>
<path d="M3610 1620 c0 -5 5 -10 11 -10 5 0 7 5 4 10 -3 6 -8 10 -11 10 -2 0
-4 -4 -4 -10z"/>
<path d="M4970 1406 c0 -2 7 -7 16 -10 8 -3 12 -2 9 4 -6 10 -25 14 -25 6z"/>
<path d="M1856 1142 c-3 -5 1 -9 9 -9 8 0 12 4 9 9 -3 4 -7 8 -9 8 -2 0 -6 -4
-9 -8z"/>
<path d="M6453 399 c-2 -23 3 -25 10 -4 4 8 3 16 -1 19 -4 3 -9 -4 -9 -15z"/>
<path d="M534 366 c3 -16 8 -31 11 -35 3 -3 4 7 1 23 -3 16 -8 31 -11 35 -3 3
-4 -7 -1 -23z"/>
<path d="M6426 343 l-17 -28 19 22 c11 12 23 19 27 15 5 -4 5 -1 1 6 -10 17
-11 16 -30 -15z"/>
<path d="M576 297 c3 -10 9 -15 12 -12 3 3 0 11 -7 18 -10 9 -11 8 -5 -6z"/>
<path d="M610 284 c0 -13 18 -39 24 -34 2 3 -2 14 -10 24 -8 11 -14 16 -14 10z"/>
<path d="M6359 263 c-12 -16 -12 -17 2 -6 9 7 20 9 24 5 5 -4 5 -1 1 6 -9 16
-11 15 -27 -5z"/>
<path d="M6405 260 c-3 -6 1 -7 9 -4 18 7 21 14 7 14 -6 0 -13 -4 -16 -10z"/>
<path d="M6355 240 c-13 -6 -15 -9 -5 -9 8 0 22 4 30 9 18 12 2 12 -25 0z"/>
<path d="M610 221 c0 -6 4 -13 10 -16 6 -3 7 1 4 9 -7 18 -14 21 -14 7z"/>
<path d="M655 221 c-3 -6 -2 -11 4 -11 6 0 9 -6 7 -12 -1 -7 -1 -10 1 -5 3 4
10 4 16 0 7 -4 5 2 -3 13 -8 10 -15 20 -16 22 -1 2 -5 -1 -9 -7z"/>
<path d="M6296 200 c-14 -17 -28 -30 -31 -30 -21 1 -25 -1 -20 -10 9 -14 51
-5 47 10 -2 7 5 21 14 31 16 18 18 18 31 1 13 -15 13 -15 3 6 -6 12 -12 22
-14 22 -3 0 -16 -14 -30 -30z"/>
<path d="M6377 215 c-4 -8 -3 -16 1 -19 4 -3 9 4 9 15 2 23 -3 25 -10 4z"/>
<path d="M6310 182 c0 -4 10 -9 22 -9 18 -2 20 0 8 7 -18 12 -30 13 -30 2z"/>
<path d="M660 166 c0 -2 8 -10 18 -17 15 -13 16 -12 3 4 -13 16 -21 21 -21 13z"/>
<path d="M757 132 c-14 -15 -15 -19 -2 -19 8 0 12 4 9 8 -2 4 2 9 8 12 7 2 10
7 7 11 -3 3 -13 -2 -22 -12z"/>
<path d="M793 142 c4 -6 3 -13 -3 -17 -13 -8 -3 -25 13 -25 8 0 8 3 -2 9 -8 5
-9 11 -3 15 6 3 18 -4 26 -16 9 -12 16 -18 16 -13 0 6 5 3 10 -5 5 -8 10 -10
10 -5 0 6 -17 23 -37 39 -20 16 -33 25 -30 18z"/>
<path d="M6206 138 c5 -7 2 -9 -8 -6 -18 8 -46 -8 -34 -19 5 -4 11 -2 14 6 3
10 9 7 19 -10 8 -13 12 -16 9 -7 -3 10 2 21 11 26 14 8 13 10 -1 15 -12 5 -15
3 -10 -5z"/>
<path d="M860 114 c8 -10 15 -20 16 -22 1 -2 4 1 7 5 3 5 -4 15 -16 23 -21 12
-21 12 -7 -6z"/>
<path d="M6135 119 c-4 -6 -14 -8 -22 -5 -8 3 -12 2 -9 -3 3 -5 -1 -11 -9 -15
-8 -3 -15 0 -15 7 0 7 -5 4 -11 -5 -5 -10 -18 -18 -27 -19 -11 0 -12 -2 -4 -6
7 -3 20 1 29 9 15 11 16 11 10 -7 -7 -20 -7 -20 8 -1 12 15 18 17 27 8 8 -8
15 -8 24 -1 9 7 19 7 32 0 14 -7 19 -7 19 2 0 14 -35 16 -54 4 -6 -4 -14 -3
-17 2 -4 5 3 12 14 16 11 3 20 11 20 16 0 12 -7 11 -15 -2z"/>
<path d="M5515 111 c-3 -5 -2 -12 3 -15 5 -3 9 1 9 9 0 17 -3 19 -12 6z"/>
<path d="M5750 110 c-9 -6 -10 -10 -3 -10 6 0 15 5 18 10 8 12 4 12 -15 0z"/>
<path d="M6228 113 c7 -3 16 -2 19 1 4 3 -2 6 -13 5 -11 0 -14 -3 -6 -6z"/>
<path d="M896 95 c-3 -10 0 -12 11 -8 9 4 21 -1 29 -12 8 -10 14 -15 14 -9 -1
13 -23 39 -37 41 -6 1 -14 -4 -17 -12z"/>
<path d="M1356 101 c-3 -5 2 -15 12 -22 15 -12 16 -12 5 2 -7 9 -10 19 -6 22
3 4 4 7 0 7 -3 0 -8 -4 -11 -9z"/>
<path d="M3226 102 c-3 -5 1 -9 9 -9 8 0 15 4 15 9 0 4 -4 8 -9 8 -6 0 -12 -4
-15 -8z"/>
<path d="M5190 96 c7 -7 13 -7 20 0 6 6 3 10 -10 10 -13 0 -16 -4 -10 -10z"/>
<path d="M5470 102 c0 -5 7 -9 15 -9 8 0 12 4 9 9 -7 10 -24 10 -24 0z"/>
<path d="M5715 101 c-3 -5 -2 -12 3 -15 5 -3 9 1 9 9 0 17 -3 19 -12 6z"/>
<path d="M5775 101 c-3 -5 0 -13 6 -17 7 -4 9 -3 5 4 -3 6 3 12 16 15 23 4 23
4 1 6 -12 0 -24 -3 -28 -8z"/>
<path d="M6016 94 c-3 -7 3 -10 15 -7 26 7 32 19 9 19 -11 0 -22 -6 -24 -12z"/>
<path d="M5013 85 c0 -8 4 -12 9 -9 5 3 6 10 3 15 -9 13 -12 11 -12 -6z"/>
<path d="M5336 87 c3 -10 9 -15 12 -12 3 3 0 11 -7 18 -10 9 -11 8 -5 -6z"/>
<path d="M5615 91 c-3 -5 -2 -12 3 -15 5 -3 9 1 9 9 0 17 -3 19 -12 6z"/>
<path d="M786 81 c-4 -5 3 -7 14 -4 23 6 26 13 6 13 -8 0 -17 -4 -20 -9z"/>
<path d="M2600 80 c-9 -6 -10 -10 -3 -10 6 0 15 5 18 10 8 12 4 12 -15 0z"/>
<path d="M2855 80 c3 -5 8 -10 11 -10 2 0 4 5 4 10 0 6 -5 10 -11 10 -5 0 -7
-4 -4 -10z"/>
<path d="M3386 82 c-3 -5 1 -9 9 -9 8 0 12 4 9 9 -3 4 -7 8 -9 8 -2 0 -6 -4
-9 -8z"/>
<path d="M3475 80 c-3 -5 -1 -10 4 -10 6 0 11 5 11 10 0 6 -2 10 -4 10 -3 0
-8 -4 -11 -10z"/>
<path d="M3706 82 c-3 -5 1 -9 9 -9 8 0 12 4 9 9 -3 4 -7 8 -9 8 -2 0 -6 -4
-9 -8z"/>
<path d="M3795 80 c-3 -5 -1 -10 4 -10 6 0 11 5 11 10 0 6 -2 10 -4 10 -3 0
-8 -4 -11 -10z"/>
<path d="M4200 80 c-9 -6 -10 -10 -3 -10 6 0 15 5 18 10 8 12 4 12 -15 0z"/>
<path d="M4455 80 c3 -5 8 -10 11 -10 2 0 4 5 4 10 0 6 -5 10 -11 10 -5 0 -7
-4 -4 -10z"/>
<path d="M5386 78 c3 -5 10 -6 15 -3 13 9 11 12 -6 12 -8 0 -12 -4 -9 -9z"/>
<path d="M5980 79 c0 -5 5 -7 10 -4 6 3 10 8 10 11 0 2 -4 4 -10 4 -5 0 -10
-5 -10 -11z"/>
<path d="M870 72 c0 -6 9 -12 20 -15 11 -3 20 -3 20 -1 0 2 -9 8 -20 14 -11 6
-20 7 -20 2z"/>
<path d="M916 67 c3 -10 9 -15 12 -12 3 3 0 11 -7 18 -10 9 -11 8 -5 -6z"/>
<path d="M1110 71 c0 -5 5 -13 10 -16 6 -3 10 -2 10 4 0 5 -4 13 -10 16 -5 3
-10 2 -10 -4z"/>
<path d="M1195 69 c-4 -6 -5 -12 -2 -15 2 -3 7 2 10 11 7 17 1 20 -8 4z"/>
<path d="M956 53 c-6 -14 -5 -15 5 -6 7 7 10 15 7 18 -3 3 -9 -2 -12 -12z"/>
<path d="M1293 55 c0 -8 4 -12 9 -9 5 3 6 10 3 15 -9 13 -12 11 -12 -6z"/>
<path d="M5995 61 c-3 -5 0 -13 6 -17 8 -5 9 -3 4 6 -6 10 -4 12 9 7 10 -4 15
-3 11 3 -8 13 -22 13 -30 1z"/>
<path d="M6095 61 c-3 -5 -2 -12 3 -15 5 -3 9 1 9 9 0 17 -3 19 -12 6z"/>
<path d="M6148 63 c7 -3 16 -2 19 1 4 3 -2 6 -13 5 -11 0 -14 -3 -6 -6z"/>
<path d="M1040 40 c-9 -6 -10 -10 -3 -10 6 0 15 5 18 10 8 12 4 12 -15 0z"/>
<path d="M2796 33 c-6 -14 -5 -15 5 -6 7 7 10 15 7 18 -3 3 -9 -2 -12 -12z"/>
<path d="M4396 33 c-6 -14 -5 -15 5 -6 7 7 10 15 7 18 -3 3 -9 -2 -12 -12z"/>
<path d="M6070 40 c0 -5 5 -10 11 -10 5 0 7 5 4 10 -3 6 -8 10 -11 10 -2 0 -4
-4 -4 -10z"/>
</g>
</svg>
