<?xml version="1.0" standalone="no"?>
<!DOCTYPE svg PUBLIC "-//W3C//DTD SVG 20010904//EN"
 "http://www.w3.org/TR/2001/REC-SVG-20010904/DTD/svg10.dtd">
<svg version="1.0" xmlns="http://www.w3.org/2000/svg"
 width="700.000000pt" height="700.000000pt" viewBox="0 0 700.000000 700.000000"
 preserveAspectRatio="xMidYMid meet">
<metadata>
Created by potrace 1.14, written by Peter Selinger 2001-2017
</metadata>
<g transform="translate(0.000000,700.000000) scale(0.100000,-0.100000)"
fill="#000000" stroke="none">
<path d="M861 6874 c-133 -36 -238 -128 -297 -259 -13 -31 -24 -67 -24 -81 0
-14 -3 -23 -8 -20 -4 2 -4 -41 0 -97 3 -56 4 -106 1 -111 -4 -5 -1 -6 5 -2 11
7 14 3 16 -26 1 -7 7 -19 14 -26 7 -8 10 -18 7 -23 -4 -5 -2 -9 2 -9 5 0 14
-9 21 -21 8 -12 9 -18 3 -14 -6 3 -11 1 -11 -4 0 -6 6 -11 14 -11 8 0 17 -7
20 -16 4 -10 2 -13 -7 -9 -6 4 -1 -3 13 -14 20 -17 22 -21 8 -21 -10 0 -18 -4
-18 -10 0 -5 6 -7 13 -5 6 3 17 1 22 -3 15 -10 47 -72 39 -72 -4 0 1 -6 11
-14 18 -13 18 -13 -1 -25 -18 -11 -17 -12 4 -6 20 6 32 -8 15 -18 -5 -2 -2 -2
4 -1 7 2 17 -6 23 -16 6 -11 7 -20 3 -20 -4 0 -3 -4 2 -8 16 -11 68 -95 68
-109 0 -7 5 -13 10 -13 5 0 6 -7 3 -16 -3 -8 -2 -12 4 -9 5 3 16 -8 25 -25 8
-16 12 -30 8 -30 -4 0 0 -6 9 -12 9 -7 27 -33 41 -58 13 -25 41 -73 61 -108
20 -34 34 -67 30 -74 -4 -6 -3 -8 3 -5 5 4 16 -6 24 -21 7 -15 24 -44 37 -64
14 -21 21 -42 16 -49 -4 -7 -3 -10 3 -6 5 3 29 -29 53 -71 24 -42 42 -77 40
-77 -3 0 5 -11 18 -25 20 -22 23 -29 21 -46 0 -4 3 -10 8 -13 11 -8 76 -116
76 -128 1 -4 9 -17 19 -27 14 -15 15 -22 6 -28 -10 -6 -9 -8 3 -8 18 0 44 -43
35 -58 -3 -6 -1 -14 5 -18 8 -5 10 -2 5 7 -4 8 2 3 13 -11 11 -14 19 -31 16
-38 -3 -7 -1 -11 3 -8 5 3 18 -12 29 -32 41 -75 76 -138 89 -157 17 -24 18
-39 2 -29 -7 4 -8 3 -4 -5 4 -6 12 -9 17 -6 5 4 12 -2 16 -12 4 -10 19 -38 35
-62 30 -48 35 -67 16 -55 -7 4 -8 3 -4 -5 4 -6 11 -9 16 -6 12 8 33 -33 24
-47 -4 -6 -3 -8 4 -4 13 8 64 -82 55 -98 -3 -6 -2 -8 2 -3 11 10 87 -121 79
-135 -4 -6 -3 -8 3 -5 11 7 56 -67 46 -77 -3 -3 -1 -6 5 -6 11 0 27 -24 56
-87 9 -17 21 -35 27 -38 5 -4 8 -13 5 -21 -3 -8 1 -17 9 -20 8 -4 12 -10 9
-15 -3 -5 -1 -9 5 -9 5 0 16 -12 24 -27 8 -16 42 -75 76 -133 33 -58 59 -111
56 -118 -3 -7 -1 -11 4 -7 14 8 142 -221 135 -242 -5 -15 -4 -15 5 -3 8 12 11
11 17 -5 4 -11 16 -32 26 -47 11 -16 17 -28 13 -28 -3 0 3 -10 15 -22 11 -12
20 -25 20 -29 0 -4 18 -36 40 -73 22 -36 41 -71 42 -78 2 -7 6 -15 9 -18 4 -3
23 -32 42 -65 26 -44 32 -63 25 -73 -8 -9 -7 -11 5 -7 11 5 27 -15 61 -77 26
-46 58 -101 71 -123 14 -22 30 -51 37 -65 7 -14 29 -53 50 -87 20 -33 34 -64
31 -67 -4 -3 -1 -6 4 -6 16 0 95 -149 87 -162 -4 -6 -2 -8 4 -4 10 6 56 -63
50 -74 -2 -3 7 -16 20 -30 12 -13 22 -29 22 -36 0 -6 7 -17 15 -24 9 -8 13
-21 10 -34 -5 -15 -4 -17 3 -8 7 11 10 10 16 -3 3 -9 3 -22 -1 -28 -3 -7 -2
-9 2 -4 10 8 46 -43 39 -55 -3 -4 -1 -8 4 -8 15 0 74 -109 66 -122 -4 -6 -3
-8 3 -5 13 8 56 -37 46 -47 -5 -4 -3 -6 2 -4 12 3 75 -42 75 -54 0 -5 -5 -6
-12 -2 -7 5 -8 3 -3 -5 4 -8 11 -9 17 -3 5 5 27 0 56 -15 25 -13 63 -26 84
-30 21 -3 38 -11 38 -17 0 -6 5 -4 10 4 5 8 10 10 10 4 0 -6 10 -10 23 -10 12
1 21 -4 20 -11 -3 -13 22 -12 34 2 4 4 3 5 -4 1 -6 -3 -15 -1 -19 5 -4 8 5 9
30 6 20 -3 34 -1 31 3 -2 4 14 10 36 13 50 7 140 50 184 88 18 16 35 25 39 21
4 -4 6 -2 4 3 -4 13 47 76 55 69 3 -3 4 1 4 8 -3 27 38 98 52 93 11 -4 11 -3
2 9 -7 8 -10 19 -8 23 17 27 22 125 11 198 -12 72 -39 125 -298 573 -141 244
-267 462 -280 485 -13 23 -90 157 -171 297 -81 140 -159 275 -173 300 -13 25
-28 50 -32 55 -6 8 -172 295 -299 518 -10 18 -51 88 -91 157 -40 69 -81 141
-92 160 -56 96 -327 566 -373 645 -74 127 -238 411 -269 468 -15 26 -23 47
-19 47 4 0 3 4 -3 8 -6 4 -23 26 -37 49 l-27 42 166 3 c91 2 168 1 170 -1 6
-6 226 -1 236 5 4 3 8 2 8 -3 0 -4 39 -7 87 -5 195 6 393 7 393 2 0 -3 14 -5
30 -5 17 0 30 4 30 8 0 5 5 5 12 1 13 -8 227 -6 240 2 4 3 8 1 8 -3 0 -5 26
-7 58 -6 118 6 262 8 262 3 0 -3 14 -5 30 -5 17 0 30 4 30 8 0 5 5 5 12 1 13
-8 227 -6 240 2 4 3 8 1 8 -3 0 -5 17 -7 38 -6 56 3 186 5 197 3 23 -4 230 2
237 6 4 3 8 2 8 -3 0 -4 77 -7 171 -5 106 2 169 0 165 -6 -3 -5 2 -16 12 -23
15 -13 16 -12 4 3 -7 9 -9 19 -5 21 5 3 56 6 113 7 58 0 140 2 183 3 42 1 77
0 77 -3 0 -3 17 -4 37 -3 55 2 195 5 218 3 l20 -1 -20 -9 c-11 -5 -15 -9 -8
-9 6 -1 -3 -25 -20 -57 -18 -30 -45 -79 -62 -108 -16 -29 -68 -119 -115 -200
-113 -195 -136 -241 -150 -309 -11 -57 -11 -218 1 -211 10 6 21 -45 13 -59 -4
-7 -3 -9 1 -5 5 5 21 -13 35 -40 15 -26 44 -63 63 -82 20 -19 33 -39 30 -45
-4 -5 -3 -7 1 -3 6 5 51 -19 91 -49 6 -5 19 -10 30 -11 10 -2 25 -11 33 -20 7
-10 11 -11 7 -4 -5 10 0 11 22 7 49 -11 55 -14 47 -27 -6 -10 -5 -10 7 -1 9 7
39 11 72 10 34 -2 57 1 57 8 0 5 4 4 9 -4 5 -7 10 -9 12 -3 2 5 19 13 36 17
28 5 32 4 27 -9 -3 -9 -1 -16 4 -16 6 0 9 9 7 20 -3 15 3 24 18 29 12 5 25 7
30 4 4 -2 7 0 7 4 0 9 54 44 61 40 2 -1 3 0 2 2 -6 10 20 30 31 24 6 -3 8 -3
4 1 -11 13 42 65 61 59 13 -4 13 -3 2 5 -12 8 -11 13 1 31 8 11 18 18 23 13 5
-4 5 -1 1 5 -9 16 12 56 24 48 6 -3 8 0 5 7 -3 7 23 60 57 118 35 58 110 187
167 287 58 100 109 179 114 176 6 -3 7 -1 3 5 -9 15 53 124 66 115 6 -3 8 -1
5 5 -10 15 3 43 16 35 6 -4 7 -1 2 7 -5 8 -1 18 10 27 11 7 15 13 11 13 -4 0
1 13 10 29 10 17 22 27 27 24 6 -3 7 -1 3 5 -11 18 75 157 86 140 6 -9 7 -6 3
10 -4 13 -2 22 5 22 6 0 9 4 6 9 -3 5 5 25 19 45 14 20 25 39 25 41 0 2 14 27
30 56 17 28 28 54 26 57 -3 3 0 12 6 20 20 23 21 217 2 272 -29 87 -58 135
-113 190 -60 60 -146 114 -168 106 -7 -3 -13 -2 -13 3 0 29 -129 30 -2665 30
-2228 0 -2587 -2 -2634 -15z m1069 -8 c0 -3 -4 -8 -10 -11 -5 -3 -10 -1 -10 4
0 6 5 11 10 11 6 0 10 -2 10 -4z m960 0 c0 -3 -4 -8 -10 -11 -5 -3 -10 -1 -10
4 0 6 5 11 10 11 6 0 10 -2 10 -4z m960 0 c0 -3 -4 -8 -10 -11 -5 -3 -10 -1
-10 4 0 6 5 11 10 11 6 0 10 -2 10 -4z m960 0 c0 -3 -4 -8 -10 -11 -5 -3 -10
-1 -10 4 0 6 5 11 10 11 6 0 10 -2 10 -4z m-3167 -21 c-3 -9 -8 -14 -10 -11
-3 3 -2 9 2 15 9 16 15 13 8 -4z m607 11 c0 -2 -8 -10 -17 -17 -16 -13 -17
-12 -4 4 13 16 21 21 21 13z m353 -11 c-3 -9 -8 -14 -10 -11 -3 3 -2 9 2 15 9
16 15 13 8 -4z m607 11 c0 -2 -8 -10 -17 -17 -16 -13 -17 -12 -4 4 13 16 21
21 21 13z m353 -11 c-3 -9 -8 -14 -10 -11 -3 3 -2 9 2 15 9 16 15 13 8 -4z
m607 11 c0 -2 -8 -10 -17 -17 -16 -13 -17 -12 -4 4 13 16 21 21 21 13z m353
-11 c-3 -9 -8 -14 -10 -11 -3 3 -2 9 2 15 9 16 15 13 8 -4z m607 11 c0 -2 -8
-10 -17 -17 -16 -13 -17 -12 -4 4 13 16 21 21 21 13z m353 -11 c-3 -9 -8 -14
-10 -11 -3 3 -2 9 2 15 9 16 15 13 8 -4z m-4158 -24 c3 -5 2 -12 -3 -15 -5 -3
-9 1 -9 9 0 17 3 19 12 6z m1080 -1 c3 -5 1 -10 -4 -10 -6 0 -11 5 -11 10 0 6
2 10 4 10 3 0 8 -4 11 -10z m1920 0 c3 -5 1 -10 -4 -10 -6 0 -11 5 -11 10 0 6
2 10 4 10 3 0 8 -4 11 -10z m-2365 -16 c0 -8 -19 -13 -24 -6 -3 5 1 9 9 9 8 0
15 -2 15 -3z m560 0 c0 -8 -19 -13 -24 -6 -3 5 1 9 9 9 8 0 15 -2 15 -3z m400
0 c0 -8 -19 -13 -24 -6 -3 5 1 9 9 9 8 0 15 -2 15 -3z m960 0 c0 -8 -19 -13
-24 -6 -3 5 1 9 9 9 8 0 15 -2 15 -3z m560 0 c0 -8 -19 -13 -24 -6 -3 5 1 9 9
9 8 0 15 -2 15 -3z m400 0 c0 -8 -19 -13 -24 -6 -3 5 1 9 9 9 8 0 15 -2 15 -3z
m890 -4 c0 -5 -2 -10 -4 -10 -3 0 -8 5 -11 10 -3 6 -1 10 4 10 6 0 11 -4 11
-10z m-4283 -15 c0 -8 -4 -12 -9 -9 -5 3 -6 10 -3 15 9 13 12 11 12 -6z m1797
-51 c3 -8 2 -12 -4 -9 -6 3 -10 10 -10 16 0 14 7 11 14 -7z m-1340 -12 c3 -5
-1 -9 -9 -9 -8 0 -12 4 -9 9 3 4 7 8 9 8 2 0 6 -4 9 -8z m960 0 c3 -5 -1 -9
-9 -9 -8 0 -12 4 -9 9 3 4 7 8 9 8 2 0 6 -4 9 -8z m960 0 c3 -5 -1 -9 -9 -9
-8 0 -12 4 -9 9 3 4 7 8 9 8 2 0 6 -4 9 -8z m960 0 c3 -5 -1 -9 -9 -9 -8 0
-12 4 -9 9 3 4 7 8 9 8 2 0 6 -4 9 -8z m-2714 -38 c0 -8 -19 -13 -24 -6 -3 5
1 9 9 9 8 0 15 -2 15 -3z m1386 -6 c3 -4 -1 -5 -10 -4 -8 1 -18 5 -22 8 -3 4
1 5 10 4 8 -1 18 -5 22 -8z m534 6 c0 -8 -19 -13 -24 -6 -3 5 1 9 9 9 8 0 15
-2 15 -3z m1200 -2 c0 -5 -7 -9 -15 -9 -8 0 -12 4 -9 9 3 4 9 8 15 8 5 0 9 -4
9 -8z m-3626 -28 c3 -8 2 -12 -4 -9 -6 3 -10 10 -10 16 0 14 7 11 14 -7z m366
6 c0 -5 -2 -10 -4 -10 -3 0 -8 5 -11 10 -3 6 -1 10 4 10 6 0 11 -4 11 -10z
m237 -5 c0 -8 -4 -12 -9 -9 -5 3 -6 10 -3 15 9 13 12 11 12 -6z m1683 5 c0 -5
-2 -10 -4 -10 -3 0 -8 5 -11 10 -3 6 -1 10 4 10 6 0 11 -4 11 -10z m237 -5 c0
-8 -4 -12 -9 -9 -5 3 -6 10 -3 15 9 13 12 11 12 -6z m1234 -8 c-10 -9 -11 -8
-5 6 3 10 9 15 12 12 3 -3 0 -11 -7 -18z m126 -22 c0 -8 -4 -12 -9 -9 -5 3 -6
10 -3 15 9 13 12 11 12 -6z m-2743 -23 c3 -5 -1 -9 -9 -9 -8 0 -12 4 -9 9 3 4
7 8 9 8 2 0 6 -4 9 -8z m691 -2 c3 -6 -1 -7 -9 -4 -18 7 -21 14 -7 14 6 0 13
-4 16 -10z m1229 2 c3 -5 -1 -9 -9 -9 -8 0 -12 4 -9 9 3 4 7 8 9 8 2 0 6 -4 9
-8z m-1457 -27 c0 -8 -4 -12 -9 -9 -5 3 -6 10 -3 15 9 13 12 11 12 -6z m394
-8 c-10 -9 -11 -8 -5 6 3 10 9 15 12 12 3 -3 0 -11 -7 -18z m1526 8 c0 -8 -4
-12 -9 -9 -5 3 -6 10 -3 15 9 13 12 11 12 -6z m-3556 -52 c13 -16 12 -17 -3
-4 -17 13 -22 21 -14 21 2 0 10 -8 17 -17z m3835 -3 c0 -12 -4 -16 -9 -11 -5
5 -6 14 -3 20 10 15 12 14 12 -9z m-3456 6 c0 -2 -7 -7 -16 -10 -8 -3 -12 -2
-9 4 6 10 25 14 25 6z m-303 -21 c0 -8 -4 -12 -9 -9 -5 3 -6 10 -3 15 9 13 12
11 12 -6z m77 -11 c3 -8 2 -12 -4 -9 -6 3 -10 10 -10 16 0 14 7 11 14 -7z
m1440 0 c3 -8 2 -12 -4 -9 -6 3 -10 10 -10 16 0 14 7 11 14 -7z m600 0 c3 -8
2 -12 -4 -9 -6 3 -10 10 -10 16 0 14 7 11 14 -7z m1320 0 c3 -8 2 -12 -4 -9
-6 3 -10 10 -10 16 0 14 7 11 14 -7z m431 -14 c-3 -5 -12 -10 -18 -10 -7 0 -6
4 3 10 19 12 23 12 15 0z m-3868 -45 c0 -8 -4 -12 -9 -9 -5 3 -6 10 -3 15 9
13 12 11 12 -6z m508 5 c3 -6 -1 -7 -9 -4 -18 7 -21 14 -7 14 6 0 13 -4 16
-10z m325 4 c0 -8 -19 -13 -24 -6 -3 5 1 9 9 9 8 0 15 -2 15 -3z m474 -2 c3
-5 -1 -9 -9 -9 -8 0 -12 4 -9 9 3 4 7 8 9 8 2 0 6 -4 9 -8z m1121 -2 c3 -6 -1
-7 -9 -4 -18 7 -21 14 -7 14 6 0 13 -4 16 -10z m325 4 c0 -8 -19 -13 -24 -6
-3 5 1 9 9 9 8 0 15 -2 15 -3z m474 -2 c3 -5 -1 -9 -9 -9 -8 0 -12 4 -9 9 3 4
7 8 9 8 2 0 6 -4 9 -8z m-2800 -40 c3 -5 -1 -9 -9 -9 -8 0 -12 4 -9 9 3 4 7 8
9 8 2 0 6 -4 9 -8z m1920 0 c3 -5 -1 -9 -9 -9 -8 0 -12 4 -9 9 3 4 7 8 9 8 2
0 6 -4 9 -8z m-2029 -11 c3 -5 2 -12 -3 -15 -5 -3 -9 1 -9 9 0 17 3 19 12 6z
m1438 -6 c-3 -9 -8 -14 -10 -11 -3 3 -2 9 2 15 9 16 15 13 8 -4z m1965 -10
c-3 -3 -9 2 -12 12 -6 14 -5 15 5 6 7 -7 10 -15 7 -18z m-373 -14 c-9 -8 -36
-10 -30 -2 2 4 11 8 20 8 8 0 13 -3 10 -6z m-348 -56 c0 -8 -4 -12 -9 -9 -5 3
-6 10 -3 15 9 13 12 11 12 -6z m241 -10 c-3 -3 -9 2 -12 12 -6 14 -5 15 5 6 7
-7 10 -15 7 -18z m-3087 -22 c13 -16 12 -17 -3 -4 -17 13 -22 21 -14 21 2 0
10 -8 17 -17z m863 -31 c3 -5 -1 -9 -9 -9 -8 0 -12 4 -9 9 3 4 7 8 9 8 2 0 6
-4 9 -8z m721 -10 c-3 -3 -11 0 -18 7 -9 10 -8 11 6 5 10 -3 15 -9 12 -12z
m-898 -7 c0 -8 -4 -12 -9 -9 -5 3 -6 10 -3 15 9 13 12 11 12 -6z m1920 0 c0
-8 -4 -12 -9 -9 -5 3 -6 10 -3 15 9 13 12 11 12 -6z m-1637 -5 c0 -5 -2 -10
-4 -10 -3 0 -8 5 -11 10 -3 6 -1 10 4 10 6 0 11 -4 11 -10z m-1020 -20 c0 -5
-2 -10 -4 -10 -3 0 -8 5 -11 10 -3 6 -1 10 4 10 6 0 11 -4 11 -10z m1415 1 c3
-5 2 -12 -3 -15 -5 -3 -9 1 -9 9 0 17 3 19 12 6z m640 0 c3 -5 2 -12 -3 -15
-5 -3 -9 1 -9 9 0 17 3 19 12 6z m860 -1 c3 -5 1 -10 -4 -10 -6 0 -11 5 -11
10 0 6 2 10 4 10 3 0 8 -4 11 -10z m-1778 -25 c0 -8 -4 -12 -9 -9 -5 3 -6 10
-3 15 9 13 12 11 12 -6z m2234 -8 c-10 -9 -11 -8 -5 6 3 10 9 15 12 12 3 -3 0
-11 -7 -18z m153 -5 c3 -5 -1 -9 -9 -9 -8 0 -12 4 -9 9 3 4 7 8 9 8 2 0 6 -4
9 -8z m-3351 -17 c-3 -9 -8 -14 -10 -11 -3 3 -2 9 2 15 9 16 15 13 8 -4z m537
-21 c0 -8 -19 -13 -24 -6 -3 5 1 9 9 9 8 0 15 -2 15 -3z m1920 0 c0 -8 -19
-13 -24 -6 -3 5 1 9 9 9 8 0 15 -2 15 -3z m-2350 -38 c0 -2 -7 -7 -16 -10 -8
-3 -12 -2 -9 4 6 10 25 14 25 6z m320 -2 c0 -8 -19 -13 -24 -6 -3 5 1 9 9 9 8
0 15 -2 15 -3z m240 2 c0 -2 -7 -7 -16 -10 -8 -3 -12 -2 -9 4 6 10 25 14 25 6z
m880 0 c0 -2 -7 -7 -16 -10 -8 -3 -12 -2 -9 4 6 10 25 14 25 6z m480 0 c0 -2
-7 -7 -16 -10 -8 -3 -12 -2 -9 4 6 10 25 14 25 6z m320 -2 c0 -8 -19 -13 -24
-6 -3 5 1 9 9 9 8 0 15 -2 15 -3z m240 2 c0 -2 -7 -7 -16 -10 -8 -3 -12 -2 -9
4 6 10 25 14 25 6z m204 -4 c3 -5 -1 -9 -9 -9 -8 0 -12 4 -9 9 3 4 7 8 9 8 2
0 6 -4 9 -8z"/>
<path d="M6435 6219 c-3 -4 2 -6 10 -5 21 3 28 13 10 13 -9 0 -18 -4 -20 -8z"/>
<path d="M556 6205 c4 -8 11 -15 16 -15 6 0 5 6 -2 15 -7 8 -14 15 -16 15 -2
0 -1 -7 2 -15z"/>
<path d="M6428 6183 c7 -3 16 -2 19 1 4 3 -2 6 -13 5 -11 0 -14 -3 -6 -6z"/>
<path d="M590 6151 c0 -7 -5 -9 -12 -5 -7 5 -8 3 -3 -5 5 -9 10 -10 18 -2 6 6
8 14 4 18 -4 3 -7 1 -7 -6z"/>
<path d="M6380 6120 c-18 -12 -2 -12 25 0 13 6 15 9 5 9 -8 0 -22 -4 -30 -9z"/>
<path d="M6361 6084 c0 -11 3 -14 6 -6 3 7 2 16 -1 19 -3 4 -6 -2 -5 -13z"/>
<path d="M632 6067 c-8 -10 -6 -13 7 -13 11 0 17 6 14 13 -3 7 -6 13 -8 13 -1
0 -7 -6 -13 -13z"/>
<path d="M6395 6069 c-4 -6 -5 -12 -2 -15 2 -3 7 2 10 11 7 17 1 20 -8 4z"/>
<path d="M6355 6049 c-4 -6 -5 -12 -2 -15 2 -3 7 2 10 11 7 17 1 20 -8 4z"/>
<path d="M650 6006 c0 -2 7 -7 16 -10 8 -3 12 -2 9 4 -6 10 -25 14 -25 6z"/>
<path d="M1810 5977 c0 -2 6 -10 14 -16 11 -9 16 -9 22 1 4 7 4 10 -1 6 -4 -4
-14 -3 -22 3 -7 6 -13 9 -13 6z"/>
<path d="M2074 5966 c1 -8 5 -18 8 -22 4 -3 5 1 4 10 -1 8 -5 18 -8 22 -4 3
-5 -1 -4 -10z"/>
<path d="M2654 5955 c0 -13 3 -22 7 -19 8 4 6 30 -2 38 -3 3 -5 -5 -5 -19z"/>
<path d="M3294 5955 c0 -13 3 -22 7 -19 8 4 6 30 -2 38 -3 3 -5 -5 -5 -19z"/>
<path d="M3994 5966 c1 -8 5 -18 8 -22 4 -3 5 1 4 10 -1 8 -5 18 -8 22 -4 3
-5 -1 -4 -10z"/>
<path d="M4473 5965 c0 -8 4 -12 9 -9 5 3 6 10 3 15 -9 13 -12 11 -12 -6z"/>
<path d="M5173 5965 c0 -8 4 -12 9 -9 5 3 6 10 3 15 -9 13 -12 11 -12 -6z"/>
<path d="M2347 5959 c7 -7 15 -10 18 -7 3 3 -2 9 -12 12 -14 6 -15 5 -6 -5z"/>
<path d="M2616 5958 c3 -5 10 -6 15 -3 13 9 11 12 -6 12 -8 0 -12 -4 -9 -9z"/>
<path d="M2827 5959 c7 -7 15 -10 18 -7 3 3 -2 9 -12 12 -14 6 -15 5 -6 -5z"/>
<path d="M2875 5961 c-3 -5 -2 -12 3 -15 5 -3 9 1 9 9 0 17 -3 19 -12 6z"/>
<path d="M3147 5959 c7 -7 15 -10 18 -7 3 3 -2 9 -12 12 -14 6 -15 5 -6 -5z"/>
<path d="M3216 5958 c3 -4 11 -5 19 -1 21 7 19 12 -4 10 -11 0 -18 -5 -15 -9z"/>
<path d="M3467 5959 c7 -7 15 -10 18 -7 3 3 -2 9 -12 12 -14 6 -15 5 -6 -5z"/>
<path d="M3515 5961 c-3 -5 -2 -12 3 -15 5 -3 9 1 9 9 0 17 -3 19 -12 6z"/>
<path d="M3787 5959 c7 -7 15 -10 18 -7 3 3 -2 9 -12 12 -14 6 -15 5 -6 -5z"/>
<path d="M4267 5959 c7 -7 15 -10 18 -7 3 3 -2 9 -12 12 -14 6 -15 5 -6 -5z"/>
<path d="M4775 5951 c-3 -5 -2 -12 3 -15 5 -3 9 1 9 9 0 17 -3 19 -12 6z"/>
<path d="M1895 5940 c3 -5 8 -10 11 -10 2 0 4 5 4 10 0 6 -5 10 -11 10 -5 0
-7 -4 -4 -10z"/>
<path d="M1930 5939 c0 -5 5 -7 10 -4 6 3 10 8 10 11 0 2 -4 4 -10 4 -5 0 -10
-5 -10 -11z"/>
<path d="M2175 5940 c3 -5 8 -10 11 -10 2 0 4 5 4 10 0 6 -5 10 -11 10 -5 0
-7 -4 -4 -10z"/>
<path d="M2210 5939 c0 -5 5 -7 10 -4 6 3 10 8 10 11 0 2 -4 4 -10 4 -5 0 -10
-5 -10 -11z"/>
<path d="M2410 5939 c0 -5 5 -7 10 -4 6 3 10 8 10 11 0 2 -4 4 -10 4 -5 0 -10
-5 -10 -11z"/>
<path d="M2690 5939 c0 -5 5 -7 10 -4 6 3 10 8 10 11 0 2 -4 4 -10 4 -5 0 -10
-5 -10 -11z"/>
<path d="M2975 5940 c3 -5 8 -10 11 -10 2 0 4 5 4 10 0 6 -5 10 -11 10 -5 0
-7 -4 -4 -10z"/>
<path d="M3010 5939 c0 -5 5 -7 10 -4 6 3 10 8 10 11 0 2 -4 4 -10 4 -5 0 -10
-5 -10 -11z"/>
<path d="M3330 5939 c0 -5 5 -7 10 -4 6 3 10 8 10 11 0 2 -4 4 -10 4 -5 0 -10
-5 -10 -11z"/>
<path d="M3615 5940 c3 -5 8 -10 11 -10 2 0 4 5 4 10 0 6 -5 10 -11 10 -5 0
-7 -4 -4 -10z"/>
<path d="M3650 5939 c0 -5 5 -7 10 -4 6 3 10 8 10 11 0 2 -4 4 -10 4 -5 0 -10
-5 -10 -11z"/>
<path d="M3850 5939 c0 -5 5 -7 10 -4 6 3 10 8 10 11 0 2 -4 4 -10 4 -5 0 -10
-5 -10 -11z"/>
<path d="M4095 5940 c3 -5 8 -10 11 -10 2 0 4 5 4 10 0 6 -5 10 -11 10 -5 0
-7 -4 -4 -10z"/>
<path d="M4130 5939 c0 -5 5 -7 10 -4 6 3 10 8 10 11 0 2 -4 4 -10 4 -5 0 -10
-5 -10 -11z"/>
<path d="M4330 5939 c0 -5 5 -7 10 -4 6 3 10 8 10 11 0 2 -4 4 -10 4 -5 0 -10
-5 -10 -11z"/>
<path d="M4890 5939 c0 -5 5 -7 10 -4 6 3 10 8 10 11 0 2 -4 4 -10 4 -5 0 -10
-5 -10 -11z"/>
<path d="M5055 5940 c3 -5 8 -10 11 -10 2 0 4 5 4 10 0 6 -5 10 -11 10 -5 0
-7 -4 -4 -10z"/>
<path d="M5090 5939 c0 -5 5 -7 10 -4 6 3 10 8 10 11 0 2 -4 4 -10 4 -5 0 -10
-5 -10 -11z"/>
<path d="M5135 5940 c3 -5 8 -10 11 -10 2 0 4 5 4 10 0 6 -5 10 -11 10 -5 0
-7 -4 -4 -10z"/>
<path d="M1970 5920 c0 -5 5 -10 11 -10 5 0 7 5 4 10 -3 6 -8 10 -11 10 -2 0
-4 -4 -4 -10z"/>
<path d="M3890 5920 c0 -5 5 -10 11 -10 5 0 7 5 4 10 -3 6 -8 10 -11 10 -2 0
-4 -4 -4 -10z"/>
<path d="M4506 5922 c-3 -5 1 -9 9 -9 8 0 12 4 9 9 -3 4 -7 8 -9 8 -2 0 -6 -4
-9 -8z"/>
<path d="M4930 5920 c0 -5 5 -10 11 -10 5 0 7 5 4 10 -3 6 -8 10 -11 10 -2 0
-4 -4 -4 -10z"/>
<path d="M3415 5336 c-159 -39 -290 -167 -330 -324 -17 -63 -18 -245 -2 -235
6 4 9 -12 6 -33 0 -4 3 -10 8 -13 16 -12 43 -73 36 -83 -3 -6 -2 -8 4 -5 9 5
38 -41 33 -52 -1 -2 2 -7 7 -10 5 -3 25 -33 45 -66 27 -44 34 -63 26 -73 -8
-9 -7 -11 3 -7 18 7 94 -119 83 -136 -5 -8 -3 -9 6 -4 10 6 12 4 7 -9 -4 -9
-3 -15 2 -12 12 8 53 -63 45 -77 -4 -7 -4 -9 1 -5 10 10 46 -47 41 -64 -1 -7
-1 -9 2 -5 2 5 11 -1 19 -12 8 -12 12 -25 9 -30 -3 -5 1 -12 10 -15 9 -4 14
-13 10 -22 -3 -8 -2 -12 4 -9 12 8 33 -32 24 -48 -4 -6 -3 -9 1 -4 5 4 17 -5
27 -20 20 -32 23 -47 6 -37 -7 4 -8 3 -4 -5 4 -6 11 -9 16 -6 12 8 43 -53 34
-67 -4 -6 -3 -8 4 -5 13 9 86 -119 76 -135 -4 -7 -3 -8 5 -4 6 4 14 0 18 -11
4 -10 15 -30 26 -45 11 -15 16 -31 12 -39 -5 -7 -4 -10 2 -6 12 8 44 -53 36
-67 -3 -5 -2 -6 4 -3 13 8 46 -50 37 -65 -4 -6 -3 -8 3 -5 5 3 17 -7 27 -24 9
-16 14 -29 11 -29 -3 0 3 -10 14 -22 11 -11 18 -25 15 -30 -3 -4 -1 -8 4 -8
13 0 54 -79 47 -90 -4 -6 -1 -9 5 -8 18 4 72 -104 57 -115 -8 -6 -6 -7 5 -3
25 8 44 -29 27 -52 -11 -14 -11 -15 1 -5 11 10 20 1 52 -52 22 -36 36 -70 32
-77 -4 -6 -3 -8 3 -5 10 7 96 -135 96 -159 0 -7 3 -11 7 -9 8 5 85 -136 84
-152 -1 -7 2 -11 6 -8 11 7 41 -55 33 -68 -3 -5 -1 -7 4 -4 6 4 21 -9 32 -29
18 -30 19 -39 9 -53 -11 -14 -11 -14 3 -3 14 10 18 10 23 -4 3 -9 3 -21 -1
-26 -3 -6 -2 -8 4 -5 8 5 92 -128 112 -176 2 -5 18 -32 37 -60 25 -39 31 -54
22 -64 -8 -10 -8 -12 3 -8 9 3 26 -17 49 -56 41 -71 46 -84 32 -75 -6 3 -13 2
-17 -3 -3 -6 3 -8 15 -6 14 3 24 -5 35 -26 9 -16 12 -29 8 -29 -5 0 0 -5 10
-11 9 -5 17 -15 17 -20 0 -6 9 -24 21 -40 18 -25 19 -32 8 -47 -11 -14 -11
-15 1 -5 11 11 19 5 41 -34 15 -26 25 -51 23 -55 -3 -4 -1 -8 4 -8 15 0 103
-160 96 -173 -4 -7 -4 -9 1 -5 8 7 55 -52 55 -69 0 -4 9 -19 20 -33 22 -29 26
-44 8 -35 -7 4 -5 0 5 -8 15 -13 87 -122 87 -133 0 -2 16 -29 35 -61 22 -37
33 -65 29 -78 -4 -14 -3 -16 4 -7 7 10 14 5 31 -23 11 -20 21 -38 21 -40 0 -3
-780 -5 -1732 -5 -955 0 -1727 4 -1720 9 8 4 13 11 11 15 -1 4 20 46 46 92 42
74 49 83 64 72 14 -11 14 -11 3 3 -16 21 -5 49 16 42 14 -4 14 -3 3 5 -12 8
-11 13 1 31 8 11 18 18 23 13 5 -4 5 -2 2 4 -4 7 14 49 40 94 34 60 48 78 55
68 7 -9 8 -8 4 6 -4 11 5 39 24 70 107 188 70 415 -92 561 -184 165 -471 148
-634 -38 -22 -25 -86 -126 -144 -227 -58 -100 -112 -194 -120 -208 -9 -15 -35
-61 -58 -102 -24 -41 -52 -91 -64 -110 -11 -19 -81 -141 -156 -270 -131 -227
-210 -360 -222 -370 -3 -3 -14 -30 -25 -60 -22 -62 -31 -255 -13 -277 6 -7 8
-20 4 -28 -3 -8 -1 -15 4 -15 5 0 12 -11 16 -25 3 -14 10 -25 15 -25 5 0 9 -5
9 -10 0 -7 -6 -7 -19 0 -15 8 -19 7 -17 -5 1 -8 8 -21 16 -28 12 -10 12 -9 1
6 -14 17 -5 23 16 9 14 -9 12 -43 -2 -55 -6 -5 -4 -7 5 -4 8 2 13 12 12 22 -3
16 -1 17 12 6 9 -8 16 -20 16 -27 0 -8 3 -13 8 -11 4 1 9 -2 11 -8 2 -5 17
-18 33 -28 16 -9 26 -22 22 -28 -3 -6 0 -9 7 -8 21 3 50 -12 43 -22 -3 -5 -10
-7 -15 -4 -21 13 -46 13 -46 -1 0 -8 4 -14 9 -14 4 0 8 5 8 11 0 8 4 8 15 -1
8 -6 19 -9 25 -5 5 3 10 2 10 -4 0 -5 -6 -12 -12 -14 -10 -4 -10 -6 0 -6 8 -1
16 8 19 18 5 19 6 19 41 3 21 -9 39 -18 41 -19 2 -2 -1 -14 -7 -28 -7 -16 -8
-26 -1 -30 5 -4 8 -3 7 2 -1 4 2 19 6 31 6 19 13 22 29 17 12 -3 37 -7 55 -7
17 -1 32 -6 32 -11 0 -5 -8 -6 -17 -3 -17 6 -17 5 0 -8 11 -8 15 -21 11 -32
-5 -18 -5 -18 6 -1 6 9 8 22 5 27 -3 6 -1 10 5 10 6 0 8 5 5 10 -3 6 -1 10 5
10 6 0 8 -11 6 -25 -3 -14 0 -25 5 -25 5 0 9 6 8 13 -3 27 2 35 26 35 32 0 41
-14 23 -35 -11 -14 -11 -16 1 -8 11 6 13 4 8 -9 -4 -11 -3 -15 4 -11 6 4 8 13
5 20 -2 7 2 16 10 19 24 9 25 8 14 -16 -10 -21 -10 -21 3 -6 8 10 17 15 20 11
4 -3 7 -2 7 4 0 6 -7 13 -15 17 -19 7 -19 23 0 23 8 0 17 -9 21 -19 3 -10 10
-15 16 -12 7 5 9 1 5 -9 -3 -9 -3 -18 1 -21 4 -3 9 4 9 15 1 11 -5 23 -13 26
-17 6 -19 24 -2 20 7 -1 19 -8 26 -14 7 -7 20 -13 27 -13 9 0 12 -6 9 -17 -5
-15 -4 -15 4 -3 12 17 7 30 -13 30 -8 0 -16 4 -19 9 -10 15 38 7 51 -9 6 -8
15 -12 19 -7 4 4 2 7 -4 7 -7 0 -12 4 -12 10 0 5 11 9 25 8 14 -1 25 -6 25
-10 0 -4 5 -8 11 -8 5 0 8 4 4 9 -3 6 18 10 50 10 35 0 55 -5 55 -12 0 -9 2
-9 8 0 4 6 31 11 60 11 49 1 52 -1 40 -16 -12 -16 -11 -16 7 -1 23 20 136 23
147 5 6 -8 8 -7 8 2 0 6 11 12 25 12 14 0 25 -6 25 -12 0 -10 2 -10 8 -1 10
15 161 14 181 -1 11 -8 13 -8 7 2 -5 8 1 12 21 12 22 0 25 -2 13 -10 -9 -6
-10 -10 -3 -10 6 0 15 4 18 10 8 13 88 10 97 -4 5 -8 8 -7 8 2 0 6 12 12 26
12 14 0 23 -4 20 -8 -3 -5 1 -9 9 -9 8 0 12 4 9 8 -3 5 16 8 41 7 40 0 44 -2
33 -17 -10 -12 -8 -12 8 2 17 14 39 17 133 16 103 -1 111 -2 99 -17 -11 -15
-11 -15 3 -5 9 7 20 9 24 5 5 -4 5 -1 1 6 -11 19 35 15 50 -5 12 -16 13 -16 8
-1 -5 14 2 17 51 17 46 0 54 -3 45 -14 -8 -10 -8 -15 2 -21 7 -4 10 -4 6 1 -4
4 -3 14 3 22 13 15 33 18 24 3 -3 -5 -1 -10 4 -10 6 0 11 5 11 10 0 6 47 10
123 10 82 0 117 -3 107 -10 -9 -6 -10 -10 -3 -10 6 0 15 4 18 10 8 13 88 10
97 -4 5 -8 8 -7 8 2 0 6 12 12 26 12 14 0 23 -4 20 -8 -3 -5 1 -9 9 -9 8 0 12
4 9 8 -3 5 16 8 41 7 40 0 44 -2 33 -17 -12 -15 -11 -15 7 -1 26 21 75 25 86
8 7 -10 9 -10 9 0 0 6 11 12 25 12 14 0 25 -6 25 -12 0 -10 2 -10 8 -2 9 16
244 15 254 0 5 -8 8 -7 8 2 0 6 11 12 25 12 14 0 25 -6 25 -12 0 -9 2 -10 8
-2 5 8 73 12 210 12 190 1 203 0 190 -16 -11 -15 -11 -15 3 -5 9 7 20 9 24 5
5 -4 5 -1 1 6 -11 19 35 15 50 -5 13 -17 14 -17 8 0 -5 13 0 17 21 17 25 0 26
-2 14 -17 -13 -17 -13 -17 7 -1 26 23 53 23 70 1 13 -16 14 -16 8 -1 -5 16 12
17 221 17 213 0 226 -1 213 -17 -11 -15 -11 -16 3 -5 9 7 20 9 24 5 5 -4 5 -1
1 6 -11 19 35 15 50 -5 13 -17 14 -17 8 0 -5 13 -1 17 18 17 13 0 30 -6 37
-12 9 -9 12 -9 7 -1 -4 8 9 12 49 12 40 0 53 -4 48 -12 -4 -8 -2 -8 9 1 12 9
66 12 207 12 179 -1 191 -3 179 -18 -11 -15 -11 -15 3 -5 9 7 20 9 24 5 5 -4
5 -1 1 6 -11 19 35 15 50 -5 13 -17 14 -17 8 0 -5 13 -1 17 20 17 14 0 26 -6
26 -12 0 -10 2 -10 8 0 10 15 70 13 91 -2 11 -8 13 -8 8 1 -5 8 19 11 93 11
55 -1 100 -4 100 -8 0 -13 29 -20 36 -8 4 6 3 8 -4 4 -6 -3 -13 -3 -16 2 -2 4
6 8 20 8 27 0 30 -6 12 -24 -7 -7 -9 -12 -4 -12 10 0 36 27 31 32 -3 3 2 5 10
5 10 0 13 -6 10 -17 -3 -10 2 -23 12 -31 16 -13 17 -12 4 4 -8 9 -11 21 -7 24
4 4 11 1 16 -7 6 -8 10 -10 10 -5 0 6 -5 16 -10 21 -7 7 -6 11 5 11 8 0 15 -3
16 -6 5 -40 3 -53 -10 -61 -9 -5 -11 -9 -6 -10 22 0 36 17 28 36 -6 17 -5 18
11 5 9 -8 14 -21 11 -30 -4 -13 -3 -13 8 1 11 14 16 15 27 5 10 -9 10 -7 0 7
-14 18 -13 19 3 13 11 -4 16 -3 12 3 -3 6 -1 10 6 10 7 0 9 3 6 6 -4 4 -18 -1
-32 -10 -14 -9 -25 -12 -25 -7 0 17 24 26 75 28 61 2 98 9 148 29 30 11 38 12
35 2 -3 -7 -13 -13 -23 -13 -10 0 -20 -6 -22 -12 -3 -7 0 -13 7 -13 6 0 8 5 5
10 -3 6 -1 10 4 10 6 0 11 -4 11 -10 0 -5 5 -10 11 -10 5 0 7 5 4 10 -3 6 0
13 9 16 9 3 12 12 9 22 -5 12 1 10 20 -6 25 -24 25 -24 36 -4 8 16 7 21 -5 26
-13 5 -14 9 -4 21 7 9 15 13 17 11 3 -3 21 12 42 32 20 20 43 35 50 33 13 -2
13 -1 1 15 -14 15 -13 16 10 10 17 -5 21 -4 11 2 -10 7 -11 14 -2 31 7 12 17
18 23 15 6 -4 9 -3 5 2 -3 5 5 39 17 76 19 56 25 65 37 55 12 -10 12 -10 1 3
-7 8 -12 44 -12 90 0 107 -27 192 -86 275 -12 17 -135 228 -274 470 -139 242
-283 492 -320 555 -54 92 -231 399 -320 555 -10 17 -41 71 -70 120 -29 50 -63
108 -75 130 -13 22 -130 225 -260 450 -131 226 -247 426 -257 445 -47 81 -75
131 -135 235 -35 61 -68 117 -73 125 -15 26 -174 302 -195 339 -11 20 -46 79
-76 131 -31 52 -67 113 -79 135 -56 100 -297 517 -337 582 -112 183 -302 267
-498 219z m2855 -5183 c0 -13 -3 -13 -15 -3 -8 7 -15 16 -15 21 0 5 7 6 15 3
8 -4 15 -13 15 -21z m-5180 -39 c0 -8 -4 -12 -10 -9 -5 3 -10 10 -10 16 0 5 5
9 10 9 6 0 10 -7 10 -16z m4850 4 c0 7 5 10 11 6 7 -4 7 -10 1 -16 -12 -12
-32 -2 -32 15 0 7 4 6 10 -3 7 -11 10 -11 10 -2z"/>
<path d="M1110 5240 c0 -5 5 -10 11 -10 5 0 7 5 4 10 -3 6 -8 10 -11 10 -2 0
-4 -4 -4 -10z"/>
<path d="M5770 5060 c0 -5 5 -10 11 -10 5 0 7 5 4 10 -3 6 -8 10 -11 10 -2 0
-4 -4 -4 -10z"/>
<path d="M5755 4960 c-3 -5 -1 -10 4 -10 6 0 11 5 11 10 0 6 -2 10 -4 10 -3 0
-8 -4 -11 -10z"/>
<path d="M5015 4820 c-3 -5 -1 -10 4 -10 6 0 11 5 11 10 0 6 -2 10 -4 10 -3 0
-8 -4 -11 -10z"/>
<path d="M5456 4718 c3 -5 10 -6 15 -3 13 9 11 12 -6 12 -8 0 -12 -4 -9 -9z"/>
<path d="M5316 4698 c3 -4 11 -5 19 -1 21 7 19 12 -4 10 -11 0 -18 -5 -15 -9z"/>
<path d="M5376 4698 c3 -4 11 -5 19 -1 21 7 19 12 -4 10 -11 0 -18 -5 -15 -9z"/>
<path d="M3166 4538 c3 -5 10 -6 15 -3 13 9 11 12 -6 12 -8 0 -12 -4 -9 -9z"/>
<path d="M3196 4438 c3 -5 10 -6 15 -3 13 9 11 12 -6 12 -8 0 -12 -4 -9 -9z"/>
<path d="M3296 4342 c-3 -5 1 -9 9 -9 8 0 12 4 9 9 -3 4 -7 8 -9 8 -2 0 -6 -4
-9 -8z"/>
<path d="M1733 4185 c0 -8 4 -12 9 -9 5 3 6 10 3 15 -9 13 -12 11 -12 -6z"/>
<path d="M3549 3883 c-13 -16 -12 -17 4 -4 16 13 21 21 13 21 -2 0 -10 -8 -17
-17z"/>
<path d="M3560 3840 c-9 -6 -10 -10 -3 -10 6 0 15 5 18 10 8 12 4 12 -15 0z"/>
<path d="M3610 3779 c0 -5 5 -7 10 -4 6 3 10 8 10 11 0 2 -4 4 -10 4 -5 0 -10
-5 -10 -11z"/>
<path d="M3730 3586 c0 -2 7 -7 16 -10 8 -3 12 -2 9 4 -6 10 -25 14 -25 6z"/>
<path d="M2147 3439 c7 -7 15 -10 18 -7 3 3 -2 9 -12 12 -14 6 -15 5 -6 -5z"/>
<path d="M4214 2736 c1 -8 5 -18 8 -22 4 -3 5 1 4 10 -1 8 -5 18 -8 22 -4 3
-5 -1 -4 -10z"/>
<path d="M2771 2367 c-13 -21 -12 -21 5 -5 10 10 16 20 13 22 -3 3 -11 -5 -18
-17z"/>
<path d="M4426 2362 c-3 -5 1 -9 9 -9 8 0 12 4 9 9 -3 4 -7 8 -9 8 -2 0 -6 -4
-9 -8z"/>
<path d="M2855 2240 c-3 -5 -1 -10 4 -10 6 0 11 5 11 10 0 6 -2 10 -4 10 -3 0
-8 -4 -11 -10z"/>
<path d="M2867 2199 c7 -7 15 -10 18 -7 3 3 -2 9 -12 12 -14 6 -15 5 -6 -5z"/>
<path d="M4530 2159 c0 -5 5 -7 10 -4 6 3 10 8 10 11 0 2 -4 4 -10 4 -5 0 -10
-5 -10 -11z"/>
<path d="M3093 1805 c0 -8 4 -12 9 -9 5 3 6 10 3 15 -9 13 -12 11 -12 -6z"/>
<path d="M3836 1793 c-6 -14 -5 -15 5 -6 7 7 10 15 7 18 -3 3 -9 -2 -12 -12z"/>
<path d="M3156 1762 c-3 -5 1 -9 9 -9 8 0 12 4 9 9 -3 4 -7 8 -9 8 -2 0 -6 -4
-9 -8z"/>
<path d="M3751 1727 c-8 -10 -7 -14 2 -14 8 0 14 6 14 14 0 7 -1 13 -2 13 -2
0 -8 -6 -14 -13z"/>
<path d="M3790 1726 c0 -2 7 -7 16 -10 8 -3 12 -2 9 4 -6 10 -25 14 -25 6z"/>
<path d="M3706 1682 c-3 -5 1 -9 9 -9 8 0 12 4 9 9 -3 4 -7 8 -9 8 -2 0 -6 -4
-9 -8z"/>
<path d="M4836 1667 c3 -10 9 -15 12 -12 3 3 0 11 -7 18 -10 9 -11 8 -5 -6z"/>
<path d="M3256 1662 c-3 -5 1 -9 9 -9 8 0 12 4 9 9 -3 4 -7 8 -9 8 -2 0 -6 -4
-9 -8z"/>
<path d="M3336 1633 c-6 -14 -5 -15 5 -6 7 7 10 15 7 18 -3 3 -9 -2 -12 -12z"/>
<path d="M3570 1619 c0 -5 5 -7 10 -4 6 3 10 8 10 11 0 2 -4 4 -10 4 -5 0 -10
-5 -10 -11z"/>
<path d="M2016 1422 c-3 -5 1 -9 9 -9 8 0 12 4 9 9 -3 4 -7 8 -9 8 -2 0 -6 -4
-9 -8z"/>
<path d="M5070 1220 c0 -5 5 -10 11 -10 5 0 7 5 4 10 -3 6 -8 10 -11 10 -2 0
-4 -4 -4 -10z"/>
<path d="M1856 1142 c-3 -5 1 -9 9 -9 8 0 12 4 9 9 -3 4 -7 8 -9 8 -2 0 -6 -4
-9 -8z"/>
<path d="M510 419 c0 -5 5 -7 10 -4 6 3 10 8 10 11 0 2 -4 4 -10 4 -5 0 -10
-5 -10 -11z"/>
<path d="M6455 400 c3 -5 8 -10 11 -10 2 0 4 5 4 10 0 6 -5 10 -11 10 -5 0 -7
-4 -4 -10z"/>
<path d="M6410 320 c0 -5 5 -10 10 -10 6 0 10 5 10 10 0 6 -4 10 -10 10 -5 0
-10 -4 -10 -10z"/>
<path d="M610 239 c0 -5 4 -8 9 -4 5 3 12 1 16 -5 3 -5 11 -10 18 -10 6 0 2 7
-9 15 -23 17 -34 19 -34 4z"/>
<path d="M6348 233 c7 -3 16 -2 19 1 4 3 -2 6 -13 5 -11 0 -14 -3 -6 -6z"/>
<path d="M6376 215 c-9 -26 -7 -32 5 -12 6 10 9 21 6 23 -2 3 -7 -2 -11 -11z"/>
<path d="M670 205 c0 -8 4 -15 8 -15 5 0 9 7 9 15 0 8 -4 15 -9 15 -4 0 -8 -7
-8 -15z"/>
<path d="M6317 203 c3 -7 9 -13 15 -13 5 0 6 -5 2 -12 -4 -7 -3 -8 5 -4 9 6 9
11 1 21 -8 10 -7 14 2 18 7 3 3 4 -8 4 -14 -1 -20 -6 -17 -14z"/>
<path d="M6280 196 c0 -2 7 -9 15 -16 9 -7 15 -8 15 -2 0 5 -7 12 -15 16 -8 3
-15 4 -15 2z"/>
<path d="M650 180 c0 -5 5 -10 11 -10 5 0 7 5 4 10 -3 6 -8 10 -11 10 -2 0 -4
-4 -4 -10z"/>
<path d="M776 134 c-8 -21 -8 -24 5 -24 5 0 7 5 3 12 -5 8 -2 9 10 5 10 -4 19
-7 22 -7 2 0 1 -7 -2 -15 -9 -23 4 -18 17 8 6 12 8 19 4 14 -5 -4 -18 0 -31 8
-20 13 -23 12 -28 -1z"/>
<path d="M6228 123 c7 -3 16 -2 19 1 4 3 -2 6 -13 5 -11 0 -14 -3 -6 -6z"/>
<path d="M874 108 c-4 -6 -3 -8 3 -5 6 4 17 0 24 -9 11 -13 9 -14 -14 -9 -15
4 -27 3 -27 -2 0 -11 40 -11 58 0 11 8 16 2 13 -15 0 -5 4 -8 9 -8 14 0 12 11
-5 34 -9 11 -15 14 -15 7 0 -9 -5 -8 -16 3 -18 19 -21 19 -30 4z"/>
<path d="M1635 111 c-3 -5 -2 -12 3 -15 5 -3 9 1 9 9 0 17 -3 19 -12 6z"/>
<path d="M3235 111 c-3 -5 -2 -12 3 -15 5 -3 9 1 9 9 0 17 -3 19 -12 6z"/>
<path d="M3555 111 c-3 -5 -2 -12 3 -15 5 -3 9 1 9 9 0 17 -3 19 -12 6z"/>
<path d="M6080 110 c-10 -7 -12 -12 -4 -17 6 -5 14 -15 17 -23 3 -8 4 0 4 17
-1 18 -2 33 -2 33 0 0 -7 -5 -15 -10z"/>
<path d="M6119 118 c-5 -9 -5 -48 -1 -43 8 7 13 45 7 45 -3 0 -6 -1 -6 -2z"/>
<path d="M1024 100 c2 -16 20 -14 24 2 3 10 2 10 -6 -1 -7 -9 -11 -10 -15 -2
-4 7 -5 8 -3 1z"/>
<path d="M1990 99 c0 -5 5 -7 10 -4 6 3 10 8 10 11 0 2 -4 4 -10 4 -5 0 -10
-5 -10 -11z"/>
<path d="M2026 102 c-3 -5 1 -9 9 -9 8 0 15 4 15 9 0 4 -4 8 -9 8 -6 0 -12 -4
-15 -8z"/>
<path d="M2306 98 c3 -5 10 -6 15 -3 13 9 11 12 -6 12 -8 0 -12 -4 -9 -9z"/>
<path d="M2710 100 c0 -5 5 -10 11 -10 5 0 7 5 4 10 -3 6 -8 10 -11 10 -2 0
-4 -4 -4 -10z"/>
<path d="M2867 99 c7 -7 15 -10 18 -7 3 3 -2 9 -12 12 -14 6 -15 5 -6 -5z"/>
<path d="M2950 99 c0 -5 5 -7 10 -4 6 3 10 8 10 11 0 2 -4 4 -10 4 -5 0 -10
-5 -10 -11z"/>
<path d="M2986 102 c-3 -5 1 -9 9 -9 8 0 15 4 15 9 0 4 -4 8 -9 8 -6 0 -12 -4
-15 -8z"/>
<path d="M3906 98 c3 -5 10 -6 15 -3 13 9 11 12 -6 12 -8 0 -12 -4 -9 -9z"/>
<path d="M4396 98 c3 -5 10 -6 15 -3 13 9 11 12 -6 12 -8 0 -12 -4 -9 -9z"/>
<path d="M4546 98 c3 -5 10 -6 15 -3 13 9 11 12 -6 12 -8 0 -12 -4 -9 -9z"/>
<path d="M5026 98 c3 -5 10 -6 15 -3 13 9 11 12 -6 12 -8 0 -12 -4 -9 -9z"/>
<path d="M5186 98 c3 -5 10 -6 15 -3 13 9 11 12 -6 12 -8 0 -12 -4 -9 -9z"/>
<path d="M5670 96 c7 -7 13 -7 20 0 6 6 3 10 -10 10 -13 0 -16 -4 -10 -10z"/>
<path d="M5713 93 c0 -9 4 -10 14 -2 7 6 13 12 13 14 0 1 -6 2 -13 2 -8 0 -14
-6 -14 -14z"/>
<path d="M6015 92 c-7 -19 -6 -22 6 -22 5 0 7 5 4 10 -3 6 1 10 9 10 8 0 20
-8 25 -17 6 -10 11 -13 11 -6 0 6 -5 15 -10 18 -6 4 -8 10 -6 14 3 3 -4 7 -14
7 -11 0 -22 -6 -25 -14z"/>
<path d="M6215 99 c-4 -6 -5 -12 -2 -15 2 -3 7 2 10 11 7 17 1 20 -8 4z"/>
<path d="M5836 83 c-4 -9 -4 -14 0 -10 4 4 14 1 23 -6 14 -11 15 -10 1 8 -8
11 -15 21 -16 23 -1 2 -5 -5 -8 -15z"/>
<path d="M6148 93 c6 -3 10 -9 7 -13 -3 -5 0 -12 7 -16 7 -4 10 -4 6 1 -4 4
-1 13 7 19 13 9 10 11 -12 12 -16 1 -22 -1 -15 -3z"/>
<path d="M1310 79 c0 -5 5 -7 10 -4 6 3 10 8 10 11 0 2 -4 4 -10 4 -5 0 -10
-5 -10 -11z"/>
<path d="M1350 76 c7 -7 13 -7 20 0 6 6 3 10 -10 10 -13 0 -16 -4 -10 -10z"/>
<path d="M1396 78 c3 -5 10 -6 15 -3 13 9 11 12 -6 12 -8 0 -12 -4 -9 -9z"/>
<path d="M1830 78 c0 -4 4 -8 9 -8 6 0 12 4 15 8 3 5 -1 9 -9 9 -8 0 -15 -4
-15 -9z"/>
<path d="M1876 78 c3 -5 10 -6 15 -3 13 9 11 12 -6 12 -8 0 -12 -4 -9 -9z"/>
<path d="M2255 80 c3 -5 8 -10 11 -10 2 0 4 5 4 10 0 6 -5 10 -11 10 -5 0 -7
-4 -4 -10z"/>
<path d="M2770 79 c0 -5 5 -7 10 -4 6 3 10 8 10 11 0 2 -4 4 -10 4 -5 0 -10
-5 -10 -11z"/>
<path d="M2815 80 c3 -5 8 -10 11 -10 2 0 4 5 4 10 0 6 -5 10 -11 10 -5 0 -7
-4 -4 -10z"/>
<path d="M3430 78 c0 -4 4 -8 9 -8 6 0 12 4 15 8 3 5 -1 9 -9 9 -8 0 -15 -4
-15 -9z"/>
<path d="M3476 78 c3 -5 10 -6 15 -3 13 9 11 12 -6 12 -8 0 -12 -4 -9 -9z"/>
<path d="M3750 78 c0 -4 4 -8 9 -8 6 0 12 4 15 8 3 5 -1 9 -9 9 -8 0 -15 -4
-15 -9z"/>
<path d="M3796 78 c3 -5 10 -6 15 -3 13 9 11 12 -6 12 -8 0 -12 -4 -9 -9z"/>
<path d="M3855 80 c3 -5 8 -10 11 -10 2 0 4 5 4 10 0 6 -5 10 -11 10 -5 0 -7
-4 -4 -10z"/>
<path d="M4340 86 c0 -2 8 -10 18 -17 15 -13 16 -12 3 4 -13 16 -21 21 -21 13z"/>
<path d="M4495 80 c3 -5 8 -10 11 -10 2 0 4 5 4 10 0 6 -5 10 -11 10 -5 0 -7
-4 -4 -10z"/>
<path d="M4976 78 c3 -5 10 -6 15 -3 13 9 11 12 -6 12 -8 0 -12 -4 -9 -9z"/>
<path d="M5135 80 c3 -5 8 -10 11 -10 2 0 4 5 4 10 0 6 -5 10 -11 10 -5 0 -7
-4 -4 -10z"/>
<path d="M816 67 c3 -10 9 -15 12 -12 3 3 0 11 -7 18 -10 9 -11 8 -5 -6z"/>
<path d="M1020 66 c0 -2 7 -7 16 -10 8 -3 12 -2 9 4 -6 10 -25 14 -25 6z"/>
<path d="M6035 59 c-4 -6 -5 -12 -2 -15 2 -3 7 2 10 11 7 17 1 20 -8 4z"/>
<path d="M6120 60 c-9 -6 -10 -10 -3 -10 6 0 15 5 18 10 8 12 4 12 -15 0z"/>
<path d="M910 57 c0 -2 6 -10 14 -16 11 -9 16 -9 22 1 4 7 4 10 -1 6 -4 -4
-14 -3 -22 3 -7 6 -13 9 -13 6z"/>
<path d="M1113 45 c0 -8 4 -12 9 -9 5 3 6 10 3 15 -9 13 -12 11 -12 -6z"/>
<path d="M1196 42 c-3 -5 1 -9 9 -9 8 0 12 4 9 9 -3 4 -7 8 -9 8 -2 0 -6 -4
-9 -8z"/>
<path d="M5955 41 c-3 -5 -2 -12 3 -15 5 -3 9 1 9 9 0 17 -3 19 -12 6z"/>
</g>
</svg>
