<svg width="1767" height="431" viewBox="0 0 1767 431" fill="none" xmlns="http://www.w3.org/2000/svg">
<mask id="path-1-outside-1_2_2" maskUnits="userSpaceOnUse" x="495" y="116" width="1260" height="268" fill="black">
<rect fill="white" x="495" y="116" width="1260" height="268"/>
<path d="M585.91 382.664C551.789 382.664 528.245 375.934 515.279 362.474C502.426 349.014 496 327.198 496 297.025H530.975C530.975 322.711 535.638 339.48 544.965 347.331C554.291 355.071 567.883 358.941 585.74 358.941C603.483 358.941 617.075 355.688 626.515 349.182C636.069 342.677 640.846 333.872 640.846 322.767C640.846 309.195 635.046 299.717 623.444 294.333C611.843 288.949 595.521 283.734 574.48 278.686C546.386 271.844 526.311 264.217 514.255 255.805C502.199 247.392 496.171 233.764 496.171 214.92C496.171 197.647 502.824 182.897 516.132 170.671C529.439 158.333 552.585 152.164 585.569 152.164C619.236 152.164 642.552 159.062 655.519 172.858C668.599 186.542 675.138 207.742 675.138 236.456H640.164C640.164 211.443 635.33 195.123 625.662 187.496C616.108 179.756 602.63 175.887 585.228 175.887C567.485 175.887 553.836 179.196 544.282 185.813C534.728 192.319 529.951 200.787 529.951 211.219C529.951 224.342 535.752 233.708 547.353 239.316C559.068 244.925 575.276 250.196 595.976 255.132C624.752 262.086 645.168 269.545 657.225 277.509C669.281 285.36 675.309 298.876 675.309 318.056C675.309 336.227 668.769 351.538 655.689 363.988C642.609 376.438 619.35 382.664 585.91 382.664Z"/>
<path d="M790.427 382.832C759.376 382.832 736.913 374.139 723.037 356.753C709.161 339.256 702.223 314.243 702.223 281.715C702.223 247.392 709.161 221.875 723.037 205.162C736.913 188.449 759.376 180.093 790.427 180.093C818.862 180.093 839.05 187.272 850.993 201.629C863.049 215.874 869.646 231.745 870.783 249.243L839.903 259.338C839.448 242.625 834.956 229.221 826.425 219.126C818.009 209.032 806.009 203.984 790.427 203.984C774.504 203.984 761.651 209.649 751.869 220.977C742.202 232.306 737.368 252.552 737.368 281.715C737.368 308.971 742.259 328.712 752.04 340.938C761.822 353.052 774.617 359.109 790.427 359.109C805.895 359.109 817.895 353.669 826.425 342.789C834.956 331.797 839.448 318.898 839.903 304.092L870.783 314.523C869.646 330.114 863.049 345.425 850.993 360.455C838.936 375.373 818.748 382.832 790.427 382.832Z"/>
<path d="M971.354 383C964.075 383 956.966 382.495 950.028 381.486C943.204 380.588 936.834 378.906 930.92 376.438C925.006 373.971 919.774 370.494 915.224 366.007C910.788 361.408 907.319 355.576 904.817 348.509C902.315 341.443 901.064 332.862 901.064 322.767C901.064 313.009 902.315 304.709 904.817 297.867C907.319 291.024 910.731 285.416 915.053 281.042C919.489 276.555 924.608 273.078 930.408 270.61C936.323 268.143 942.635 266.46 949.346 265.563C956.056 264.553 962.994 264.049 970.16 264.049H1036.19V252.776C1036.19 240.774 1034.08 231.184 1029.87 224.006C1025.78 216.715 1019.98 211.443 1012.47 208.19C1005.08 204.938 996.49 203.311 986.709 203.311C977.723 203.311 969.762 204.825 962.824 207.854C955.886 210.882 950.199 215.762 945.763 222.491C941.327 229.221 938.37 238.082 936.891 249.075L903.111 240.157C904.703 229.277 907.774 220.024 912.324 212.397C916.873 204.769 922.788 198.6 930.067 193.889C937.346 189.066 945.706 185.533 955.146 183.29C964.7 181.046 975.164 179.925 986.538 179.925C1004.05 179.925 1019.07 182.336 1031.58 187.159C1044.2 191.983 1053.87 199.834 1060.58 210.714C1067.41 221.482 1070.82 236.007 1070.82 254.29V381.149H1041.82L1038.91 355.912C1037.78 358.716 1035.45 361.689 1031.92 364.829C1028.51 367.97 1023.96 370.942 1018.27 373.746C1012.7 376.551 1005.99 378.794 998.14 380.476C990.292 382.159 981.363 383 971.354 383ZM978.861 361.128C986.481 361.128 993.533 360.399 1000.02 358.941C1006.5 357.482 1012.24 355.52 1017.25 353.052C1022.25 350.472 1026.35 347.612 1029.53 344.471C1032.83 341.218 1035.05 337.853 1036.19 334.376L1036.87 283.565H978.008C972.435 283.565 967.146 284.07 962.141 285.08C957.137 286.089 952.644 287.94 948.663 290.632C944.796 293.324 941.725 297.194 939.45 302.241C937.289 307.288 936.209 313.85 936.209 321.926C936.209 330.002 937.346 336.62 939.621 341.779C941.896 346.827 945.024 350.752 949.004 353.557C953.099 356.361 957.705 358.324 962.824 359.445C967.942 360.567 973.288 361.128 978.861 361.128Z"/>
<path d="M1112.21 381.149V117H1146.67V381.149H1112.21Z"/>
<path d="M1269.66 382.832C1238.27 382.832 1215.63 373.859 1201.76 355.912C1188 337.966 1181.11 313.009 1181.11 281.042C1181.11 247.392 1188.17 222.155 1202.27 205.33C1216.37 188.393 1238.67 179.925 1269.15 179.925C1300.43 179.925 1322.78 188.393 1336.2 205.33C1349.73 222.155 1356.5 247.224 1356.5 280.537C1356.5 284.463 1356.27 288.108 1355.82 291.473H1210.8V270.274H1324.08L1322.21 273.975C1322.21 247.953 1317.54 229.558 1308.22 218.79C1298.89 207.91 1285.87 202.47 1269.15 202.47C1252.88 202.47 1239.69 208.134 1229.57 219.463C1219.56 230.792 1214.55 251.318 1214.55 281.042C1214.55 309.195 1219.39 329.497 1229.05 341.948C1238.84 354.286 1252.37 360.455 1269.66 360.455V382.832ZM1269.66 360.455C1279.55 360.455 1288.14 358.828 1295.42 355.576C1302.81 352.211 1308.5 346.602 1312.48 338.751C1316.58 330.899 1319.59 322.094 1321.52 312.336L1352.58 320.58C1350.64 334.264 1346.15 345.873 1339.1 355.407C1332.05 364.941 1322.95 371.896 1311.8 376.27C1300.77 380.645 1286.72 382.832 1269.66 382.832V360.455Z"/>
<path d="M1456.19 383C1448.91 383 1441.8 382.495 1434.86 381.486C1428.04 380.588 1421.67 378.906 1415.75 376.438C1409.84 373.971 1404.61 370.494 1400.06 366.007C1395.62 361.408 1392.15 355.576 1389.65 348.509C1387.15 341.443 1385.9 332.862 1385.9 322.767C1385.9 313.009 1387.15 304.709 1389.65 297.867C1392.15 291.024 1395.56 285.416 1399.89 281.042C1404.32 276.555 1409.44 273.078 1415.24 270.61C1421.16 268.143 1427.47 266.46 1434.18 265.563C1440.89 264.553 1447.83 264.049 1454.99 264.049H1521.02V252.776C1521.02 240.774 1518.91 231.184 1514.71 224.006C1510.61 216.715 1504.81 211.443 1497.3 208.19C1489.91 204.938 1481.32 203.311 1471.54 203.311C1462.56 203.311 1454.6 204.825 1447.66 207.854C1440.72 210.882 1435.03 215.762 1430.6 222.491C1426.16 229.221 1423.2 238.082 1421.72 249.075L1387.94 240.157C1389.54 229.277 1392.61 220.024 1397.16 212.397C1401.71 204.769 1407.62 198.6 1414.9 193.889C1422.18 189.066 1430.54 185.533 1439.98 183.29C1449.53 181.046 1460 179.925 1471.37 179.925C1488.89 179.925 1503.9 182.336 1516.41 187.159C1529.04 191.983 1538.71 199.834 1545.42 210.714C1552.24 221.482 1555.65 236.007 1555.65 254.29V381.149H1526.65L1523.75 355.912C1522.61 358.716 1520.28 361.689 1516.75 364.829C1513.34 367.97 1508.79 370.942 1503.1 373.746C1497.53 376.551 1490.82 378.794 1482.97 380.476C1475.13 382.159 1466.2 383 1456.19 383ZM1463.69 361.128C1471.31 361.128 1478.37 360.399 1484.85 358.941C1491.33 357.482 1497.08 355.52 1502.08 353.052C1507.09 350.472 1511.18 347.612 1514.36 344.471C1517.66 341.218 1519.88 337.853 1521.02 334.376L1521.7 283.565H1462.84C1457.27 283.565 1451.98 284.07 1446.97 285.08C1441.97 286.089 1437.48 287.94 1433.5 290.632C1429.63 293.324 1426.56 297.194 1424.28 302.241C1422.12 307.288 1421.04 313.85 1421.04 321.926C1421.04 330.002 1422.18 336.62 1424.45 341.779C1426.73 346.827 1429.86 350.752 1433.84 353.557C1437.93 356.361 1442.54 358.324 1447.66 359.445C1452.78 360.567 1458.12 361.128 1463.69 361.128Z"/>
<path d="M1592.78 381.149V181.775H1619.73L1627.24 220.472V381.149H1592.78ZM1719.54 381.149V267.414C1719.54 244.195 1716.01 227.763 1708.96 218.117C1702.02 208.471 1691.44 203.648 1677.23 203.648C1662.9 203.648 1650.78 208.863 1640.89 219.295C1631.11 229.614 1626.21 242.625 1626.21 258.328L1609.5 247.729C1609.5 231.465 1616.94 216.098 1631.84 201.629C1646.86 187.047 1666.14 179.756 1689.68 179.756C1713.11 179.756 1729.66 187.552 1739.33 203.143C1749.11 218.622 1754 239.933 1754 267.077V381.149H1719.54Z"/>
</mask>
<path d="M585.91 382.664C551.789 382.664 528.245 375.934 515.279 362.474C502.426 349.014 496 327.198 496 297.025H530.975C530.975 322.711 535.638 339.48 544.965 347.331C554.291 355.071 567.883 358.941 585.74 358.941C603.483 358.941 617.075 355.688 626.515 349.182C636.069 342.677 640.846 333.872 640.846 322.767C640.846 309.195 635.046 299.717 623.444 294.333C611.843 288.949 595.521 283.734 574.48 278.686C546.386 271.844 526.311 264.217 514.255 255.805C502.199 247.392 496.171 233.764 496.171 214.92C496.171 197.647 502.824 182.897 516.132 170.671C529.439 158.333 552.585 152.164 585.569 152.164C619.236 152.164 642.552 159.062 655.519 172.858C668.599 186.542 675.138 207.742 675.138 236.456H640.164C640.164 211.443 635.33 195.123 625.662 187.496C616.108 179.756 602.63 175.887 585.228 175.887C567.485 175.887 553.836 179.196 544.282 185.813C534.728 192.319 529.951 200.787 529.951 211.219C529.951 224.342 535.752 233.708 547.353 239.316C559.068 244.925 575.276 250.196 595.976 255.132C624.752 262.086 645.168 269.545 657.225 277.509C669.281 285.36 675.309 298.876 675.309 318.056C675.309 336.227 668.769 351.538 655.689 363.988C642.609 376.438 619.35 382.664 585.91 382.664Z" fill="#4B8EF1"/>
<path d="M790.427 382.832C759.376 382.832 736.913 374.139 723.037 356.753C709.161 339.256 702.223 314.243 702.223 281.715C702.223 247.392 709.161 221.875 723.037 205.162C736.913 188.449 759.376 180.093 790.427 180.093C818.862 180.093 839.05 187.272 850.993 201.629C863.049 215.874 869.646 231.745 870.783 249.243L839.903 259.338C839.448 242.625 834.956 229.221 826.425 219.126C818.009 209.032 806.009 203.984 790.427 203.984C774.504 203.984 761.651 209.649 751.869 220.977C742.202 232.306 737.368 252.552 737.368 281.715C737.368 308.971 742.259 328.712 752.04 340.938C761.822 353.052 774.617 359.109 790.427 359.109C805.895 359.109 817.895 353.669 826.425 342.789C834.956 331.797 839.448 318.898 839.903 304.092L870.783 314.523C869.646 330.114 863.049 345.425 850.993 360.455C838.936 375.373 818.748 382.832 790.427 382.832Z" fill="#4B8EF1"/>
<path d="M971.354 383C964.075 383 956.966 382.495 950.028 381.486C943.204 380.588 936.834 378.906 930.92 376.438C925.006 373.971 919.774 370.494 915.224 366.007C910.788 361.408 907.319 355.576 904.817 348.509C902.315 341.443 901.064 332.862 901.064 322.767C901.064 313.009 902.315 304.709 904.817 297.867C907.319 291.024 910.731 285.416 915.053 281.042C919.489 276.555 924.608 273.078 930.408 270.61C936.323 268.143 942.635 266.46 949.346 265.563C956.056 264.553 962.994 264.049 970.16 264.049H1036.19V252.776C1036.19 240.774 1034.08 231.184 1029.87 224.006C1025.78 216.715 1019.98 211.443 1012.47 208.19C1005.08 204.938 996.49 203.311 986.709 203.311C977.723 203.311 969.762 204.825 962.824 207.854C955.886 210.882 950.199 215.762 945.763 222.491C941.327 229.221 938.37 238.082 936.891 249.075L903.111 240.157C904.703 229.277 907.774 220.024 912.324 212.397C916.873 204.769 922.788 198.6 930.067 193.889C937.346 189.066 945.706 185.533 955.146 183.29C964.7 181.046 975.164 179.925 986.538 179.925C1004.05 179.925 1019.07 182.336 1031.58 187.159C1044.2 191.983 1053.87 199.834 1060.58 210.714C1067.41 221.482 1070.82 236.007 1070.82 254.29V381.149H1041.82L1038.91 355.912C1037.78 358.716 1035.45 361.689 1031.92 364.829C1028.51 367.97 1023.96 370.942 1018.27 373.746C1012.7 376.551 1005.99 378.794 998.14 380.476C990.292 382.159 981.363 383 971.354 383ZM978.861 361.128C986.481 361.128 993.533 360.399 1000.02 358.941C1006.5 357.482 1012.24 355.52 1017.25 353.052C1022.25 350.472 1026.35 347.612 1029.53 344.471C1032.83 341.218 1035.05 337.853 1036.19 334.376L1036.87 283.565H978.008C972.435 283.565 967.146 284.07 962.141 285.08C957.137 286.089 952.644 287.94 948.663 290.632C944.796 293.324 941.725 297.194 939.45 302.241C937.289 307.288 936.209 313.85 936.209 321.926C936.209 330.002 937.346 336.62 939.621 341.779C941.896 346.827 945.024 350.752 949.004 353.557C953.099 356.361 957.705 358.324 962.824 359.445C967.942 360.567 973.288 361.128 978.861 361.128Z" fill="#4B8EF1"/>
<path d="M1112.21 381.149V117H1146.67V381.149H1112.21Z" fill="#4B8EF1"/>
<path d="M1269.66 382.832C1238.27 382.832 1215.63 373.859 1201.76 355.912C1188 337.966 1181.11 313.009 1181.11 281.042C1181.11 247.392 1188.17 222.155 1202.27 205.33C1216.37 188.393 1238.67 179.925 1269.15 179.925C1300.43 179.925 1322.78 188.393 1336.2 205.33C1349.73 222.155 1356.5 247.224 1356.5 280.537C1356.5 284.463 1356.27 288.108 1355.82 291.473H1210.8V270.274H1324.08L1322.21 273.975C1322.21 247.953 1317.54 229.558 1308.22 218.79C1298.89 207.91 1285.87 202.47 1269.15 202.47C1252.88 202.47 1239.69 208.134 1229.57 219.463C1219.56 230.792 1214.55 251.318 1214.55 281.042C1214.55 309.195 1219.39 329.497 1229.05 341.948C1238.84 354.286 1252.37 360.455 1269.66 360.455V382.832ZM1269.66 360.455C1279.55 360.455 1288.14 358.828 1295.42 355.576C1302.81 352.211 1308.5 346.602 1312.48 338.751C1316.58 330.899 1319.59 322.094 1321.52 312.336L1352.58 320.58C1350.64 334.264 1346.15 345.873 1339.1 355.407C1332.05 364.941 1322.95 371.896 1311.8 376.27C1300.77 380.645 1286.72 382.832 1269.66 382.832V360.455Z" fill="#4B8EF1"/>
<path d="M1456.19 383C1448.91 383 1441.8 382.495 1434.86 381.486C1428.04 380.588 1421.67 378.906 1415.75 376.438C1409.84 373.971 1404.61 370.494 1400.06 366.007C1395.62 361.408 1392.15 355.576 1389.65 348.509C1387.15 341.443 1385.9 332.862 1385.9 322.767C1385.9 313.009 1387.15 304.709 1389.65 297.867C1392.15 291.024 1395.56 285.416 1399.89 281.042C1404.32 276.555 1409.44 273.078 1415.24 270.61C1421.16 268.143 1427.47 266.46 1434.18 265.563C1440.89 264.553 1447.83 264.049 1454.99 264.049H1521.02V252.776C1521.02 240.774 1518.91 231.184 1514.71 224.006C1510.61 216.715 1504.81 211.443 1497.3 208.19C1489.91 204.938 1481.32 203.311 1471.54 203.311C1462.56 203.311 1454.6 204.825 1447.66 207.854C1440.72 210.882 1435.03 215.762 1430.6 222.491C1426.16 229.221 1423.2 238.082 1421.72 249.075L1387.94 240.157C1389.54 229.277 1392.61 220.024 1397.16 212.397C1401.71 204.769 1407.62 198.6 1414.9 193.889C1422.18 189.066 1430.54 185.533 1439.98 183.29C1449.53 181.046 1460 179.925 1471.37 179.925C1488.89 179.925 1503.9 182.336 1516.41 187.159C1529.04 191.983 1538.71 199.834 1545.42 210.714C1552.24 221.482 1555.65 236.007 1555.65 254.29V381.149H1526.65L1523.75 355.912C1522.61 358.716 1520.28 361.689 1516.75 364.829C1513.34 367.97 1508.79 370.942 1503.1 373.746C1497.53 376.551 1490.82 378.794 1482.97 380.476C1475.13 382.159 1466.2 383 1456.19 383ZM1463.69 361.128C1471.31 361.128 1478.37 360.399 1484.85 358.941C1491.33 357.482 1497.08 355.52 1502.08 353.052C1507.09 350.472 1511.18 347.612 1514.36 344.471C1517.66 341.218 1519.88 337.853 1521.02 334.376L1521.7 283.565H1462.84C1457.27 283.565 1451.98 284.07 1446.97 285.08C1441.97 286.089 1437.48 287.94 1433.5 290.632C1429.63 293.324 1426.56 297.194 1424.28 302.241C1422.12 307.288 1421.04 313.85 1421.04 321.926C1421.04 330.002 1422.18 336.62 1424.45 341.779C1426.73 346.827 1429.86 350.752 1433.84 353.557C1437.93 356.361 1442.54 358.324 1447.66 359.445C1452.78 360.567 1458.12 361.128 1463.69 361.128Z" fill="#4B8EF1"/>
<path d="M1592.78 381.149V181.775H1619.73L1627.24 220.472V381.149H1592.78ZM1719.54 381.149V267.414C1719.54 244.195 1716.01 227.763 1708.96 218.117C1702.02 208.471 1691.44 203.648 1677.23 203.648C1662.9 203.648 1650.78 208.863 1640.89 219.295C1631.11 229.614 1626.21 242.625 1626.21 258.328L1609.5 247.729C1609.5 231.465 1616.94 216.098 1631.84 201.629C1646.86 187.047 1666.14 179.756 1689.68 179.756C1713.11 179.756 1729.66 187.552 1739.33 203.143C1749.11 218.622 1754 239.933 1754 267.077V381.149H1719.54Z" fill="#4B8EF1"/>
<path d="M1269.16 360.455V382.832H1270.16V360.455H1269.16ZM515.279 362.474L514.555 363.164L514.559 363.168L515.279 362.474ZM496 297.025V296.025H495V297.025H496ZM530.975 297.025H531.975V296.025H530.975V297.025ZM544.965 347.331L544.32 348.096L544.326 348.101L544.965 347.331ZM626.515 349.182L625.952 348.356L625.948 348.359L626.515 349.182ZM623.444 294.333L623.865 293.426L623.444 294.333ZM574.48 278.686L574.243 279.658L574.246 279.659L574.48 278.686ZM514.255 255.805L514.827 254.984L514.255 255.805ZM516.132 170.671L516.808 171.407L516.812 171.404L516.132 170.671ZM655.519 172.858L654.79 173.543L654.796 173.549L655.519 172.858ZM675.138 236.456V237.456H676.138V236.456H675.138ZM640.164 236.456H639.164V237.456H640.164V236.456ZM625.662 187.496L625.033 188.273L625.043 188.281L625.662 187.496ZM544.282 185.813L544.845 186.64L544.851 186.635L544.282 185.813ZM547.353 239.316L546.918 240.217L546.921 240.218L547.353 239.316ZM595.976 255.132L596.211 254.16L596.208 254.159L595.976 255.132ZM657.225 277.509L656.673 278.343L656.679 278.347L657.225 277.509ZM655.689 363.988L656.379 364.712L655.689 363.988ZM723.037 356.753L722.253 357.375L722.255 357.377L723.037 356.753ZM723.037 205.162L723.806 205.801L723.037 205.162ZM850.993 201.629L850.224 202.268L850.229 202.275L850.993 201.629ZM870.783 249.243L871.094 250.193L871.832 249.952L871.781 249.178L870.783 249.243ZM839.903 259.338L838.904 259.365L838.94 260.705L840.214 260.288L839.903 259.338ZM826.425 219.126L825.657 219.767L825.661 219.772L826.425 219.126ZM751.869 220.977L751.113 220.324L751.109 220.328L751.869 220.977ZM752.04 340.938L751.259 341.563L751.262 341.566L752.04 340.938ZM826.425 342.789L827.212 343.406L827.215 343.402L826.425 342.789ZM839.903 304.092L840.223 303.144L838.945 302.713L838.904 304.061L839.903 304.092ZM870.783 314.523L871.781 314.596L871.837 313.824L871.103 313.576L870.783 314.523ZM850.993 360.455L851.771 361.083L851.773 361.08L850.993 360.455ZM950.028 381.486L950.172 380.496L950.158 380.494L950.028 381.486ZM930.92 376.438L930.535 377.361L930.92 376.438ZM915.224 366.007L914.504 366.701L914.513 366.71L914.522 366.719L915.224 366.007ZM915.053 281.042L914.342 280.339L914.342 280.339L915.053 281.042ZM930.408 270.61L930.023 269.687L930.017 269.69L930.408 270.61ZM949.346 265.563L949.478 266.554L949.486 266.553L949.494 266.552L949.346 265.563ZM1036.19 264.049V265.049H1037.19V264.049H1036.19ZM1029.87 224.006L1029 224.495L1029.01 224.503L1029.01 224.511L1029.87 224.006ZM1012.47 208.19L1012.07 209.106L1012.07 209.108L1012.47 208.19ZM962.824 207.854L962.424 206.937L962.824 207.854ZM936.891 249.075L936.636 250.042L937.731 250.331L937.882 249.208L936.891 249.075ZM903.111 240.157L902.121 240.013L901.992 240.896L902.856 241.124L903.111 240.157ZM912.324 212.397L913.183 212.909V212.909L912.324 212.397ZM930.067 193.889L930.61 194.729L930.619 194.723L930.067 193.889ZM955.146 183.29L954.918 182.316L954.915 182.317L955.146 183.29ZM1031.58 187.159L1031.22 188.092L1031.22 188.094L1031.58 187.159ZM1060.58 210.714L1059.73 211.239L1059.74 211.249L1060.58 210.714ZM1070.82 381.149V382.149H1071.82V381.149H1070.82ZM1041.82 381.149L1040.82 381.263L1040.92 382.149H1041.82V381.149ZM1038.91 355.912L1039.91 355.798L1037.99 355.536L1038.91 355.912ZM1031.92 364.829L1031.25 364.083L1031.25 364.088L1031.24 364.093L1031.92 364.829ZM1018.27 373.746L1017.83 372.849L1017.82 372.853L1018.27 373.746ZM1000.02 358.941L1000.24 359.916L1000.02 358.941ZM1017.25 353.052L1017.69 353.949L1017.7 353.945L1017.71 353.941L1017.25 353.052ZM1029.53 344.471L1030.23 345.183L1029.53 344.471ZM1036.19 334.376L1037.14 334.687L1037.18 334.542L1037.19 334.39L1036.19 334.376ZM1036.87 283.565L1037.87 283.579L1037.88 282.565H1036.87V283.565ZM962.141 285.08L961.944 284.099L962.141 285.08ZM948.663 290.632L948.103 289.803L948.092 289.811L948.663 290.632ZM939.45 302.241L938.539 301.83L938.535 301.839L938.531 301.847L939.45 302.241ZM939.621 341.779L938.706 342.183L938.709 342.19L939.621 341.779ZM949.004 353.557L948.429 354.374L948.439 354.382L949.004 353.557ZM962.824 359.445L962.61 360.422L962.824 359.445ZM1112.21 381.149H1111.21V382.149H1112.21V381.149ZM1112.21 117V116H1111.21V117H1112.21ZM1146.67 117H1147.67V116H1146.67V117ZM1146.67 381.149V382.149H1147.67V381.149H1146.67ZM1201.76 355.912L1200.96 356.521L1200.97 356.524L1201.76 355.912ZM1202.27 205.33L1203.04 205.973L1203.04 205.97L1202.27 205.33ZM1336.2 205.33L1335.41 205.951L1335.42 205.957L1336.2 205.33ZM1355.82 291.473V292.473H1356.69L1356.81 291.607L1355.82 291.473ZM1210.8 291.473H1209.8V292.473H1210.8V291.473ZM1210.8 270.274V269.274H1209.8V270.274H1210.8ZM1324.08 270.274L1324.98 270.726L1325.71 269.274H1324.08V270.274ZM1322.21 273.975H1321.21L1323.1 274.428L1322.21 273.975ZM1308.22 218.79L1307.46 219.441L1307.46 219.445L1308.22 218.79ZM1229.57 219.463L1228.82 218.797L1228.82 218.801L1229.57 219.463ZM1229.05 341.948L1228.27 342.561L1228.27 342.569L1229.05 341.948ZM1295.42 355.576L1295.83 356.489L1295.84 356.486L1295.42 355.576ZM1312.48 338.751L1311.6 338.288L1311.59 338.299L1312.48 338.751ZM1321.52 312.336L1321.78 311.369L1320.75 311.096L1320.54 312.142L1321.52 312.336ZM1352.58 320.58L1353.57 320.72L1353.69 319.841L1352.83 319.613L1352.58 320.58ZM1339.1 355.407L1338.29 354.813L1339.1 355.407ZM1311.8 376.27L1311.43 375.339L1311.43 375.34L1311.8 376.27ZM1434.86 381.486L1435.01 380.496L1434.99 380.494L1434.86 381.486ZM1415.75 376.438L1415.37 377.361L1415.75 376.438ZM1400.06 366.007L1399.34 366.701L1399.35 366.71L1399.36 366.719L1400.06 366.007ZM1399.89 281.042L1399.18 280.339L1399.18 280.339L1399.89 281.042ZM1415.24 270.61L1414.86 269.687L1414.85 269.69L1415.24 270.61ZM1434.18 265.563L1434.31 266.554L1434.32 266.553L1434.33 266.552L1434.18 265.563ZM1521.02 264.049V265.049H1522.02V264.049H1521.02ZM1514.71 224.006L1513.83 224.495L1513.84 224.503L1513.84 224.511L1514.71 224.006ZM1497.3 208.19L1496.9 209.106L1496.91 209.108L1497.3 208.19ZM1447.66 207.854L1447.26 206.937L1447.66 207.854ZM1421.72 249.075L1421.47 250.042L1422.56 250.331L1422.72 249.208L1421.72 249.075ZM1387.94 240.157L1386.96 240.013L1386.83 240.896L1387.69 241.124L1387.94 240.157ZM1397.16 212.397L1398.02 212.909V212.909L1397.16 212.397ZM1414.9 193.889L1415.44 194.729L1415.45 194.723L1414.9 193.889ZM1439.98 183.29L1439.75 182.316L1439.75 182.317L1439.98 183.29ZM1516.41 187.159L1516.05 188.092L1516.06 188.094L1516.41 187.159ZM1545.42 210.714L1544.56 211.239L1544.57 211.249L1545.42 210.714ZM1555.65 381.149V382.149H1556.65V381.149H1555.65ZM1526.65 381.149L1525.66 381.263L1525.76 382.149H1526.65V381.149ZM1523.75 355.912L1524.74 355.798L1522.82 355.536L1523.75 355.912ZM1516.75 364.829L1516.09 364.083L1516.08 364.088L1516.08 364.093L1516.75 364.829ZM1503.1 373.746L1502.66 372.849L1502.66 372.853L1503.1 373.746ZM1484.85 358.941L1485.07 359.916L1484.85 358.941ZM1502.08 353.052L1502.52 353.949L1502.53 353.945L1502.54 353.941L1502.08 353.052ZM1514.36 344.471L1515.07 345.183L1514.36 344.471ZM1521.02 334.376L1521.97 334.687L1522.02 334.542L1522.02 334.39L1521.02 334.376ZM1521.7 283.565L1522.7 283.579L1522.71 282.565H1521.7V283.565ZM1446.97 285.08L1446.78 284.099L1446.97 285.08ZM1433.5 290.632L1432.94 289.803L1432.93 289.811L1433.5 290.632ZM1424.28 302.241L1423.37 301.83L1423.37 301.839L1423.36 301.847L1424.28 302.241ZM1424.45 341.779L1423.54 342.183L1423.54 342.19L1424.45 341.779ZM1433.84 353.557L1433.26 354.374L1433.27 354.382L1433.84 353.557ZM1447.66 359.445L1447.44 360.422L1447.66 359.445ZM1592.78 381.149H1591.78V382.149H1592.78V381.149ZM1592.78 181.775V180.775H1591.78V181.775H1592.78ZM1619.73 181.775L1620.71 181.585L1620.56 180.775H1619.73V181.775ZM1627.24 220.472H1628.24V220.376L1628.22 220.282L1627.24 220.472ZM1627.24 381.149V382.149H1628.24V381.149H1627.24ZM1719.54 381.149H1718.54V382.149H1719.54V381.149ZM1708.96 218.117L1708.15 218.701L1708.15 218.707L1708.96 218.117ZM1640.89 219.295L1640.16 218.607L1640.16 218.607L1640.89 219.295ZM1626.21 258.328L1625.68 259.173L1627.21 260.146V258.328H1626.21ZM1609.5 247.729H1608.5V248.279L1608.96 248.573L1609.5 247.729ZM1631.84 201.629L1632.54 202.346V202.346L1631.84 201.629ZM1739.33 203.143L1738.48 203.67L1738.48 203.677L1739.33 203.143ZM1754 381.149V382.149H1755V381.149H1754ZM585.91 381.664C551.856 381.664 528.671 374.934 515.999 361.78L514.559 363.168C527.819 376.933 551.722 383.664 585.91 383.664V381.664ZM516.002 361.783C503.41 348.596 497 327.092 497 297.025H495C495 327.303 501.443 349.432 514.555 363.164L516.002 361.783ZM496 298.025H530.975V296.025H496V298.025ZM529.975 297.025C529.975 309.92 531.144 320.632 533.509 329.134C535.872 337.633 539.45 343.996 544.321 348.096L545.609 346.566C541.152 342.815 537.735 336.868 535.436 328.598C533.137 320.332 531.975 309.816 531.975 297.025H529.975ZM544.326 348.101C553.9 356.046 567.757 359.941 585.74 359.941V357.941C568.009 357.941 554.682 354.096 545.603 346.562L544.326 348.101ZM585.74 359.941C603.583 359.941 617.407 356.673 627.083 350.006L625.948 348.359C616.743 354.702 603.384 357.941 585.74 357.941V359.941ZM627.078 350.009C636.892 343.326 641.846 334.218 641.846 322.767H639.846C639.846 333.525 635.246 342.027 625.952 348.356L627.078 350.009ZM641.846 322.767C641.846 315.838 640.365 309.885 637.349 304.958C634.331 300.026 629.817 296.188 623.865 293.426L623.023 295.24C628.673 297.862 632.86 301.455 635.643 306.002C638.428 310.552 639.846 316.125 639.846 322.767H641.846ZM623.865 293.426C612.176 288.002 595.781 282.768 574.713 277.714L574.246 279.659C595.261 284.7 611.509 289.897 623.023 295.24L623.865 293.426ZM574.716 277.715C546.65 270.879 526.725 263.286 514.827 254.984L513.683 256.625C525.897 265.147 546.123 272.809 574.243 279.658L574.716 277.715ZM514.827 254.984C503.113 246.811 497.171 233.54 497.171 214.92H495.171C495.171 233.988 501.284 247.973 513.683 256.625L514.827 254.984ZM497.171 214.92C497.171 197.941 503.696 183.454 516.808 171.407L515.455 169.935C501.952 182.34 495.171 197.353 495.171 214.92H497.171ZM516.812 171.404C529.833 159.332 552.652 153.164 585.569 153.164V151.164C552.518 151.164 529.046 157.334 515.452 169.938L516.812 171.404ZM585.569 153.164C619.159 153.164 642.116 160.057 654.79 173.543L656.247 172.173C642.989 158.066 619.313 151.164 585.569 151.164V153.164ZM654.796 173.549C667.625 186.971 674.138 207.869 674.138 236.456H676.138C676.138 207.614 669.572 186.114 656.241 172.167L654.796 173.549ZM675.138 235.456H640.164V237.456H675.138V235.456ZM641.164 236.456C641.164 223.894 639.951 213.457 637.497 205.172C635.043 196.888 631.329 190.693 626.282 186.711L625.043 188.281C629.663 191.926 633.199 197.705 635.58 205.74C637.96 213.776 639.164 224.005 639.164 236.456H641.164ZM626.292 186.719C616.498 178.786 602.766 174.887 585.228 174.887V176.887C602.494 176.887 615.718 180.727 625.033 188.273L626.292 186.719ZM585.228 174.887C567.382 174.887 553.501 178.211 543.713 184.991L544.851 186.635C554.171 180.18 567.588 176.887 585.228 176.887V174.887ZM543.719 184.987C533.926 191.655 528.951 200.417 528.951 211.219H530.951C530.951 201.158 535.53 192.983 544.845 186.64L543.719 184.987ZM528.951 211.219C528.951 217.931 530.436 223.743 533.451 228.612C536.468 233.482 540.976 237.344 546.918 240.217L547.788 238.416C542.129 235.68 537.936 232.055 535.152 227.559C532.367 223.062 530.951 217.63 530.951 211.219H528.951ZM546.921 240.218C558.728 245.87 575.013 251.162 595.744 256.104L596.208 254.159C575.539 249.231 559.409 243.979 547.785 238.414L546.921 240.218ZM595.741 256.104C624.497 263.053 644.77 270.48 656.673 278.343L657.776 276.674C645.567 268.609 625.007 261.119 596.211 254.16L595.741 256.104ZM656.679 278.347C668.361 285.954 674.309 299.089 674.309 318.056H676.309C676.309 298.663 670.201 284.766 657.77 276.671L656.679 278.347ZM674.309 318.056C674.309 335.955 667.88 351.003 655 363.264L656.379 364.712C669.658 352.072 676.309 336.499 676.309 318.056H674.309ZM655 363.264C642.211 375.437 619.289 381.664 585.91 381.664V383.664C619.411 383.664 643.008 377.44 656.379 364.712L655 363.264ZM790.427 381.832C759.553 381.832 737.438 373.193 723.818 356.13L722.255 357.377C736.388 375.085 759.199 383.832 790.427 383.832V381.832ZM723.82 356.132C710.136 338.876 703.223 314.117 703.223 281.715H701.223C701.223 314.369 708.185 339.635 722.253 357.375L723.82 356.132ZM703.223 281.715C703.223 247.498 710.144 222.256 723.806 205.801L722.267 204.523C708.177 221.494 701.223 247.286 701.223 281.715H703.223ZM723.806 205.801C737.421 189.402 759.541 181.093 790.427 181.093V179.093C759.211 179.093 736.404 187.496 722.267 204.523L723.806 205.801ZM790.427 181.093C818.722 181.093 838.553 188.238 850.224 202.268L851.762 200.989C839.547 186.306 819.002 179.093 790.427 179.093V181.093ZM850.229 202.275C862.157 216.367 868.663 232.038 869.785 249.308L871.781 249.178C870.629 231.452 863.941 215.38 851.756 200.983L850.229 202.275ZM870.473 248.292L839.593 258.387L840.214 260.288L871.094 250.193L870.473 248.292ZM840.903 259.311C840.443 242.432 835.901 228.791 827.189 218.481L825.661 219.772C834.01 229.652 838.453 242.818 838.904 259.365L840.903 259.311ZM827.193 218.486C818.551 208.12 806.245 202.984 790.427 202.984V204.984C805.773 204.984 817.466 209.943 825.657 219.767L827.193 218.486ZM790.427 202.984C774.234 202.984 761.097 208.76 751.113 220.324L752.626 221.631C762.205 210.538 774.773 204.984 790.427 204.984V202.984ZM751.109 220.328C741.195 231.945 736.368 252.51 736.368 281.715H738.368C738.368 252.594 743.209 232.667 752.63 221.626L751.109 220.328ZM736.368 281.715C736.368 309.047 741.264 329.069 751.259 341.563L752.821 340.313C743.253 328.355 738.368 308.895 738.368 281.715H736.368ZM751.262 341.566C761.237 353.919 774.32 360.109 790.427 360.109V358.109C774.914 358.109 762.406 352.184 752.818 340.31L751.262 341.566ZM790.427 360.109C806.161 360.109 818.468 354.559 827.212 343.406L825.638 342.172C817.322 352.779 805.63 358.109 790.427 358.109V360.109ZM827.215 343.402C835.884 332.231 840.442 319.125 840.903 304.122L838.904 304.061C838.455 318.67 834.027 331.362 825.635 342.176L827.215 343.402ZM839.583 305.039L870.463 315.471L871.103 313.576L840.223 303.144L839.583 305.039ZM869.786 314.45C868.666 329.796 862.172 344.92 850.213 359.829L851.773 361.08C863.926 345.929 870.625 330.432 871.781 314.596L869.786 314.45ZM850.215 359.826C838.425 374.414 818.594 381.832 790.427 381.832V383.832C818.902 383.832 839.448 376.331 851.771 361.083L850.215 359.826ZM971.354 382C964.121 382 957.061 381.498 950.172 380.496L949.884 382.475C956.872 383.492 964.029 384 971.354 384V382ZM950.158 380.494C943.415 379.608 937.132 377.947 931.305 375.515L930.535 377.361C936.537 379.865 942.992 381.569 949.898 382.477L950.158 380.494ZM931.305 375.515C925.509 373.097 920.384 369.691 915.926 365.295L914.522 366.719C919.163 371.296 924.503 374.844 930.535 377.361L931.305 375.515ZM915.944 365.313C911.623 360.833 908.222 355.13 905.76 348.175L903.874 348.843C906.416 356.021 909.954 361.983 914.504 366.701L915.944 365.313ZM905.76 348.175C903.306 341.246 902.064 332.785 902.064 322.767H900.064C900.064 332.939 901.323 341.639 903.874 348.843L905.76 348.175ZM902.064 322.767C902.064 313.089 903.305 304.912 905.756 298.21L903.878 297.523C901.324 304.506 900.064 312.929 900.064 322.767H902.064ZM905.756 298.21C908.218 291.478 911.56 286 915.765 281.745L914.342 280.339C909.902 284.833 906.42 290.571 903.878 297.523L905.756 298.21ZM915.765 281.745C920.109 277.351 925.119 273.947 930.8 271.531L930.017 269.69C924.096 272.209 918.869 275.76 914.342 280.339L915.765 281.745ZM930.793 271.533C936.622 269.101 942.85 267.44 949.478 266.554L949.213 264.572C942.421 265.48 936.023 267.184 930.023 269.688L930.793 271.533ZM949.494 266.552C956.153 265.55 963.041 265.049 970.16 265.049V263.049C962.947 263.049 955.959 263.557 949.197 264.574L949.494 266.552ZM970.16 265.049H1036.19V263.049H970.16V265.049ZM1037.19 264.049V252.776H1035.19V264.049H1037.19ZM1037.19 252.776C1037.19 240.671 1035.06 230.885 1030.74 223.5L1029.01 224.511C1033.1 231.483 1035.19 240.878 1035.19 252.776H1037.19ZM1030.74 223.516C1026.55 216.039 1020.58 210.615 1012.87 207.273L1012.07 209.108C1019.37 212.272 1025.01 217.391 1029 224.495L1030.74 223.516ZM1012.87 207.275C1005.33 203.956 996.6 202.311 986.709 202.311V204.311C996.38 204.311 1004.83 205.919 1012.07 209.106L1012.87 207.275ZM986.709 202.311C977.611 202.311 969.509 203.845 962.424 206.937L963.224 208.77C970.014 205.806 977.836 204.311 986.709 204.311V202.311ZM962.424 206.937C955.297 210.048 949.463 215.061 944.928 221.941L946.598 223.042C950.934 216.462 956.475 211.716 963.224 208.77L962.424 206.937ZM944.928 221.941C940.384 228.835 937.392 237.853 935.9 248.941L937.882 249.208C939.348 238.312 942.27 229.608 946.598 223.042L944.928 221.941ZM937.147 248.108L903.366 239.191L902.856 241.124L936.636 250.042L937.147 248.108ZM904.1 240.302C905.678 229.522 908.714 220.4 913.183 212.909L911.465 211.884C906.834 219.648 903.728 229.033 902.121 240.013L904.1 240.302ZM913.183 212.909C917.655 205.41 923.463 199.354 930.61 194.729L929.524 193.05C922.112 197.846 916.091 204.129 911.465 211.884L913.183 212.909ZM930.619 194.723C937.79 189.972 946.039 186.482 955.378 184.263L954.915 182.317C945.373 184.584 936.902 188.161 929.515 193.056L930.619 194.723ZM955.375 184.263C964.843 182.04 975.229 180.925 986.538 180.925V178.925C975.099 178.925 964.557 180.053 954.918 182.316L955.375 184.263ZM986.538 180.925C1003.97 180.925 1018.85 183.325 1031.22 188.092L1031.94 186.226C1019.28 181.348 1004.14 178.925 986.538 178.925V180.925ZM1031.22 188.094C1043.65 192.843 1053.14 200.557 1059.73 211.239L1061.43 210.189C1054.6 199.111 1044.75 191.122 1031.94 186.225L1031.22 188.094ZM1059.74 211.249C1066.43 221.802 1069.82 236.119 1069.82 254.29H1071.82C1071.82 235.896 1068.39 221.162 1061.43 210.179L1059.74 211.249ZM1069.82 254.29V381.149H1071.82V254.29H1069.82ZM1070.82 380.149H1041.82V382.149H1070.82V380.149ZM1042.81 381.035L1039.91 355.798L1037.92 356.026L1040.82 381.263L1042.81 381.035ZM1037.99 355.536C1036.93 358.141 1034.72 360.992 1031.25 364.083L1032.59 365.576C1036.17 362.385 1038.62 359.292 1039.84 356.288L1037.99 355.536ZM1031.24 364.093C1027.92 367.151 1023.46 370.073 1017.83 372.849L1018.71 374.643C1024.46 371.811 1029.09 368.789 1032.6 365.565L1031.24 364.093ZM1017.82 372.853C1012.34 375.61 1005.72 377.829 997.93 379.499L998.349 381.454C1006.26 379.759 1013.05 377.491 1018.72 374.64L1017.82 372.853ZM997.93 379.499C990.165 381.163 981.309 382 971.354 382V384C981.417 384 990.418 383.154 998.349 381.454L997.93 379.499ZM978.861 362.128C986.545 362.128 993.671 361.393 1000.24 359.916L999.797 357.965C993.395 359.405 986.418 360.128 978.861 360.128V362.128ZM1000.24 359.916C1006.78 358.444 1012.6 356.457 1017.69 353.949L1016.81 352.155C1011.88 354.582 1006.22 356.521 999.797 357.965L1000.24 359.916ZM1017.71 353.941C1022.78 351.326 1026.96 348.41 1030.23 345.183L1028.83 343.759C1025.73 346.813 1021.73 349.618 1016.79 352.163L1017.71 353.941ZM1030.23 345.183C1033.62 341.848 1035.94 338.351 1037.14 334.687L1035.23 334.065C1034.16 337.356 1032.04 340.589 1028.83 343.759L1030.23 345.183ZM1037.19 334.39L1037.87 283.579L1035.87 283.552L1035.19 334.363L1037.19 334.39ZM1036.87 282.565H978.008V284.565H1036.87V282.565ZM978.008 282.565C972.374 282.565 967.019 283.076 961.944 284.099L962.339 286.06C967.273 285.065 972.495 284.565 978.008 284.565V282.565ZM961.944 284.099C956.818 285.133 952.2 287.033 948.103 289.804L949.223 291.46C953.088 288.847 957.456 287.045 962.339 286.06L961.944 284.099ZM948.092 289.811C944.052 292.623 940.875 296.647 938.539 301.83L940.362 302.652C942.576 297.74 945.54 294.024 949.235 291.453L948.092 289.811ZM938.531 301.847C936.298 307.063 935.209 313.773 935.209 321.926H937.209C937.209 313.927 938.281 307.513 940.37 302.635L938.531 301.847ZM935.209 321.926C935.209 330.085 936.356 336.853 938.706 342.183L940.536 341.376C938.336 336.386 937.209 329.918 937.209 321.926H935.209ZM938.709 342.19C941.047 347.378 944.282 351.453 948.429 354.374L949.58 352.739C945.765 350.052 942.744 346.275 940.533 341.368L938.709 342.19ZM948.439 354.382C952.646 357.263 957.373 359.274 962.61 360.422L963.038 358.468C958.038 357.373 953.552 355.459 949.57 352.732L948.439 354.382ZM962.61 360.422C967.803 361.56 973.22 362.128 978.861 362.128V360.128C973.355 360.128 968.081 359.574 963.038 358.468L962.61 360.422ZM1113.21 381.149V117H1111.21V381.149H1113.21ZM1112.21 118H1146.67V116H1112.21V118ZM1145.67 117V381.149H1147.67V117H1145.67ZM1146.67 380.149H1112.21V382.149H1146.67V380.149ZM1269.66 381.832C1238.45 381.832 1216.17 372.917 1202.55 355.3L1200.97 356.524C1215.1 374.8 1238.08 383.832 1269.66 383.832V381.832ZM1202.55 355.304C1188.97 337.591 1182.11 312.878 1182.11 281.042H1180.11C1180.11 313.14 1187.02 338.34 1200.96 356.521L1202.55 355.304ZM1182.11 281.042C1182.11 247.508 1189.15 222.543 1203.04 205.973L1201.5 204.688C1187.19 221.767 1180.11 247.277 1180.11 281.042H1182.11ZM1203.04 205.97C1216.89 189.339 1238.84 180.925 1269.15 180.925V178.925C1238.49 178.925 1215.86 187.447 1201.5 204.69L1203.04 205.97ZM1269.15 180.925C1300.26 180.925 1322.26 189.347 1335.41 205.951L1336.98 204.709C1323.3 187.44 1300.59 178.925 1269.15 178.925V180.925ZM1335.42 205.957C1348.75 222.53 1355.5 247.335 1355.5 280.537H1357.5C1357.5 247.113 1350.71 221.78 1336.98 204.703L1335.42 205.957ZM1355.5 280.537C1355.5 284.425 1355.27 288.025 1354.83 291.339L1356.81 291.607C1357.27 288.192 1357.5 284.501 1357.5 280.537H1355.5ZM1355.82 290.473H1210.8V292.473H1355.82V290.473ZM1211.8 291.473V270.274H1209.8V291.473H1211.8ZM1210.8 271.274H1324.08V269.274H1210.8V271.274ZM1323.19 269.822L1321.32 273.523L1323.1 274.428L1324.98 270.726L1323.19 269.822ZM1323.21 273.975C1323.21 247.889 1318.54 229.185 1308.97 218.135L1307.46 219.445C1316.54 229.931 1321.21 248.017 1321.21 273.975H1323.21ZM1308.98 218.139C1299.43 207 1286.11 201.47 1269.15 201.47V203.47C1285.63 203.47 1298.35 208.82 1307.46 219.441L1308.98 218.139ZM1269.15 201.47C1252.62 201.47 1239.15 207.239 1228.82 218.797L1230.31 220.129C1240.23 209.029 1253.15 203.47 1269.15 203.47V201.47ZM1228.82 218.801C1218.55 230.422 1213.55 251.277 1213.55 281.042H1215.55C1215.55 251.359 1220.57 231.162 1230.32 220.125L1228.82 218.801ZM1213.55 281.042C1213.55 309.263 1218.39 329.843 1228.27 342.561L1229.84 341.334C1220.38 329.151 1215.55 309.128 1215.55 281.042H1213.55ZM1228.27 342.569C1238.26 355.172 1252.1 361.455 1269.66 361.455V359.455C1252.64 359.455 1239.41 353.4 1229.84 341.326L1228.27 342.569ZM1269.66 361.455C1279.66 361.455 1288.39 359.811 1295.83 356.489L1295.01 354.663C1287.89 357.846 1279.45 359.455 1269.66 359.455V361.455ZM1295.84 356.486C1303.45 353.019 1309.3 347.239 1313.37 339.203L1311.59 338.299C1307.7 345.966 1302.18 351.403 1295.01 354.665L1295.84 356.486ZM1313.37 339.213C1317.51 331.268 1320.56 322.371 1322.51 312.53L1320.54 312.142C1318.63 321.818 1315.64 330.531 1311.6 338.288L1313.37 339.213ZM1321.27 313.302L1352.32 321.547L1352.83 319.613L1321.78 311.369L1321.27 313.302ZM1351.59 320.44C1349.67 333.987 1345.23 345.433 1338.29 354.813L1339.9 356.002C1347.07 346.314 1351.61 334.541 1353.57 320.72L1351.59 320.44ZM1338.29 354.813C1331.35 364.194 1322.41 371.033 1311.43 375.339L1312.17 377.201C1323.48 372.759 1332.74 365.689 1339.9 356.002L1338.29 354.813ZM1311.43 375.34C1300.56 379.653 1286.65 381.832 1269.66 381.832V383.832C1286.8 383.832 1300.98 381.636 1312.17 377.2L1311.43 375.34ZM1456.19 382C1448.95 382 1441.89 381.498 1435.01 380.496L1434.72 382.475C1441.71 383.492 1448.86 384 1456.19 384V382ZM1434.99 380.494C1428.25 379.608 1421.97 377.947 1416.14 375.515L1415.37 377.361C1421.37 379.865 1427.83 381.569 1434.73 382.477L1434.99 380.494ZM1416.14 375.515C1410.34 373.097 1405.22 369.691 1400.76 365.295L1399.36 366.719C1404 371.296 1409.34 374.844 1415.37 377.361L1416.14 375.515ZM1400.78 365.313C1396.46 360.833 1393.06 355.13 1390.59 348.175L1388.71 348.843C1391.25 356.021 1394.79 361.983 1399.34 366.701L1400.78 365.313ZM1390.59 348.175C1388.14 341.246 1386.9 332.785 1386.9 322.767H1384.9C1384.9 332.939 1386.16 341.639 1388.71 348.843L1390.59 348.175ZM1386.9 322.767C1386.9 313.089 1388.14 304.912 1390.59 298.21L1388.71 297.523C1386.16 304.505 1384.9 312.929 1384.9 322.767H1386.9ZM1390.59 298.21C1393.05 291.478 1396.39 286 1400.6 281.745L1399.18 280.339C1394.74 284.833 1391.25 290.571 1388.71 297.523L1390.59 298.21ZM1400.6 281.745C1404.94 277.351 1409.95 273.947 1415.63 271.531L1414.85 269.69C1408.93 272.209 1403.7 275.76 1399.18 280.339L1400.6 281.745ZM1415.63 271.533C1421.46 269.101 1427.68 267.44 1434.31 266.554L1434.05 264.572C1427.25 265.48 1420.86 267.184 1414.86 269.688L1415.63 271.533ZM1434.33 266.552C1440.99 265.55 1447.87 265.049 1454.99 265.049V263.049C1447.78 263.049 1440.79 263.557 1434.03 264.574L1434.33 266.552ZM1454.99 265.049H1521.02V263.049H1454.99V265.049ZM1522.02 264.049V252.776H1520.02V264.049H1522.02ZM1522.02 252.776C1522.02 240.671 1519.9 230.885 1515.57 223.5L1513.84 224.511C1517.93 231.483 1520.02 240.878 1520.02 252.776H1522.02ZM1515.58 223.516C1511.38 216.039 1505.41 210.615 1497.7 207.273L1496.91 209.108C1504.21 212.272 1509.84 217.391 1513.83 224.495L1515.58 223.516ZM1497.71 207.275C1490.16 203.956 1481.43 202.311 1471.54 202.311V204.311C1481.21 204.311 1489.66 205.919 1496.9 209.106L1497.71 207.275ZM1471.54 202.311C1462.44 202.311 1454.34 203.845 1447.26 206.937L1448.06 208.77C1454.85 205.806 1462.67 204.311 1471.54 204.311V202.311ZM1447.26 206.937C1440.13 210.048 1434.3 215.061 1429.76 221.941L1431.43 223.042C1435.77 216.462 1441.31 211.716 1448.06 208.77L1447.26 206.937ZM1429.76 221.941C1425.22 228.835 1422.23 237.853 1420.73 248.941L1422.72 249.208C1424.18 238.312 1427.1 229.608 1431.43 223.042L1429.76 221.941ZM1421.98 248.108L1388.2 239.191L1387.69 241.124L1421.47 250.042L1421.98 248.108ZM1388.93 240.302C1390.51 229.522 1393.55 220.4 1398.02 212.909L1396.3 211.884C1391.67 219.648 1388.56 229.033 1386.96 240.013L1388.93 240.302ZM1398.02 212.909C1402.49 205.41 1408.3 199.354 1415.44 194.729L1414.36 193.05C1406.95 197.846 1400.92 204.129 1396.3 211.884L1398.02 212.909ZM1415.45 194.723C1422.62 189.972 1430.87 186.482 1440.21 184.263L1439.75 182.317C1430.21 184.584 1421.74 188.161 1414.35 193.056L1415.45 194.723ZM1440.21 184.263C1449.68 182.04 1460.06 180.925 1471.37 180.925V178.925C1459.93 178.925 1449.39 180.053 1439.75 182.316L1440.21 184.263ZM1471.37 180.925C1488.8 180.925 1503.69 183.325 1516.05 188.092L1516.77 186.226C1504.12 181.348 1488.97 178.925 1471.37 178.925V180.925ZM1516.06 188.094C1528.49 192.843 1537.98 200.557 1544.56 211.239L1546.27 210.189C1539.43 199.111 1529.59 191.122 1516.77 186.225L1516.06 188.094ZM1544.57 211.249C1551.26 221.802 1554.65 236.119 1554.65 254.29H1556.65C1556.65 235.896 1553.22 221.162 1546.26 210.179L1544.57 211.249ZM1554.65 254.29V381.149H1556.65V254.29H1554.65ZM1555.65 380.149H1526.65V382.149H1555.65V380.149ZM1527.64 381.035L1524.74 355.798L1522.76 356.026L1525.66 381.263L1527.64 381.035ZM1522.82 355.536C1521.77 358.141 1519.56 360.992 1516.09 364.083L1517.42 365.576C1521 362.385 1523.46 359.292 1524.68 356.288L1522.82 355.536ZM1516.08 364.093C1512.75 367.151 1508.29 370.073 1502.66 372.849L1503.55 374.643C1509.29 371.811 1513.93 368.789 1517.43 365.565L1516.08 364.093ZM1502.66 372.853C1497.18 375.61 1490.55 377.829 1482.76 379.499L1483.18 381.454C1491.09 379.759 1497.89 377.491 1503.55 374.64L1502.66 372.853ZM1482.76 379.499C1475 381.163 1466.14 382 1456.19 382V384C1466.25 384 1475.25 383.154 1483.18 381.454L1482.76 379.499ZM1463.69 362.128C1471.38 362.128 1478.5 361.393 1485.07 359.916L1484.63 357.965C1478.23 359.405 1471.25 360.128 1463.69 360.128V362.128ZM1485.07 359.916C1491.62 358.444 1497.44 356.457 1502.52 353.949L1501.64 352.155C1496.72 354.582 1491.05 356.521 1484.63 357.965L1485.07 359.916ZM1502.54 353.941C1507.61 351.326 1511.79 348.41 1515.07 345.183L1513.66 343.759C1510.57 346.813 1506.56 349.618 1501.62 352.163L1502.54 353.941ZM1515.07 345.183C1518.45 341.848 1520.77 338.351 1521.97 334.687L1520.07 334.065C1518.99 337.356 1516.88 340.589 1513.66 343.759L1515.07 345.183ZM1522.02 334.39L1522.7 283.579L1520.7 283.552L1520.02 334.363L1522.02 334.39ZM1521.7 282.565H1462.84V284.565H1521.7V282.565ZM1462.84 282.565C1457.21 282.565 1451.85 283.076 1446.78 284.099L1447.17 286.06C1452.11 285.065 1457.33 284.565 1462.84 284.565V282.565ZM1446.78 284.099C1441.65 285.133 1437.03 287.033 1432.94 289.804L1434.06 291.46C1437.92 288.847 1442.29 287.045 1447.17 286.06L1446.78 284.099ZM1432.93 289.811C1428.89 292.623 1425.71 296.647 1423.37 301.83L1425.2 302.652C1427.41 297.74 1430.37 294.024 1434.07 291.453L1432.93 289.811ZM1423.36 301.847C1421.13 307.063 1420.04 313.773 1420.04 321.926H1422.04C1422.04 313.927 1423.11 307.513 1425.2 302.635L1423.36 301.847ZM1420.04 321.926C1420.04 330.085 1421.19 336.853 1423.54 342.183L1425.37 341.376C1423.17 336.386 1422.04 329.918 1422.04 321.926H1420.04ZM1423.54 342.19C1425.88 347.378 1429.12 351.453 1433.26 354.374L1434.41 352.739C1430.6 350.052 1427.58 346.275 1425.37 341.368L1423.54 342.19ZM1433.27 354.382C1437.48 357.263 1442.21 359.274 1447.44 360.422L1447.87 358.468C1442.87 357.373 1438.39 355.459 1434.4 352.732L1433.27 354.382ZM1447.44 360.422C1452.64 361.56 1458.05 362.128 1463.69 362.128V360.128C1458.19 360.128 1452.91 359.574 1447.87 358.468L1447.44 360.422ZM1593.78 381.149V181.775H1591.78V381.149H1593.78ZM1592.78 182.775H1619.73V180.775H1592.78V182.775ZM1618.75 181.966L1626.26 220.663L1628.22 220.282L1620.71 181.585L1618.75 181.966ZM1626.24 220.472V381.149H1628.24V220.472H1626.24ZM1627.24 380.149H1592.78V382.149H1627.24V380.149ZM1720.54 381.149V267.414H1718.54V381.149H1720.54ZM1720.54 267.414C1720.54 244.153 1717.02 227.443 1709.77 217.527L1708.15 218.707C1715.01 228.083 1718.54 244.238 1718.54 267.414H1720.54ZM1709.77 217.533C1702.61 207.572 1691.69 202.648 1677.23 202.648V204.648C1691.19 204.648 1701.44 209.369 1708.15 218.701L1709.77 217.533ZM1677.23 202.648C1662.62 202.648 1650.24 207.977 1640.16 218.607L1641.61 219.983C1651.32 209.75 1663.17 204.648 1677.23 204.648V202.648ZM1640.16 218.607C1630.18 229.132 1625.21 242.398 1625.21 258.328H1627.21C1627.21 242.852 1632.03 230.096 1641.61 219.983L1640.16 218.607ZM1626.75 257.484L1610.03 246.884L1608.96 248.573L1625.68 259.173L1626.75 257.484ZM1610.5 247.729C1610.5 231.805 1617.78 216.682 1632.54 202.346L1631.15 200.911C1616.11 215.514 1608.5 231.125 1608.5 247.729H1610.5ZM1632.54 202.346C1647.34 187.969 1666.36 180.756 1689.68 180.756V178.756C1665.91 178.756 1646.37 186.125 1631.15 200.911L1632.54 202.346ZM1689.68 180.756C1712.87 180.756 1729.04 188.455 1738.48 203.67L1740.18 202.616C1730.28 186.649 1713.35 178.756 1689.68 178.756V180.756ZM1738.48 203.677C1748.13 218.937 1753 240.037 1753 267.077H1755C1755 239.83 1750.09 218.307 1740.17 202.609L1738.48 203.677ZM1753 267.077V381.149H1755V267.077H1753ZM1754 380.149H1719.54V382.149H1754V380.149Z" fill="#4B8EF1" mask="url(#path-1-outside-1_2_2)"/>
<path d="M399 56L399 375" stroke="#4B8EF1" stroke-width="20" stroke-linecap="round"/>
<g filter="url(#filter0_d_2_2)">
<path d="M279 66L244 126.622" stroke="#3DB0F6" stroke-width="45" stroke-linecap="round"/>
</g>
<g filter="url(#filter1_d_2_2)">
<path d="M62 298L27 358.622" stroke="#3DB0F6" stroke-width="45" stroke-linecap="round"/>
</g>
<g filter="url(#filter2_d_2_2)">
<path d="M26.996 65H279.004" stroke="#2BDAFC" stroke-opacity="0.831373" stroke-width="45" stroke-linecap="round" shape-rendering="crispEdges"/>
</g>
<g filter="url(#filter3_d_2_2)">
<path d="M26.996 358H279.004" stroke="#2BDAFC" stroke-opacity="0.8314" stroke-width="45" stroke-linecap="round" shape-rendering="crispEdges"/>
</g>
<g filter="url(#filter4_d_2_2)">
<path d="M152 281.506L27 65" stroke="#5180EF" stroke-width="45" stroke-linecap="round"/>
</g>
<g filter="url(#filter5_d_2_2)">
<path d="M279 358.506L154 142" stroke="#5180EF" stroke-width="45" stroke-linecap="round"/>
</g>
<defs>
<filter id="filter0_d_2_2" x="217.496" y="43.4962" width="88.0075" height="113.629" filterUnits="userSpaceOnUse" color-interpolation-filters="sRGB">
<feFlood flood-opacity="0" result="BackgroundImageFix"/>
<feColorMatrix in="SourceAlpha" type="matrix" values="0 0 0 0 0 0 0 0 0 0 0 0 0 0 0 0 0 0 127 0" result="hardAlpha"/>
<feOffset dy="4"/>
<feGaussianBlur stdDeviation="2"/>
<feComposite in2="hardAlpha" operator="out"/>
<feColorMatrix type="matrix" values="0 0 0 0 0 0 0 0 0 0 0 0 0 0 0 0 0 0 0.25 0"/>
<feBlend mode="normal" in2="BackgroundImageFix" result="effect1_dropShadow_2_2"/>
<feBlend mode="normal" in="SourceGraphic" in2="effect1_dropShadow_2_2" result="shape"/>
</filter>
<filter id="filter1_d_2_2" x="0.496216" y="275.496" width="88.0076" height="113.629" filterUnits="userSpaceOnUse" color-interpolation-filters="sRGB">
<feFlood flood-opacity="0" result="BackgroundImageFix"/>
<feColorMatrix in="SourceAlpha" type="matrix" values="0 0 0 0 0 0 0 0 0 0 0 0 0 0 0 0 0 0 127 0" result="hardAlpha"/>
<feOffset dy="4"/>
<feGaussianBlur stdDeviation="2"/>
<feComposite in2="hardAlpha" operator="out"/>
<feColorMatrix type="matrix" values="0 0 0 0 0 0 0 0 0 0 0 0 0 0 0 0 0 0 0.25 0"/>
<feBlend mode="normal" in2="BackgroundImageFix" result="effect1_dropShadow_2_2"/>
<feBlend mode="normal" in="SourceGraphic" in2="effect1_dropShadow_2_2" result="shape"/>
</filter>
<filter id="filter2_d_2_2" x="0.496033" y="42.5" width="305.008" height="53" filterUnits="userSpaceOnUse" color-interpolation-filters="sRGB">
<feFlood flood-opacity="0" result="BackgroundImageFix"/>
<feColorMatrix in="SourceAlpha" type="matrix" values="0 0 0 0 0 0 0 0 0 0 0 0 0 0 0 0 0 0 127 0" result="hardAlpha"/>
<feOffset dy="4"/>
<feGaussianBlur stdDeviation="2"/>
<feComposite in2="hardAlpha" operator="out"/>
<feColorMatrix type="matrix" values="0 0 0 0 0 0 0 0 0 0 0 0 0 0 0 0 0 0 0.25 0"/>
<feBlend mode="normal" in2="BackgroundImageFix" result="effect1_dropShadow_2_2"/>
<feBlend mode="normal" in="SourceGraphic" in2="effect1_dropShadow_2_2" result="shape"/>
</filter>
<filter id="filter3_d_2_2" x="0.496033" y="335.5" width="305.008" height="53" filterUnits="userSpaceOnUse" color-interpolation-filters="sRGB">
<feFlood flood-opacity="0" result="BackgroundImageFix"/>
<feColorMatrix in="SourceAlpha" type="matrix" values="0 0 0 0 0 0 0 0 0 0 0 0 0 0 0 0 0 0 127 0" result="hardAlpha"/>
<feOffset dy="4"/>
<feGaussianBlur stdDeviation="2"/>
<feComposite in2="hardAlpha" operator="out"/>
<feColorMatrix type="matrix" values="0 0 0 0 0 0 0 0 0 0 0 0 0 0 0 0 0 0 0.25 0"/>
<feBlend mode="normal" in2="BackgroundImageFix" result="effect1_dropShadow_2_2"/>
<feBlend mode="normal" in="SourceGraphic" in2="effect1_dropShadow_2_2" result="shape"/>
</filter>
<filter id="filter4_d_2_2" x="0.496277" y="42.4962" width="178.008" height="269.514" filterUnits="userSpaceOnUse" color-interpolation-filters="sRGB">
<feFlood flood-opacity="0" result="BackgroundImageFix"/>
<feColorMatrix in="SourceAlpha" type="matrix" values="0 0 0 0 0 0 0 0 0 0 0 0 0 0 0 0 0 0 127 0" result="hardAlpha"/>
<feOffset dy="4"/>
<feGaussianBlur stdDeviation="2"/>
<feComposite in2="hardAlpha" operator="out"/>
<feColorMatrix type="matrix" values="0 0 0 0 0 0 0 0 0 0 0 0 0 0 0 0 0 0 0.25 0"/>
<feBlend mode="normal" in2="BackgroundImageFix" result="effect1_dropShadow_2_2"/>
<feBlend mode="normal" in="SourceGraphic" in2="effect1_dropShadow_2_2" result="shape"/>
</filter>
<filter id="filter5_d_2_2" x="127.496" y="119.496" width="178.008" height="269.514" filterUnits="userSpaceOnUse" color-interpolation-filters="sRGB">
<feFlood flood-opacity="0" result="BackgroundImageFix"/>
<feColorMatrix in="SourceAlpha" type="matrix" values="0 0 0 0 0 0 0 0 0 0 0 0 0 0 0 0 0 0 127 0" result="hardAlpha"/>
<feOffset dy="4"/>
<feGaussianBlur stdDeviation="2"/>
<feComposite in2="hardAlpha" operator="out"/>
<feColorMatrix type="matrix" values="0 0 0 0 0 0 0 0 0 0 0 0 0 0 0 0 0 0 0.25 0"/>
<feBlend mode="normal" in2="BackgroundImageFix" result="effect1_dropShadow_2_2"/>
<feBlend mode="normal" in="SourceGraphic" in2="effect1_dropShadow_2_2" result="shape"/>
</filter>
</defs>
</svg>
