<svg width="1806" height="532" viewBox="0 0 1806 532" fill="none" xmlns="http://www.w3.org/2000/svg">
<path d="M626.047 398.664C596.048 398.664 575.349 391.934 563.949 378.474C552.65 365.014 547 343.198 547 313.025H577.749C577.749 338.711 581.849 355.48 590.048 363.331C598.248 371.071 610.198 374.941 625.897 374.941C641.496 374.941 653.446 371.688 661.745 365.182C670.145 358.677 674.345 349.872 674.345 338.767C674.345 325.195 669.245 315.717 659.046 310.333C648.846 304.949 634.497 299.734 615.997 294.686C591.298 287.844 573.649 280.217 563.049 271.805C552.45 263.392 547.15 249.764 547.15 230.92C547.15 213.647 553 198.897 564.699 186.671C576.399 174.333 596.748 168.164 625.747 168.164C655.346 168.164 675.845 175.062 687.244 188.858C698.744 202.542 704.494 223.742 704.494 252.456H673.745C673.745 227.443 669.495 211.123 660.995 203.496C652.596 195.756 640.746 191.887 625.447 191.887C609.848 191.887 597.848 195.196 589.448 201.813C581.049 208.319 576.849 216.787 576.849 227.219C576.849 240.342 581.949 249.708 592.148 255.316C602.448 260.925 616.697 266.196 634.897 271.132C660.196 278.086 678.145 285.545 688.744 293.509C699.344 301.36 704.644 314.876 704.644 334.056C704.644 352.227 698.894 367.538 687.394 379.988C675.895 392.438 655.446 398.664 626.047 398.664Z" fill="white"/>
<path d="M805.852 398.832C778.553 398.832 758.804 390.139 746.605 372.753C734.405 355.256 728.305 330.243 728.305 297.715C728.305 263.392 734.405 237.875 746.605 221.162C758.804 204.449 778.553 196.093 805.852 196.093C830.851 196.093 848.601 203.272 859.1 217.629C869.7 231.874 875.5 247.745 876.499 265.243L849.351 275.338C848.951 258.625 845.001 245.221 837.501 235.126C830.101 225.032 819.552 219.984 805.852 219.984C791.853 219.984 780.553 225.649 771.954 236.977C763.454 248.306 759.204 268.552 759.204 297.715C759.204 324.971 763.504 344.712 772.104 356.938C780.703 369.052 791.953 375.109 805.852 375.109C819.452 375.109 830.001 369.669 837.501 358.789C845.001 347.797 848.951 334.898 849.351 320.092L876.499 330.523C875.5 346.114 869.7 361.425 859.1 376.455C848.501 391.373 830.751 398.832 805.852 398.832Z" fill="white"/>
<path d="M964.919 399C958.519 399 952.269 398.495 946.169 397.486C940.17 396.588 934.57 394.906 929.37 392.438C924.17 389.971 919.57 386.494 915.571 382.007C911.671 377.408 908.621 371.576 906.421 364.509C904.221 357.443 903.121 348.862 903.121 338.767C903.121 329.009 904.221 320.709 906.421 313.867C908.621 307.024 911.621 301.416 915.421 297.042C919.32 292.555 923.82 289.078 928.92 286.61C934.12 284.143 939.67 282.46 945.569 281.563C951.469 280.553 957.569 280.049 963.869 280.049H1021.92V268.776C1021.92 256.774 1020.07 247.184 1016.37 240.006C1012.77 232.715 1007.67 227.443 1001.07 224.19C994.567 220.938 987.018 219.311 978.418 219.311C970.518 219.311 963.519 220.825 957.419 223.854C951.319 226.882 946.319 231.762 942.42 238.491C938.52 245.221 935.92 254.082 934.62 265.075L904.921 256.157C906.321 245.277 909.021 236.024 913.021 228.397C917.021 220.769 922.22 214.6 928.62 209.889C935.02 205.066 942.37 201.533 950.669 199.29C959.069 197.046 968.269 195.925 978.268 195.925C993.668 195.925 1006.87 198.336 1017.87 203.159C1028.97 207.983 1037.47 215.834 1043.37 226.714C1049.37 237.482 1052.37 252.007 1052.37 270.29V397.149H1026.87L1024.32 371.912C1023.32 374.716 1021.27 377.689 1018.17 380.829C1015.17 383.97 1011.17 386.942 1006.17 389.746C1001.27 392.551 995.367 394.794 988.468 396.476C981.568 398.159 973.718 399 964.919 399ZM971.518 377.128C978.218 377.128 984.418 376.399 990.118 374.941C995.817 373.482 1000.87 371.52 1005.27 369.052C1009.67 366.472 1013.27 363.612 1016.07 360.471C1018.97 357.218 1020.92 353.853 1021.92 350.376L1022.52 299.565H970.768C965.869 299.565 961.219 300.07 956.819 301.08C952.419 302.089 948.469 303.94 944.969 306.632C941.57 309.324 938.87 313.194 936.87 318.241C934.97 323.288 934.02 329.85 934.02 337.926C934.02 346.002 935.02 352.62 937.02 357.779C939.02 362.827 941.77 366.752 945.269 369.557C948.869 372.361 952.919 374.324 957.419 375.445C961.919 376.567 966.619 377.128 971.518 377.128Z" fill="white"/>
<path d="M1088.75 397.149V133H1119.05V397.149H1088.75Z" fill="white"/>
<path d="M1227.18 398.832C1199.58 398.832 1179.68 389.859 1167.48 371.912C1155.38 353.966 1149.33 329.009 1149.33 297.042C1149.33 263.392 1155.53 238.155 1167.93 221.33C1180.33 204.393 1199.93 195.925 1226.73 195.925C1254.23 195.925 1273.88 204.393 1285.68 221.33C1297.58 238.155 1303.53 263.224 1303.53 296.537C1303.53 300.463 1303.33 304.108 1302.93 307.473H1175.43V286.274H1275.03L1273.38 289.975C1273.38 263.953 1269.28 245.558 1261.08 234.79C1252.88 223.91 1241.43 218.47 1226.73 218.47C1212.43 218.47 1200.83 224.134 1191.93 235.463C1183.13 246.792 1178.73 267.318 1178.73 297.042C1178.73 325.195 1182.98 345.497 1191.48 357.948C1200.08 370.286 1211.98 376.455 1227.18 376.455V398.832ZM1227.18 376.455C1235.88 376.455 1243.43 374.828 1249.83 371.576C1256.33 368.211 1261.33 362.602 1264.83 354.751C1268.43 346.899 1271.08 338.094 1272.78 328.336L1300.08 336.58C1298.38 350.264 1294.43 361.873 1288.23 371.407C1282.03 380.941 1274.03 387.896 1264.23 392.27C1254.53 396.645 1242.18 398.832 1227.18 398.832V376.455Z" fill="white"/>
<path d="M1391.17 399C1384.77 399 1378.52 398.495 1372.42 397.486C1366.42 396.588 1360.82 394.906 1355.62 392.438C1350.42 389.971 1345.82 386.494 1341.82 382.007C1337.92 377.408 1334.87 371.576 1332.67 364.509C1330.47 357.443 1329.37 348.862 1329.37 338.767C1329.37 329.009 1330.47 320.709 1332.67 313.867C1334.87 307.024 1337.87 301.416 1341.67 297.042C1345.57 292.555 1350.07 289.078 1355.17 286.61C1360.37 284.143 1365.92 282.46 1371.82 281.563C1377.72 280.553 1383.82 280.049 1390.12 280.049H1448.17V268.776C1448.17 256.774 1446.32 247.184 1442.62 240.006C1439.02 232.715 1433.92 227.443 1427.32 224.19C1420.82 220.938 1413.27 219.311 1404.67 219.311C1396.77 219.311 1389.77 220.825 1383.67 223.854C1377.57 226.882 1372.57 231.762 1368.67 238.491C1364.77 245.221 1362.17 254.082 1360.87 265.075L1331.17 256.157C1332.57 245.277 1335.27 236.024 1339.27 228.397C1343.27 220.769 1348.47 214.6 1354.87 209.889C1361.27 205.066 1368.62 201.533 1376.92 199.29C1385.32 197.046 1394.52 195.925 1404.52 195.925C1419.92 195.925 1433.12 198.336 1444.12 203.159C1455.22 207.983 1463.72 215.834 1469.62 226.714C1475.62 237.482 1478.62 252.007 1478.62 270.29V397.149H1453.12L1450.57 371.912C1449.57 374.716 1447.52 377.689 1444.42 380.829C1441.42 383.97 1437.42 386.942 1432.42 389.746C1427.52 392.551 1421.62 394.794 1414.72 396.476C1407.82 398.159 1399.97 399 1391.17 399ZM1397.77 377.128C1404.47 377.128 1410.67 376.399 1416.37 374.941C1422.07 373.482 1427.12 371.52 1431.52 369.052C1435.92 366.472 1439.52 363.612 1442.32 360.471C1445.22 357.218 1447.17 353.853 1448.17 350.376L1448.77 299.565H1397.02C1392.12 299.565 1387.47 300.07 1383.07 301.08C1378.67 302.089 1374.72 303.94 1371.22 306.632C1367.82 309.324 1365.12 313.194 1363.12 318.241C1361.22 323.288 1360.27 329.85 1360.27 337.926C1360.27 346.002 1361.27 352.62 1363.27 357.779C1365.27 362.827 1368.02 366.752 1371.52 369.557C1375.12 372.361 1379.17 374.324 1383.67 375.445C1388.17 376.567 1392.87 377.128 1397.77 377.128Z" fill="white"/>
<path d="M1511.26 397.149V197.775H1534.95L1541.55 236.472V397.149H1511.26ZM1622.7 397.149V283.414C1622.7 260.195 1619.6 243.763 1613.4 234.117C1607.3 224.471 1598 219.648 1585.5 219.648C1572.9 219.648 1562.25 224.863 1553.55 235.295C1544.95 245.614 1540.65 258.625 1540.65 274.328L1525.96 263.729C1525.96 247.465 1532.5 232.098 1545.6 217.629C1558.8 203.047 1575.75 195.756 1596.45 195.756C1617.05 195.756 1631.6 203.552 1640.1 219.143C1648.7 234.622 1653 255.933 1653 283.077V397.149H1622.7Z" fill="white"/>
<path d="M494 115V416.027" stroke="white" stroke-width="20" stroke-linecap="round"/>
<g filter="url(#filter0_d_2_2)">
<path d="M419 119L384 179.622" stroke="#FA8525" stroke-width="45" stroke-linecap="round"/>
</g>
<g filter="url(#filter1_d_2_2)">
<path d="M202 353L167 413.622" stroke="#2D9B43" stroke-width="45" stroke-linecap="round"/>
</g>
<g filter="url(#filter2_d_2_2)">
<path d="M167 121L419 119" stroke="#F99B27" stroke-width="45" stroke-linecap="round"/>
</g>
<g filter="url(#filter3_d_2_2)">
<path d="M167 414L419 412" stroke="#49B854" stroke-width="45" stroke-linecap="round"/>
</g>
<g filter="url(#filter4_d_2_2)">
<path d="M292 337.506L167 121" stroke="#DB1D21" stroke-width="45" stroke-linecap="round"/>
</g>
<g filter="url(#filter5_d_2_2)">
<path d="M419 411.506L294 195" stroke="#23AD94" stroke-width="45" stroke-linecap="round"/>
</g>
<defs>
<filter id="filter0_d_2_2" x="357.496" y="96.4962" width="88.0075" height="113.629" filterUnits="userSpaceOnUse" color-interpolation-filters="sRGB">
<feFlood flood-opacity="0" result="BackgroundImageFix"/>
<feColorMatrix in="SourceAlpha" type="matrix" values="0 0 0 0 0 0 0 0 0 0 0 0 0 0 0 0 0 0 127 0" result="hardAlpha"/>
<feOffset dy="4"/>
<feGaussianBlur stdDeviation="2"/>
<feComposite in2="hardAlpha" operator="out"/>
<feColorMatrix type="matrix" values="0 0 0 0 0 0 0 0 0 0 0 0 0 0 0 0 0 0 0.25 0"/>
<feBlend mode="normal" in2="BackgroundImageFix" result="effect1_dropShadow_2_2"/>
<feBlend mode="normal" in="SourceGraphic" in2="effect1_dropShadow_2_2" result="shape"/>
</filter>
<filter id="filter1_d_2_2" x="140.496" y="330.496" width="88.0075" height="113.629" filterUnits="userSpaceOnUse" color-interpolation-filters="sRGB">
<feFlood flood-opacity="0" result="BackgroundImageFix"/>
<feColorMatrix in="SourceAlpha" type="matrix" values="0 0 0 0 0 0 0 0 0 0 0 0 0 0 0 0 0 0 127 0" result="hardAlpha"/>
<feOffset dy="4"/>
<feGaussianBlur stdDeviation="2"/>
<feComposite in2="hardAlpha" operator="out"/>
<feColorMatrix type="matrix" values="0 0 0 0 0 0 0 0 0 0 0 0 0 0 0 0 0 0 0.25 0"/>
<feBlend mode="normal" in2="BackgroundImageFix" result="effect1_dropShadow_2_2"/>
<feBlend mode="normal" in="SourceGraphic" in2="effect1_dropShadow_2_2" result="shape"/>
</filter>
<filter id="filter2_d_2_2" x="140.5" y="96.5" width="305" height="55" filterUnits="userSpaceOnUse" color-interpolation-filters="sRGB">
<feFlood flood-opacity="0" result="BackgroundImageFix"/>
<feColorMatrix in="SourceAlpha" type="matrix" values="0 0 0 0 0 0 0 0 0 0 0 0 0 0 0 0 0 0 127 0" result="hardAlpha"/>
<feOffset dy="4"/>
<feGaussianBlur stdDeviation="2"/>
<feComposite in2="hardAlpha" operator="out"/>
<feColorMatrix type="matrix" values="0 0 0 0 0 0 0 0 0 0 0 0 0 0 0 0 0 0 0.25 0"/>
<feBlend mode="normal" in2="BackgroundImageFix" result="effect1_dropShadow_2_2"/>
<feBlend mode="normal" in="SourceGraphic" in2="effect1_dropShadow_2_2" result="shape"/>
</filter>
<filter id="filter3_d_2_2" x="140.5" y="389.5" width="305" height="55" filterUnits="userSpaceOnUse" color-interpolation-filters="sRGB">
<feFlood flood-opacity="0" result="BackgroundImageFix"/>
<feColorMatrix in="SourceAlpha" type="matrix" values="0 0 0 0 0 0 0 0 0 0 0 0 0 0 0 0 0 0 127 0" result="hardAlpha"/>
<feOffset dy="4"/>
<feGaussianBlur stdDeviation="2"/>
<feComposite in2="hardAlpha" operator="out"/>
<feColorMatrix type="matrix" values="0 0 0 0 0 0 0 0 0 0 0 0 0 0 0 0 0 0 0.25 0"/>
<feBlend mode="normal" in2="BackgroundImageFix" result="effect1_dropShadow_2_2"/>
<feBlend mode="normal" in="SourceGraphic" in2="effect1_dropShadow_2_2" result="shape"/>
</filter>
<filter id="filter4_d_2_2" x="140.496" y="98.4962" width="178.007" height="269.514" filterUnits="userSpaceOnUse" color-interpolation-filters="sRGB">
<feFlood flood-opacity="0" result="BackgroundImageFix"/>
<feColorMatrix in="SourceAlpha" type="matrix" values="0 0 0 0 0 0 0 0 0 0 0 0 0 0 0 0 0 0 127 0" result="hardAlpha"/>
<feOffset dy="4"/>
<feGaussianBlur stdDeviation="2"/>
<feComposite in2="hardAlpha" operator="out"/>
<feColorMatrix type="matrix" values="0 0 0 0 0 0 0 0 0 0 0 0 0 0 0 0 0 0 0.25 0"/>
<feBlend mode="normal" in2="BackgroundImageFix" result="effect1_dropShadow_2_2"/>
<feBlend mode="normal" in="SourceGraphic" in2="effect1_dropShadow_2_2" result="shape"/>
</filter>
<filter id="filter5_d_2_2" x="267.496" y="172.496" width="178.008" height="269.514" filterUnits="userSpaceOnUse" color-interpolation-filters="sRGB">
<feFlood flood-opacity="0" result="BackgroundImageFix"/>
<feColorMatrix in="SourceAlpha" type="matrix" values="0 0 0 0 0 0 0 0 0 0 0 0 0 0 0 0 0 0 127 0" result="hardAlpha"/>
<feOffset dy="4"/>
<feGaussianBlur stdDeviation="2"/>
<feComposite in2="hardAlpha" operator="out"/>
<feColorMatrix type="matrix" values="0 0 0 0 0 0 0 0 0 0 0 0 0 0 0 0 0 0 0.25 0"/>
<feBlend mode="normal" in2="BackgroundImageFix" result="effect1_dropShadow_2_2"/>
<feBlend mode="normal" in="SourceGraphic" in2="effect1_dropShadow_2_2" result="shape"/>
</filter>
</defs>
</svg>
