<svg xmlns="http://www.w3.org/2000/svg" version="1.1" xmlns:xlink="http://www.w3.org/1999/xlink" xmlns:svgjs="http://svgjs.dev/svgjs" viewBox="0 0 13.007200981845322 10.22367566219573"><g transform="matrix(1,0,0,1,0.9595862086960985,7.255556348030881)"><rect width="13.007200981845322" height="13.007200981845322" x="-0.9595862086960985" y="-8.647319007855678" fill="#ffffff"></rect><g><path d=" M 0.15380859375 0.8642578125000002 Q 0.2314453125 0.9038085937500002 0.31640625 0.9235839843750002 Q 0.4013671875 0.9433593750000002 0.474609375 0.9433593750000002 Q 0.558837890625 0.9433593750000002 0.5980224609375 0.9191894531250002 Q 0.63720703125 0.8950195312500002 0.63720703125 0.8532714843750002 Q 0.63720703125 0.8400878906250002 0.6324462890625 0.8261718750000002 Q 0.627685546875 0.8122558593750002 0.6141357421875 0.7987060546875002 Q 0.6005859375 0.7851562500000002 0.5767822265625 0.7716064453125002 Q 0.552978515625 0.7580566406250002 0.514892578125 0.7448730468750002 L 0.3837890625 0.7001953125000002 Q 0.2431640625 0.6518554687500002 0.172119140625 0.5694580078125002 Q 0.10107421875 0.4870605468750002 0.10107421875 0.3735351562500002 Q 0.10107421875 0.3002929687500002 0.1318359375 0.23254394531250022 Q 0.16259765625 0.16479492187500022 0.224853515625 0.11315917968750022 Q 0.287109375 0.06152343750000022 0.3819580078125 0.030761718750000222 Q 0.476806640625 2.220446049250313e-16 0.604248046875 2.220446049250313e-16 Q 0.667236328125 2.220446049250313e-16 0.72509765625 0.007324218750000222 Q 0.782958984375 0.014648437500000222 0.8338623046875 0.026367187500000222 Q 0.884765625 0.03808593750000022 0.92724609375 0.05310058593750022 Q 0.9697265625 0.06811523437500022 1.001953125 0.08276367187500022 L 0.9228515625 0.22558593750000022 Q 0.8994140625 0.21093750000000022 0.8734130859375 0.19995117187500022 Q 0.847412109375 0.18896484375000022 0.8214111328125 0.18164062500000022 Q 0.79541015625 0.17431640625000022 0.7705078125 0.17065429687500022 Q 0.74560546875 0.16699218750000022 0.72509765625 0.16699218750000022 Q 0.68994140625 0.16699218750000022 0.66357421875 0.17614746093750022 Q 0.63720703125 0.18530273437500022 0.6192626953125 0.20031738281250022 Q 0.601318359375 0.21533203125000022 0.5921630859375 0.23400878906250022 Q 0.5830078125 0.2526855468750002 0.5830078125 0.2709960937500002 Q 0.5830078125 0.2871093750000002 0.5906982421875 0.3021240234375002 Q 0.598388671875 0.3171386718750002 0.6170654296875 0.3314208984375002 Q 0.6357421875 0.3457031250000002 0.6661376953125 0.3599853515625002 Q 0.696533203125 0.3742675781250002 0.741943359375 0.3896484375000002 L 0.829833984375 0.4189453125000002 Q 0.97265625 0.4665527343750002 1.048095703125 0.5500488281250002 Q 1.12353515625 0.6335449218750002 1.12353515625 0.7521972656250002 Q 1.12353515625 0.8327636718750002 1.0872802734375 0.9008789062500002 Q 1.051025390625 0.9689941406250002 0.979248046875 1.0184326171875002 Q 0.907470703125 1.0678710937500002 0.8009033203125 1.0953369140625002 Q 0.6943359375 1.1228027343750002 0.5537109375 1.1228027343750002 Q 0.486328125 1.1228027343750002 0.4237060546875 1.1158447265625002 Q 0.361083984375 1.1088867187500002 0.3013916015625 1.0949707031250002 Q 0.24169921875 1.0810546875000002 0.183837890625 1.0598144531250002 Q 0.1259765625 1.0385742187500002 0.068115234375 1.0100097656250002 L 0.15380859375 0.8642578125000002 M 1.27001953125 0.5625000000000002 Q 1.27001953125 0.4848632812500002 1.2901611328125 0.4127197265625002 Q 1.310302734375 0.3405761718750002 1.34912109375 0.2783203125000002 Q 1.387939453125 0.21606445312500022 1.4443359375 0.16479492187500022 Q 1.500732421875 0.11352539062500022 1.5728759765625 0.07690429687500022 Q 1.64501953125 0.04028320312500022 1.732177734375 0.020141601562500222 Q 1.8193359375 2.220446049250313e-16 1.919677734375 2.220446049250313e-16 Q 1.984130859375 2.220446049250313e-16 2.0430908203125 0.008056640625000222 Q 2.10205078125 0.016113281250000222 2.154052734375 0.030395507812500222 Q 2.2060546875 0.04467773437500022 2.2503662109375 0.06335449218750022 Q 2.294677734375 0.08203125000000022 2.33056640625 0.10253906250000022 L 2.267578125 0.22558593750000022 Q 2.2265625 0.20581054687500022 2.1741943359375 0.19226074218750022 Q 2.121826171875 0.17871093750000022 2.0654296875 0.17871093750000022 Q 1.989990234375 0.17871093750000022 1.925537109375 0.20581054687500022 Q 1.861083984375 0.23291015625000022 1.814208984375 0.2827148437500002 Q 1.767333984375 0.3325195312500002 1.7406005859375 0.4031982421875002 Q 1.7138671875 0.4738769531250002 1.7138671875 0.5617675781250002 Q 1.7138671875 0.6489257812500002 1.740234375 0.7196044921875002 Q 1.7666015625 0.7902832031250002 1.8131103515625 0.8404541015625002 Q 1.859619140625 0.8906250000000002 1.9237060546875 0.9180908203125002 Q 1.98779296875 0.9455566406250002 2.0625 0.9455566406250002 Q 2.115234375 0.9455566406250002 2.16796875 0.9327392578125002 Q 2.220703125 0.9199218750000002 2.2646484375 0.8986816406250002 L 2.32763671875 1.0217285156250002 Q 2.291748046875 1.0429687500000002 2.247802734375 1.0612792968750002 Q 2.203857421875 1.0795898437500002 2.152587890625 1.0938720703125002 Q 2.101318359375 1.1081542968750002 2.042724609375 1.1162109375000002 Q 1.984130859375 1.1242675781250002 1.919677734375 1.1242675781250002 Q 1.76953125 1.1242675781250002 1.6490478515625 1.0799560546875002 Q 1.528564453125 1.0356445312500002 1.4443359375 0.9591064453125002 Q 1.360107421875 0.8825683593750002 1.3150634765625 0.7803955078125002 Q 1.27001953125 0.6782226562500002 1.27001953125 0.5625000000000002 M 2.807373046875 0.2922363281250002 L 2.681396484375 0.017578125000000222 L 3.12744140625 0.017578125000000222 L 3.66064453125 1.1066894531250002 L 3.182373046875 1.1066894531250002 L 3.101806640625 0.9323730468750002 L 2.672607421875 0.9323730468750002 L 2.5927734375 1.1066894531250002 L 2.407470703125 1.1066894531250002 L 2.807373046875 0.2922363281250002 M 3.02490234375 0.7646484375000002 L 2.88720703125 0.4658203125000002 L 2.750244140625 0.7646484375000002 L 3.02490234375 0.7646484375000002 M 3.8173828125 0.017578125000000222 L 4.241455078125 0.017578125000000222 L 4.24072265625 0.9382324218750002 L 4.65673828125 0.9382324218750002 L 4.65673828125 1.1059570312500002 L 3.8173828125 1.1059570312500002 L 3.8173828125 0.017578125000000222 M 4.837646484375 0.017578125000000222 L 5.757568359375 0.017578125000000222 L 5.757568359375 0.18530273437500022 L 5.26171875 0.18530273437500022 L 5.260986328125 0.4790039062500002 L 5.640380859375 0.4790039062500002 L 5.640380859375 0.6467285156250002 L 5.260986328125 0.6467285156250002 L 5.260986328125 0.9382324218750002 L 5.757568359375 0.9382324218750002 L 5.757568359375 1.1059570312500002 L 4.837646484375 1.1059570312500002 L 4.837646484375 0.017578125000000222 M 6.283447265625 0.2922363281250002 L 6.157470703125 0.017578125000000222 L 6.603515625 0.017578125000000222 L 7.13671875 1.1066894531250002 L 6.658447265625 1.1066894531250002 L 6.577880859375 0.9323730468750002 L 6.148681640625 0.9323730468750002 L 6.06884765625 1.1066894531250002 L 5.883544921875 1.1066894531250002 L 6.283447265625 0.2922363281250002 M 6.5009765625 0.7646484375000002 L 6.36328125 0.4658203125000002 L 6.226318359375 0.7646484375000002 L 6.5009765625 0.7646484375000002 M 7.29345703125 0.017578125000000222 L 7.55859375 0.017578125000000222 L 8.249267578125 0.5976562500000002 L 8.25 0.017578125000000222 L 8.4111328125 0.017578125000000222 L 8.4111328125 1.1059570312500002 L 8.14599609375 1.1059570312500002 L 7.45458984375 0.5280761718750002 L 7.45458984375 1.1059570312500002 L 7.29345703125 1.1059570312500002 L 7.29345703125 0.017578125000000222" fill="#404040" fill-rule="nonzero"></path></g><g><path d=" M 0.06675 2.00403310546875 L 0.06675 1.47153310546875 L 0.11925000000000001 1.47153310546875 L 0.11925000000000001 1.95753310546875 L 0.42675 1.95753310546875 L 0.42675 2.00403310546875 L 0.06675 2.00403310546875 M 0.8692558593749999 1.95753310546875 L 0.8692558593749999 2.00403310546875 L 0.511505859375 2.00403310546875 L 0.511505859375 1.47153310546875 L 0.862505859375 1.47153310546875 L 0.862505859375 1.51803310546875 L 0.564005859375 1.51803310546875 L 0.564005859375 1.7100331054687499 L 0.824255859375 1.7100331054687499 L 0.824255859375 1.75428310546875 L 0.564005859375 1.75428310546875 L 0.564005859375 1.95753310546875 L 0.8692558593749999 1.95753310546875 M 1.353762451171875 1.51803310546875 L 1.164012451171875 1.51803310546875 L 1.164012451171875 2.00403310546875 L 1.111512451171875 2.00403310546875 L 1.111512451171875 1.51803310546875 L 0.921762451171875 1.51803310546875 L 0.921762451171875 1.47153310546875 L 1.353762451171875 1.47153310546875 L 1.353762451171875 1.51803310546875 M 1.42575146484375 1.61328310546875 L 1.42575146484375 1.46703310546875 L 1.47000146484375 1.46703310546875 L 1.47000146484375 1.61328310546875 L 1.42575146484375 1.61328310546875 M 1.907267578125 1.57128310546875 Q 1.896017578125 1.55853310546875 1.881017578125 1.54840810546875 Q 1.8660175781250001 1.53828310546875 1.847267578125 1.53078310546875 Q 1.828517578125 1.52328310546875 1.8071425781250001 1.51878310546875 Q 1.785767578125 1.51428310546875 1.761767578125 1.51428310546875 Q 1.692017578125 1.51428310546875 1.659392578125 1.54090810546875 Q 1.626767578125 1.5675331054687498 1.626767578125 1.61328310546875 Q 1.626767578125 1.6447831054687498 1.642142578125 1.6627831054687499 Q 1.657517578125 1.6807831054687499 1.6905175781250001 1.6920331054687499 Q 1.723517578125 1.7032831054687498 1.774517578125 1.7152831054687498 Q 1.8315175781250002 1.7272831054687499 1.872767578125 1.7437831054687498 Q 1.914017578125 1.76028310546875 1.9365175781250001 1.78840810546875 Q 1.959017578125 1.81653310546875 1.959017578125 1.86453310546875 Q 1.959017578125 1.90128310546875 1.944767578125 1.92828310546875 Q 1.930517578125 1.9552831054687498 1.905017578125 1.9732831054687499 Q 1.879517578125 1.9912831054687499 1.844267578125 1.99990810546875 Q 1.809017578125 2.00853310546875 1.767017578125 2.00853310546875 Q 1.7257675781250001 2.00853310546875 1.687892578125 1.99990810546875 Q 1.650017578125 1.9912831054687499 1.616267578125 1.97440810546875 Q 1.582517578125 1.95753310546875 1.553267578125 1.9312831054687498 L 1.579517578125 1.88853310546875 Q 1.593767578125 1.9035331054687499 1.6136425781250001 1.91665810546875 Q 1.633517578125 1.92978310546875 1.657892578125 1.94028310546875 Q 1.682267578125 1.95078310546875 1.710392578125 1.9564081054687499 Q 1.738517578125 1.9620331054687499 1.768517578125 1.9620331054687499 Q 1.832267578125 1.9620331054687499 1.867892578125 1.9387831054687499 Q 1.903517578125 1.9155331054687499 1.903517578125 1.86978310546875 Q 1.903517578125 1.8367831054687498 1.885517578125 1.81690810546875 Q 1.867517578125 1.7970331054687498 1.8315175781250002 1.78428310546875 Q 1.7955175781250001 1.77153310546875 1.743017578125 1.75953310546875 Q 1.687517578125 1.74678310546875 1.649267578125 1.7310331054687498 Q 1.611017578125 1.7152831054687498 1.591892578125 1.68940810546875 Q 1.5727675781250001 1.6635331054687499 1.5727675781250001 1.6207831054687498 Q 1.5727675781250001 1.57128310546875 1.597142578125 1.53715810546875 Q 1.621517578125 1.50303310546875 1.664267578125 1.4854081054687498 Q 1.707017578125 1.46778310546875 1.762517578125 1.46778310546875 Q 1.797767578125 1.46778310546875 1.828142578125 1.4749081054687498 Q 1.858517578125 1.48203310546875 1.884392578125 1.4955331054687497 Q 1.910267578125 1.5090331054687498 1.932767578125 1.52928310546875 L 1.907267578125 1.57128310546875 M 2.2575172119140623 2.00403310546875 L 2.2575172119140623 1.47153310546875 L 2.4382672119140625 1.47153310546875 Q 2.5230172119140626 1.47153310546875 2.5796422119140625 1.50715810546875 Q 2.6362672119140624 1.54278310546875 2.6647672119140626 1.6031581054687498 Q 2.6932672119140624 1.6635331054687499 2.6932672119140624 1.73703310546875 Q 2.6932672119140624 1.81803310546875 2.6621422119140625 1.87803310546875 Q 2.6310172119140622 1.9380331054687499 2.5736422119140623 1.97103310546875 Q 2.5162672119140623 2.00403310546875 2.4382672119140625 2.00403310546875 L 2.2575172119140623 2.00403310546875 M 2.6407672119140626 1.73703310546875 Q 2.6407672119140626 1.6732831054687498 2.6171422119140626 1.62378310546875 Q 2.5935172119140626 1.5742831054687498 2.5485172119140627 1.5461581054687499 Q 2.5035172119140623 1.51803310546875 2.4382672119140625 1.51803310546875 L 2.3100172119140625 1.51803310546875 L 2.3100172119140625 1.95753310546875 L 2.4382672119140625 1.95753310546875 Q 2.5042672119140623 1.95753310546875 2.5492672119140622 1.92828310546875 Q 2.5942672119140626 1.89903310546875 2.6175172119140626 1.8491581054687498 Q 2.6407672119140626 1.79928310546875 2.6407672119140626 1.73703310546875 M 3.015787353515625 2.00778310546875 Q 2.9595373535156253 2.00778310546875 2.9137873535156253 1.9852831054687499 Q 2.8680373535156254 1.96278310546875 2.835037353515625 1.92415810546875 Q 2.802037353515625 1.8855331054687499 2.7840373535156253 1.8371581054687498 Q 2.766037353515625 1.78878310546875 2.766037353515625 1.73778310546875 Q 2.766037353515625 1.6845331054687498 2.7847873535156253 1.63615810546875 Q 2.803537353515625 1.58778310546875 2.837662353515625 1.54990810546875 Q 2.871787353515625 1.51203310546875 2.917537353515625 1.48990810546875 Q 2.963287353515625 1.46778310546875 3.0165373535156252 1.46778310546875 Q 3.072787353515625 1.46778310546875 3.118537353515625 1.49103310546875 Q 3.164287353515625 1.51428310546875 3.1969123535156254 1.55328310546875 Q 3.2295373535156253 1.5922831054687498 3.247537353515625 1.64028310546875 Q 3.2655373535156254 1.68828310546875 3.2655373535156254 1.7385331054687498 Q 3.2655373535156254 1.7917831054687499 3.246787353515625 1.84015810546875 Q 3.2280373535156253 1.88853310546875 3.1942873535156253 1.9264081054687499 Q 3.1605373535156254 1.96428310546875 3.1147873535156254 1.98603310546875 Q 3.0690373535156255 2.00778310546875 3.015787353515625 2.00778310546875 M 2.8185373535156253 1.73778310546875 Q 2.8185373535156253 1.78128310546875 2.8327873535156254 1.8214081054687499 Q 2.847037353515625 1.8615331054687498 2.873287353515625 1.89265810546875 Q 2.8995373535156252 1.92378310546875 2.9359123535156253 1.94215810546875 Q 2.9722873535156253 1.9605331054687498 3.015787353515625 1.9605331054687498 Q 3.061537353515625 1.9605331054687498 3.097912353515625 1.94140810546875 Q 3.1342873535156253 1.92228310546875 3.1601623535156254 1.8904081054687498 Q 3.1860373535156254 1.85853310546875 3.199537353515625 1.81878310546875 Q 3.213037353515625 1.7790331054687498 3.213037353515625 1.73778310546875 Q 3.213037353515625 1.69428310546875 3.198787353515625 1.65453310546875 Q 3.1845373535156254 1.6147831054687498 3.1579123535156253 1.58328310546875 Q 3.131287353515625 1.5517831054687499 3.095287353515625 1.5337831054687499 Q 3.059287353515625 1.5157831054687498 3.015787353515625 1.5157831054687498 Q 2.9707873535156253 1.5157831054687498 2.9344123535156252 1.5345331054687499 Q 2.898037353515625 1.55328310546875 2.872162353515625 1.58515810546875 Q 2.846287353515625 1.61703310546875 2.8324123535156254 1.6567831054687499 Q 2.8185373535156253 1.6965331054687498 2.8185373535156253 1.73778310546875 M 3.5707734374999998 2.00403310546875 L 3.5707734374999998 1.47153310546875 L 3.6232734375 1.47153310546875 L 3.6232734375 2.00403310546875 L 3.5707734374999998 2.00403310546875 M 4.142262817382813 1.51803310546875 L 3.952512817382812 1.51803310546875 L 3.952512817382812 2.00403310546875 L 3.9000128173828124 2.00403310546875 L 3.9000128173828124 1.51803310546875 L 3.7102628173828123 1.51803310546875 L 3.7102628173828123 1.47153310546875 L 4.142262817382813 1.47153310546875 L 4.142262817382813 1.51803310546875 M 4.40626171875 2.00403310546875 L 4.40626171875 1.47153310546875 L 4.45876171875 1.47153310546875 L 4.45876171875 2.00403310546875 L 4.40626171875 2.00403310546875 M 4.652251098632813 1.5682831054687498 L 4.652251098632813 2.00403310546875 L 4.5997510986328125 2.00403310546875 L 4.5997510986328125 1.47153310546875 L 4.643251098632812 1.47153310546875 L 4.992751098632812 1.9155331054687499 L 4.992751098632812 1.4722831054687497 L 5.0452510986328125 1.4722831054687497 L 5.0452510986328125 2.00403310546875 L 4.996501098632812 2.00403310546875 L 4.652251098632813 1.5682831054687498 M 5.741240478515626 1.51803310546875 L 5.551490478515626 1.51803310546875 L 5.551490478515626 2.00403310546875 L 5.498990478515625 2.00403310546875 L 5.498990478515625 1.51803310546875 L 5.309240478515625 1.51803310546875 L 5.309240478515625 1.47153310546875 L 5.741240478515626 1.47153310546875 L 5.741240478515626 1.51803310546875 M 6.248229492187501 1.47153310546875 L 6.248229492187501 2.00403310546875 L 6.196479492187501 2.00403310546875 L 6.196479492187501 1.7550331054687498 L 5.880729492187501 1.7550331054687498 L 5.880729492187501 2.00403310546875 L 5.828229492187501 2.00403310546875 L 5.828229492187501 1.47153310546875 L 5.880729492187501 1.47153310546875 L 5.880729492187501 1.7085331054687498 L 6.196479492187501 1.7085331054687498 L 6.196479492187501 1.47153310546875 L 6.248229492187501 1.47153310546875 M 6.746961547851564 1.95753310546875 L 6.746961547851564 2.00403310546875 L 6.389211547851564 2.00403310546875 L 6.389211547851564 1.47153310546875 L 6.740211547851564 1.47153310546875 L 6.740211547851564 1.51803310546875 L 6.441711547851564 1.51803310546875 L 6.441711547851564 1.7100331054687499 L 6.701961547851564 1.7100331054687499 L 6.701961547851564 1.75428310546875 L 6.441711547851564 1.75428310546875 L 6.441711547851564 1.95753310546875 L 6.746961547851564 1.95753310546875 M 7.052221801757814 2.00403310546875 L 7.052221801757814 1.47153310546875 L 7.277221801757815 1.47153310546875 Q 7.311721801757814 1.47153310546875 7.3402218017578145 1.4857831054687498 Q 7.368721801757815 1.50003310546875 7.390096801757815 1.52440810546875 Q 7.4114718017578145 1.54878310546875 7.423096801757814 1.5784081054687498 Q 7.4347218017578145 1.60803310546875 7.4347218017578145 1.6387831054687498 Q 7.4347218017578145 1.67703310546875 7.420096801757814 1.71078310546875 Q 7.405471801757814 1.7445331054687498 7.378846801757814 1.7677831054687498 Q 7.352221801757814 1.7910331054687498 7.3162218017578144 1.79853310546875 L 7.446721801757814 2.00403310546875 L 7.3874718017578145 2.00403310546875 L 7.262221801757814 1.80753310546875 L 7.104721801757814 1.80753310546875 L 7.104721801757814 2.00403310546875 L 7.052221801757814 2.00403310546875 M 7.104721801757814 1.76103310546875 L 7.278721801757815 1.76103310546875 Q 7.310221801757814 1.76103310546875 7.333471801757814 1.7437831054687498 Q 7.356721801757814 1.7265331054687498 7.369471801757815 1.6984081054687499 Q 7.382221801757814 1.67028310546875 7.382221801757814 1.6387831054687498 Q 7.382221801757814 1.60653310546875 7.367596801757815 1.5791581054687498 Q 7.352971801757814 1.5517831054687499 7.328596801757814 1.53490810546875 Q 7.304221801757814 1.51803310546875 7.274221801757815 1.51803310546875 L 7.104721801757814 1.51803310546875 L 7.104721801757814 1.76103310546875 M 7.549483154296877 2.00403310546875 L 7.549483154296877 1.47153310546875 L 7.601983154296877 1.47153310546875 L 7.601983154296877 2.00403310546875 L 7.549483154296877 2.00403310546875 M 7.95672253417969 2.00778310546875 Q 7.90347253417969 2.00778310546875 7.85772253417969 1.9849081054687499 Q 7.81197253417969 1.9620331054687499 7.77822253417969 1.92303310546875 Q 7.74447253417969 1.8840331054687498 7.72609753417969 1.83603310546875 Q 7.70772253417969 1.78803310546875 7.70772253417969 1.73703310546875 Q 7.70772253417969 1.68303310546875 7.72609753417969 1.63465810546875 Q 7.74447253417969 1.5862831054687498 7.77747253417969 1.54878310546875 Q 7.81047253417969 1.5112831054687499 7.85547253417969 1.48953310546875 Q 7.9004725341796895 1.46778310546875 7.95372253417969 1.46778310546875 Q 8.03247253417969 1.46778310546875 8.08197253417969 1.50003310546875 Q 8.13147253417969 1.5322831054687498 8.15697253417969 1.58403310546875 L 8.11647253417969 1.61103310546875 Q 8.09097253417969 1.56153310546875 8.04822253417969 1.53828310546875 Q 8.00547253417969 1.51503310546875 7.95297253417969 1.51503310546875 Q 7.90872253417969 1.51503310546875 7.87309753417969 1.5337831054687499 Q 7.83747253417969 1.55253310546875 7.81197253417969 1.58403310546875 Q 7.78647253417969 1.6155331054687498 7.77334753417969 1.65528310546875 Q 7.7602225341796895 1.69503310546875 7.7602225341796895 1.73778310546875 Q 7.7602225341796895 1.78278310546875 7.77522253417969 1.82290810546875 Q 7.79022253417969 1.86303310546875 7.81797253417969 1.89415810546875 Q 7.84572253417969 1.9252831054687498 7.88209753417969 1.9429081054687498 Q 7.91847253417969 1.9605331054687498 7.96047253417969 1.9605331054687498 Q 8.00922253417969 1.9605331054687498 8.05272253417969 1.93615810546875 Q 8.09622253417969 1.91178310546875 8.13597253417969 1.8607831054687498 L 8.13597253417969 1.91628310546875 Q 8.06022253417969 2.00778310546875 7.95672253417969 2.00778310546875 M 8.12772253417969 1.78278310546875 L 8.00922253417969 1.78278310546875 L 8.00922253417969 1.74228310546875 L 8.17197253417969 1.74228310546875 L 8.17197253417969 2.00403310546875 L 8.12772253417969 2.00403310546875 L 8.12772253417969 1.78278310546875 M 8.707475097656253 1.47153310546875 L 8.707475097656253 2.00403310546875 L 8.655725097656253 2.00403310546875 L 8.655725097656253 1.7550331054687498 L 8.339975097656252 1.7550331054687498 L 8.339975097656252 2.00403310546875 L 8.287475097656253 2.00403310546875 L 8.287475097656253 1.47153310546875 L 8.339975097656252 1.47153310546875 L 8.339975097656252 1.7085331054687498 L 8.655725097656253 1.7085331054687498 L 8.655725097656253 1.47153310546875 L 8.707475097656253 1.47153310546875 M 9.226457153320316 1.51803310546875 L 9.036707153320316 1.51803310546875 L 9.036707153320316 2.00403310546875 L 8.984207153320316 2.00403310546875 L 8.984207153320316 1.51803310546875 L 8.794457153320316 1.51803310546875 L 8.794457153320316 1.47153310546875 L 9.226457153320316 1.47153310546875 L 9.226457153320316 1.51803310546875 M 9.664476196289066 1.4752831054687499 L 9.713976196289066 1.4752831054687499 L 9.788976196289067 1.66428310546875 L 9.864726196289066 1.4752831054687499 L 9.914976196289066 1.4752831054687499 L 9.821976196289066 1.70253310546875 L 9.923976196289066 1.9432831054687498 L 10.116726196289067 1.47153310546875 L 10.173726196289065 1.47153310546875 L 9.947976196289066 2.00403310546875 L 9.901476196289066 2.00403310546875 L 9.789726196289067 1.74078310546875 L 9.677226196289066 2.00403310546875 L 9.631476196289066 2.00403310546875 L 9.406476196289066 1.47153310546875 L 9.462726196289067 1.47153310546875 L 9.656226196289065 1.9432831054687498 L 9.757476196289065 1.70253310546875 L 9.664476196289066 1.4752831054687499 M 10.376243408203129 1.47153310546875 L 10.420493408203129 1.47153310546875 L 10.641743408203128 2.00403310546875 L 10.58624340820313 2.00403310546875 L 10.517243408203129 1.8375331054687498 L 10.277993408203129 1.8375331054687498 L 10.20974340820313 2.00403310546875 L 10.15349340820313 2.00403310546875 L 10.376243408203129 1.47153310546875 M 10.505243408203128 1.7962831054687498 L 10.39799340820313 1.5330331054687498 L 10.289243408203129 1.7962831054687498 L 10.505243408203128 1.7962831054687498 M 10.669527832031255 1.47153310546875 L 10.843527832031254 1.75803310546875 L 11.019027832031254 1.47153310546875 L 11.076027832031254 1.47153310546875 L 10.869777832031254 1.80603310546875 L 10.869777832031254 2.00403310546875 L 10.817277832031253 2.00403310546875 L 10.817277832031253 1.80453310546875 L 10.611777832031255 1.47153310546875 L 10.669527832031255 1.47153310546875" fill="#4e888f" fill-rule="nonzero"></path></g><g clip-path="url(#SvgjsClipPath1002)"><g clip-path="url(#SvgjsClipPath1000fa7da611-b0cd-4539-a2ac-5e7010b3f237)"><path d=" M 6.006799211922188 -0.24999999999999822 L 6.006799211922188 -0.24999999999999822 L 0.03906674941415602 -0.2950048953251052 C 0.017612931174465416 -0.29517653135247723 0.00031184744026264885 -0.31261713995550444 0.0003125339953132847 -0.3340716447392609 L 0.0003125339953132847 -6.256903389920627 C 0.00022362755167080851 -6.272743496440858 0.009733440677902465 -6.287060763289674 0.0243688029277784 -6.293120717971264 C 0.039004165177654336 -6.299180672652851 0.05585157776522961 -6.29577694457616 0.0669864529954728 -6.2845105595066295 L 6.034718915503505 -0.3167780969985987 C 6.045845555595437 -0.30557867528393157 6.049161645522339 -0.28879446236722117 6.043130151248028 -0.27420507433011654 C 6.037098656973719 -0.259615686293011 6.0228985709545615 -0.25007295017147424 6.0071117459175 -0.24999999999999822 Z M 0.07813349882831204 -0.37282586015810537 L 5.912101411342275 -0.3288627448173749 L 0.07813349882831204 -6.1628306573313365 Z" fill="#4e888f" transform="matrix(1,0,0,1,0,0)" fill-rule="nonzero"></path></g><g clip-path="url(#SvgjsClipPath1000fa7da611-b0cd-4539-a2ac-5e7010b3f237)"><path d=" M 6.006799211922188 -0.24999999999999822 C 5.9852469977270815 -0.25005724389940465 5.967789706407438 -0.26751453521904356 5.967732462508033 -0.2890667494141539 L 5.967732462508033 -4.9238417219111845 L 1.3692114334673393 -0.32532069287049215 C 1.3538186260968277 -0.3109775254046889 1.329831643648893 -0.31140074771657567 1.3149543963951538 -0.32627799497031695 C 1.3000771491414145 -0.3411552422240529 1.2996539268295284 -0.3651422246719873 1.3139970942953323 -0.3805350320424994 L 5.979192042336185 -5.045834158081788 C 5.990364446107621 -5.056992679258581 6.007155608958891 -5.060328349001641 6.021744770597972 -5.054287524260458 C 6.036333932237056 -5.048246699519279 6.045852072633668 -5.034017333900141 6.045865961336343 -5.018226988495786 L 6.045865961336343 -0.2885458594219674 C 6.045525318492604 -0.26719733537733426 6.028150385030839 -0.2500540676950571 6.006799211922188 -0.24999999999999822 Z" fill="#4e888f" transform="matrix(1,0,0,1,0,0)" fill-rule="nonzero"></path></g><g clip-path="url(#SvgjsClipPath1000fa7da611-b0cd-4539-a2ac-5e7010b3f237)"><path d=" M 4.342868220874456 -0.2864622994532091 C 4.332520994441945 -0.28642081109991846 4.322584533090132 -0.2905078838823618 4.315261051288453 -0.2978177012829253 L 0.050422151243870596 -4.56296913532282 C 0.03517513293993779 -4.578244922081115 0.035198454154242276 -4.602988544406649 0.05047424063427982 -4.618235562989366 C 0.0657500271143175 -4.633482581572085 0.09049364944027505 -4.6334592608093566 0.10574066830177788 -4.618183474607577 L 4.370475390460459 -0.3534487524486849 C 4.3816339116372545 -0.34227634867725243 4.3849695813803145 -0.32548518582598085 4.378928756639132 -0.3108960241868992 C 4.372887931897949 -0.2963068625478167 4.358658566278813 -0.2867887221512042 4.342868220874456 -0.2867748334485274 Z" fill="#4e888f" transform="matrix(1,0,0,1,0,0)" fill-rule="nonzero"></path></g><g clip-path="url(#SvgjsClipPath1000fa7da611-b0cd-4539-a2ac-5e7010b3f237)"><path d=" M 3.674253826900981 -0.9553892274220006 C 3.6584445193805215 -0.9553609554588762 3.6441765744105337 -0.9648636431943389 3.6381090215500747 -0.9794622666180013 C 3.6320414686896156 -0.9940608900416628 3.635370525525043 -1.010877331652507 3.646542479316539 -1.0220631464221581 L 5.96137760460333 -3.336794093710511 C 5.976770411973841 -3.351137261176315 6.000757394421776 -3.3507140388644276 6.015634641675516 -3.335836791610687 C 6.030511888929254 -3.32095954435695 6.030935111241141 -3.296972561909016 6.016591943775337 -3.281579754538502 L 3.701860996486985 -0.9668488072501518 C 3.694535125476591 -0.9595299394974441 3.6846092018473753 -0.9554097447834291 3.67425382690098 -0.9553892274220006 Z" fill="#4e888f" transform="matrix(1,0,0,1,0,0)" fill-rule="nonzero"></path></g><g clip-path="url(#SvgjsClipPath1000fa7da611-b0cd-4539-a2ac-5e7010b3f237)"><path d=" M 1.8119679268277742 -1.4653405297747826 C 1.6721183200965777 -1.4653405297747852 1.546039206224901 -1.5495839003516316 1.4925210787060992 -1.6787880896403369 C 1.4390029511872973 -1.8079922789290421 1.4685852889670492 -1.9567127339185957 1.56747389423295 -2.0556013391844985 C 1.6663624994988508 -2.1544899444503978 1.8150829544884064 -2.184072282230151 1.9442871437771108 -2.130554154711348 C 2.0734913330658156 -2.0770360271925457 2.1577347036426646 -1.9509569133208675 2.157734703642664 -1.8111073065896726 C 2.1575050895256966 -1.6202407789432574 2.002834454474211 -1.4655701438917648 1.8119679268277866 -1.4653405297747852 Z M 1.8119679268277742 -2.078740584576251 C 1.7037203704275206 -2.078740584576251 1.6061315655054538 -2.013533829827252 1.5647070190770713 -1.9135261280246976 C 1.5232824726486882 -1.8135184262221422 1.5461800399147878 -1.6984045820316727 1.6227226210922805 -1.621862000854179 C 1.6992652022697732 -1.5453194196766873 1.8143790464602432 -1.5224218524105861 1.9143867482627992 -1.5638463988389715 C 2.014394450065354 -1.6052709452673541 2.0796012048143524 -1.702859750189421 2.079601204814352 -1.8111073065896726 C 2.0791996587026476 -1.9586829265867296 1.9595439933645793 -2.0781522849332275 1.811967926827776 -2.0783238725825006 Z" fill="#4e888f" transform="matrix(1,0,0,1,0,0)" fill-rule="nonzero"></path></g></g></g><defs><clipPath id="SvgjsClipPath1002"><path d=" M 0 -6.2959701393347824 h 6.0459701393347824 v 6.0459701393347824 h -6.0459701393347824 Z"></path></clipPath><clipPath id="SvgjsClipPath1000fa7da611-b0cd-4539-a2ac-5e7010b3f237"><path d=" M 0 -6.2959701393347824 L 6.0459701393347824 -6.2959701393347824 L 6.0459701393347824 -0.25 L 0 -0.25 Z"></path></clipPath></defs></svg>